<svg xmlns="http://www.w3.org/2000/svg" viewBox="0 0 581.02 136.46"><defs><style>.cls-1{fill:#f6921e;}.cls-2{fill:#98563b;}.cls-3,.cls-4{fill:#893d1e;}.cls-4,.cls-7{font-size:117.26px;}.cls-4{font-family:CheapPine-Shadow, Cheap Pine;}.cls-5{letter-spacing:-0.01em;}.cls-6{letter-spacing:0em;}.cls-7,.cls-8{fill:#fff;}.cls-7{font-family:CheapPine-Sans, Cheap Pine;}.cls-9{fill:none;}</style></defs><g id="Layer_2" data-name="Layer 2"><g id="Layer_1-2" data-name="Layer 1"><rect class="cls-1" width="581.02" height="136.46"/><path class="cls-2" d="M311.05,68.37c0,.29.2.19.24.23C311.22,68.1,311,68.38,311.05,68.37Z"/><polygon class="cls-2" points="310.15 63.58 310.25 63.65 309.94 62.99 310.15 63.58"/><path class="cls-2" d="M309.16,59.2c-.22.51.47,1.56.55,2.37l0,.14L310,62A24.41,24.41,0,0,1,309.16,59.2Z"/><path class="cls-2" d="M309.05,56.66c-.07.19-.29-.46.16.55V57.1A4.3,4.3,0,0,1,309.05,56.66Z"/><path class="cls-2" d="M309.21,57.1c.17.45,0-.34,0,0Z"/><path class="cls-2" d="M308.26,55.07l.39.53c0-.16-.21-.68-.07-.52C308.24,54.52,308.22,54.68,308.26,55.07Z"/><path class="cls-2" d="M307.76,54.64l.19.27C308,54.85,307.93,54.76,307.76,54.64Z"/><path class="cls-2" d="M308.36,55.49l-.41-.58c0,.11-.11.17.18.27C308,55.18,308.16,55.26,308.36,55.49Z"/><path class="cls-2" d="M308.48,55.87c.09.35.19.8-.15.26C308.8,57.24,309,57,308.48,55.87Z"/><path class="cls-2" d="M308.73,59.09a3.73,3.73,0,0,1,0,.47l.22.36C308.89,59.74,308.84,59,308.73,59.09Z"/><path class="cls-2" d="M306.52,51.48c-.08,0-.06.29-.12.39l.32.35C306.64,52,306.44,51.57,306.52,51.48Z"/><path class="cls-2" d="M306.4,51.87l-.47-.53C306.24,51.88,306.35,51.94,306.4,51.87Z"/><polygon class="cls-2" points="307.36 54.71 308.1 55.62 307.26 54.52 307.36 54.71"/><polygon class="cls-2" points="305 49.25 305.38 49.47 304.74 49.05 305 49.25"/><path class="cls-2" d="M303.88,47.85c.31.13-.09-.47.19-.29a5.3,5.3,0,0,0-1.06-.78A3.77,3.77,0,0,1,303.88,47.85Z"/><path class="cls-2" d="M302.46,46.43c.16.12.35.23.55.35A3.43,3.43,0,0,0,302.46,46.43Z"/><path class="cls-2" d="M305.3,50.32a.83.83,0,0,0-.16-.56v.34Z"/><path class="cls-2" d="M305.14,50.11h0l-.35-.48Z"/><path class="cls-2" d="M305.34,50.38l0-.06S305.3,50.37,305.34,50.38Z"/><path class="cls-2" d="M306.69,53c-.31-.29-.86-.94-.59-.15C306.37,53,306.22,52.58,306.69,53Z"/><path class="cls-2" d="M305.32,50.81a6.77,6.77,0,0,1,.36.65c0-.05,0-.21.19-.07C305.69,51.2,305.52,51,305.32,50.81Z"/><polygon class="cls-2" points="305.05 50.55 305.32 50.8 305.18 50.58 305.05 50.55"/><path class="cls-2" d="M303.18,47.51a4.74,4.74,0,0,1-.81-.71c.26.34.54.68.82,1C303.28,47.79,303.49,47.85,303.18,47.51Z"/><path class="cls-2" d="M304.15,48.76l0,0S304.13,48.79,304.15,48.76Z"/><polygon class="cls-2" points="299.55 44.1 299.57 44.17 299.61 44.16 299.55 44.1"/><path class="cls-2" d="M303.2,47.87a1.35,1.35,0,0,0,.53.46,6.87,6.87,0,0,1-.54-.54S303.13,47.8,303.2,47.87Z"/><path class="cls-2" d="M301.63,45.71c.1.14.21.3.31.47C301.89,46,301.72,45.7,301.63,45.71Z"/><path class="cls-2" d="M304.08,48.59l0,0C304.09,48.51,304.08,48.53,304.08,48.59Z"/><path class="cls-2" d="M304.08,48.59a1.85,1.85,0,0,0-.35-.26c.13.14.25.27.37.38A.6.6,0,0,1,304.08,48.59Z"/><path class="cls-2" d="M297.77,44.47c.15-.11,1,.18,1.32.84.61.35.71-.44.48-1.14-.07.06-.11.1-.77-.24.17.21,1.06,1.23.5,1-.77-.56-.57-.54-.86-.92.16.43-1.19-.43-1.23,0l.73.39C297.92,44.4,297.62,44.29,297.77,44.47Z"/><path class="cls-2" d="M300.59,45.13l.24.18a4.12,4.12,0,0,1-.59-.9c-.44-.27-.57-.28-.63-.25l1.08,1Z"/><path class="cls-2" d="M301.82,46.24c-.3,0-.91-.43-.74,0,.63.6.55.32,1,.63-1-1,.37.22-.24-.62a5.82,5.82,0,0,1,.56.53c-.15-.21-.3-.42-.43-.62l0,0h0c0,.07,0,.09,0,0l0,0h-.1c-.25-.34,0-.09.1,0h0c-.35-.33-.76-.6-1.13-.9C301,45.55,301.34,45.78,301.82,46.24Z"/><path class="cls-2" d="M305.31,52.46c0-.05,0-.05,0-.06S305.23,52.31,305.31,52.46Z"/><path class="cls-2" d="M305.13,51.9a1,1,0,0,1,.34.39c.1.28-.08.06-.14.11.15.13.5.51.26-.08l-.08-.07a3,3,0,0,1-.3-1.22A1.88,1.88,0,0,0,305.13,51.9Z"/><path class="cls-2" d="M303.57,49a9.41,9.41,0,0,0-.84-.83l.26.56.06-.09C303.44,49.19,303.45,49,303.57,49Z"/><path class="cls-2" d="M299.52,43.93l.26-.07c-.23-.08-.5-.12-.75-.18Z"/><polygon class="cls-2" points="298.26 43.02 298.42 42.89 298.02 42.74 298.26 43.02"/><path class="cls-2" d="M253.78,83.62l.22.25A2.21,2.21,0,0,0,253.78,83.62Z"/><path class="cls-2" d="M252.68,81.55h-.11C252.66,81.61,252.72,81.64,252.68,81.55Z"/><path class="cls-2" d="M262.36,41.46c-.53.11-1.19.17-1,.33l.25.1A2.89,2.89,0,0,1,262.36,41.46Z"/><path class="cls-2" d="M249.1,62.57l.09-.13q-.06-.19-.12-.36A4.42,4.42,0,0,0,249.1,62.57Z"/><path class="cls-2" d="M249.93,63.08l-.23.6A3.3,3.3,0,0,0,249.93,63.08Z"/><path class="cls-2" d="M262.6,92.74a2,2,0,0,0,.43,0C262.55,92.45,262.7,92.68,262.6,92.74Z"/><path class="cls-2" d="M283.69,37.07a6.32,6.32,0,0,0-1.08-.29C283.13,37,283.52,37.23,283.69,37.07Z"/><path class="cls-2" d="M251.29,83.94c.14.17.23.22.27.19C251.41,84,251.31,83.88,251.29,83.94Z"/><path class="cls-2" d="M281.34,36.69l.23.07a4.59,4.59,0,0,1,1,0A2,2,0,0,0,281.34,36.69Z"/><path class="cls-2" d="M303.58,85.08l.07-.08S303.61,85,303.58,85.08Z"/><path class="cls-2" d="M310.49,72.81c0,.15-.05.38-.08.6A2.49,2.49,0,0,0,310.49,72.81Z"/><path class="cls-2" d="M293,39.7c.3.13.05,0,0,0Z"/><path class="cls-2" d="M294,41.15c-.08,0-.14,0-.17,0A.21.21,0,0,1,294,41.15Z"/><path class="cls-2" d="M278.1,38h0C278.16,38,278.15,38,278.1,38Z"/><path class="cls-2" d="M293.36,40a3.53,3.53,0,0,0-.35-.24A4.19,4.19,0,0,0,293.36,40Z"/><path class="cls-2" d="M293.35,39.88l.25.15S293.63,40,293.35,39.88Z"/><path class="cls-2" d="M292.54,39.51a5.19,5.19,0,0,1,.47.25c-.05,0-.07-.06-.05-.06Z"/><path class="cls-2" d="M283.09,98.35h.07C283.46,98.23,283.32,98.26,283.09,98.35Z"/><polygon class="cls-2" points="257.41 48.43 257.43 48.4 257.39 48.42 257.41 48.43"/><path class="cls-2" d="M256.79,49.35a1.4,1.4,0,0,1,.6-.93l-.71-.15Z"/><path class="cls-2" d="M257.14,88.11l-.37-.69c.87.47,1.22,1,1,.32-.27.18-.83-.32-1.28-.9s-.91-1.16-1.22-1l-.18-.48c.08.12.13.11.2.23-.32-1-.83-.31-1.42-1.46-.19-.4-.26-.72,0-.5l-.66-.76c-.13-.26,0-.25.14,0-.27-.42-.47-.88-.72-1.32h0a8,8,0,0,1-.72-.71c-.08-.39.15.15.18,0-.17-.23-.35-.45-.51-.69,0-.2.14-.15.26,0a2.83,2.83,0,0,1,.44.69.72.72,0,0,0-.17-.85,2.6,2.6,0,0,1-.51-1.42l.34.7c.19-.61-.15-1.13-.22-2,0,.22,0,1.84-.43,1.06a2.34,2.34,0,0,0-.43-1c.23-.08.06-.52-.1-1.09l.32,0c-.25-.59-.4-.5-.63-.83-.15-.71.05-.9.24-1.11-.12-1.13-.27.86-.53-.47a12.88,12.88,0,0,0-.56-2.73c.07-.68.2.1.28-.14l-.29-.58c0-.15.08-.1.12-.08-.12-.5-.32,0-.45-.82-.17-.1-.09-.52.05-1a2.83,2.83,0,0,0,.12-1.6c.1-.23.19.13.31.07l-.33-2.31.35-.9c-.34.65-.49-.27-.6-1.11-.15.23-.28.42-.35.56a7.91,7.91,0,0,1,.08-1.29c.09-.14.16,0,.24.24,0-.09,0-.18,0-.25.23-.41.35-.14.45.21l-.31.4c.14.35.31.68.5.65a1.72,1.72,0,0,1,0-.42c0,.09.08.15.12.12s0-.18,0-.4l.42-.19-.12-.1.62-1.51c0-.3,0-.6-.07-.91s0-.61,0-.94a8.61,8.61,0,0,1,.41-2.31c0,.53.35.26.62.41-.5.34-.37,1.39-.76,2.25.2-.45.3-.3.31-.17l.3-1.69c.22.13.3-.27.6-.62-.61.1.24-1.28.41-2,.17,0,.25.27-.15,1,.74-.65,0-1.38.74-2-.1.18-.18.26-.15.37.12-.49.84-1.44.82-1.13l-.1.18c.19-.28.42-.65.65-1l.78-1.15c.5-.75.84-1.44.76-1.65a2.31,2.31,0,0,1,.3.59c.15-.92.37-1.84.59-2.8.12.41,1.3.4.69,1.38a5,5,0,0,0,1-1c-.21.11-.78,0-.58-.23a9,9,0,0,0,1.58-.67c-.3.16-.41-.51,0-.86,0,.12.4.4.3.57a9.48,9.48,0,0,1,.65-1.27c-.21.27.25.4.58.35-.18,0,.91-.66,1.15-.92l-.52.23c1.22-.83.75-1.49,2.05-2.27-.09.2,0,.85.67.52a7,7,0,0,1,.51-1.25,4.73,4.73,0,0,1,1.31-1.5l.3,0a7.22,7.22,0,0,1,.89-.59c-.47.62-1.67,2.27-2.34,3,.55-.13.23.11,1-.26.33,0-.3.4-.51.51l1.75-.73c-.11-.14.18-.37.48-.6s.64-.39.55-.51a18.42,18.42,0,0,0-1.76,1.16c-.22-.23.66-1.46,2-1.84.38,0,0,.65,0,.75a3.44,3.44,0,0,1,1.28-.62l-.48.37c.74-.15,1-.87,2-.77.32,0,1,.19,1,0-.58-.24-1-1.36-.71-1.73a8.37,8.37,0,0,1,2.17.1c.58.22-.66.82-.16,1,0-.09.26-.25.38-.3.34,0-.09.3.62.15.06-.36,1.45-.19.29-.34a6.36,6.36,0,0,1,1.58-.14c-.29-.21.69-.79,1.43-.92,0,.09.13.19.21.24h1c.3,0,.59.07.86.1.56.07,1.09.14,1.78.17.12.09.77.23.48.36a2,2,0,0,1,.81-.07c.76.42-.94-.09-.37.35.08-.19,1.11-.1,1.72-.14-.13-.33-1.37-.26-2-.23,0-.42,1.14-.7,2.64-.67,1.18.11.44.37.65.35a4.67,4.67,0,0,0,2,.2,2.27,2.27,0,0,1,1.68.39c.59.5-.15.52-.06.75a4.39,4.39,0,0,1-1.07-.43,4.9,4.9,0,0,0-.87-.34l.73.32a3.31,3.31,0,0,1-1.26-.24c.53.32,3.51,1.07,4.91,2,.3,0,.81.18.63,0l-.49-.19c-.35-.41,1,.16.47-.23.35.09.74.17,1.15.3a4.29,4.29,0,0,1,.62.23,5.31,5.31,0,0,1,.61.4v.37c0-.09-.47-.51-.77-.57.44.1,1.12,1.16,1.72,1.06l-.5-.55a5.94,5.94,0,0,1,2.35,1.06c-.17-.49-.19-.1-.52-.77.24.66-2-1.24-1.47-.38-.37-.68-.87-.78-1.5-1.47,0,.1.19.31-.48-.07h-.2l0,0,0,0s0,0,0,0a1,1,0,0,1,.28.31,12.17,12.17,0,0,1-2-.56c-.38-.24.22,0,0-.23a3.2,3.2,0,0,0-.63-.07c0-.23-1-.77.06-.52l-.91-.34a4.77,4.77,0,0,0-1.71-.7c-.44-.17-1.19,0-.76-.12l-1.51-.25V37.5a12.15,12.15,0,0,0-2.3-.3,14.6,14.6,0,0,1-2.44-.44,8.74,8.74,0,0,1-1.88,0l-.16-.2a8.94,8.94,0,0,0-2.23.08,3.22,3.22,0,0,0-2-.1c-.84.15-1.72.37-2.3.41v.26a13.27,13.27,0,0,0-2.4.75l.11.2c-.76.33-2.08.49-3.33,1,.05-.11.38-.21.62-.24a3.87,3.87,0,0,0-1.2.27,8.32,8.32,0,0,0-1.07.63,8.06,8.06,0,0,1-2.06,1.09,1.78,1.78,0,0,1-.75.45.22.22,0,0,0,.07-.06l-.12.08-.49.15a3.16,3.16,0,0,0,.42-.11,9.14,9.14,0,0,0-.9.65l-.28-.11-.07,0c-.4.14-.22.26.07.3a1.91,1.91,0,0,0-.36.43c-.49-.12-.78.74-1.38.68a4.53,4.53,0,0,1-.8.85c-.34.39-.64.8-.58,1-.05,0-.15,0,0-.12a3.13,3.13,0,0,0-.95.89l-.36-.09a7.31,7.31,0,0,0-.4,1c-.54.31-.79.42-.56-.18-.7,1.31-.7,1-1.23,2.1l-.11-.17c-.26.35-.47,1.07-.75,1.18-1,.51-2.77,4-4.06,6.14.37-.11.17.13,0,.43s-.45.69-.25.82c-.18.09-.38.4-.35,0-.3,1.26-.92,1.75-.75,2.74-.17.1-.12-.33-.23-.22s0,.43-.1.54-.07-.21-.07-.43c-.32,1.3.06,1.53.43,1.71a2.5,2.5,0,0,0-.32.75,1.81,1.81,0,0,0,.12.7c-.16.2-.36.56-.28-.25-.08.44-.63,2.74-.29,2.82a1.78,1.78,0,0,0,0,.76c-.07,1-.11,1.11-.12,2.12l.06-.28c.35.4.08.83.17,1.63l0,0c-.16,1.87.11.79,0,2.64l.22-.13c.54.1-.06,1.64.3,2.66l.08-.4c.24.53-.31,1.72-.23,2.33,0,.13-.12-.18-.2-.35.1,1.59.35.11.71,1.21-.1.25-.5-.14-.3.62,0,.41,1.26,2,1.4,3,0-.26,0-.52.36-.08.4.7.48,2.23,1.23,2.67,0,.1,0,.15,0,.17A11.32,11.32,0,0,0,253.14,86c-.34,1,2.59,2.86,2.06,3.27l1.32,1.39-.09,0a3.54,3.54,0,0,0,1.73,1.21c.18.23,0,.14-.07.15a5.62,5.62,0,0,0,2.85,2l0,.29c.2.07.65.55,1.32,1a8.05,8.05,0,0,0,2.32,1.34s-.08.05-.22,0a21.55,21.55,0,0,1,2.87,1.46c.93.45,1.76.77,2.24.46a11.41,11.41,0,0,0,1.31.15c-1.6-.49.35-.32-.27-.63.63.11,1.55.68.77.52l-.11-.07c-.41.37,2,.7,1.86,1a36.28,36.28,0,0,0,9.63.66c-.13-.1-.26-.2-.39-.32.35,0,.71-.08,1.07-.13s.41.23-.36.33a1.68,1.68,0,0,0,1.27-.45c1.53-.08-.51.51-.05.45l.62-.12-.15,0a4.26,4.26,0,0,1,1.41-.57c.58-.07.34.15.57.1,0,0,.09,0,.35-.08l1.34-.31-.61-.14c.55-.28,1.24-.32.54-.46a7.8,7.8,0,0,0,2.88-.72c1.13-.47,2.15-1.06,2.45-1.1a16.73,16.73,0,0,1,2.26-1.51c-.25.08-.55-.12.22-.54,0,.35.45.23.91,0a4,4,0,0,1,1.45-.69c-.36.07.14-.33.59-.71s.79-.82.27-.64c.59-.46.2.16.72-.1,1.16-1.36,3-2.59,4.25-4.41-.05-.08-.37.13-.19-.33l1-.67c.22-.39-.14-.58.52-1.1-.12.06-.3.14-.18-.12A20.32,20.32,0,0,0,308.49,80c.35-1,.77-2.06,1-3.13l1-3.16c-.26.56-.22.17-.16-.28-.08.28-.21,0-.34,0,.2-.59.42-1.17.59-1.77-.31-.36.08-2-.23-2.16l0,.57c-.34-.77-.89,1-1.36.86a1.24,1.24,0,0,1,.06.72,7.45,7.45,0,0,1-.29.82,3,3,0,0,0-.24,1.94c-.14.28-.11-.28-.25-.14.17.37.09.78-.19,1.5l0-.1a19,19,0,0,1-2,5l.3-.07a3.31,3.31,0,0,1-.53.71c.07.69.65-1.29.78-.64a5.1,5.1,0,0,0-1.16,1.81c-.4.78-.91,1.48-1.25,1.54-.41.67.36-.06-.06.62l-.23.1.06.27c-.29.43-.64.51-.74.46a2.85,2.85,0,0,0,.26-.41,11.22,11.22,0,0,0-1.26,1.68l.52-.55c-1.11,1.87-3.13,3.57-4.49,5.16l.19,0c-1.09,1.19-1.09.69-2.42,1.83l0-.06a3,3,0,0,1-1,.84c.31-.34-.84.22-.43-.21-1.36,1.08-.62.62-1.43,1.53l-.32,0a2.54,2.54,0,0,1-1.05.84c.59-.46-.62,0,0-.55a5,5,0,0,0-1.14.42c-.32.15-.6.28-.85.42a1.81,1.81,0,0,1-1.37.33c-.63.78,1.59-.28,1.18,0,.44,0-.53.6-1.1.75s-1.16-.34-2.57,0c.14,0,.14-.08.28-.11-.56,0-1,.49-1.71.35-.31.37-.86.12-.91.52l1.33-.29a6.76,6.76,0,0,1-2.69.76,2.78,2.78,0,0,1,.7-.36c-.38-.07-.7.21-1.09.1.07-.36,1.62-.32,2.38-.73-.41-.11-1.48.52-1.14,0a1.3,1.3,0,0,1-1,.38,2.84,2.84,0,0,0-1.37.2l.06-.24a3.51,3.51,0,0,1-.77.18l.51-.33c-.79.29-1.54-.12-2.3,0,1.6.06.36.32,1,.48-2,.26-1.13-.65-3.33-.66.3,0,1.11.21.63.3a3.14,3.14,0,0,1-1.2-.4c-1.45-.17.19.28-.45.33-.45-.36-.73,0-1.39,0l0-.24c-1.62-.47-.54.41-2-.13l.71-.16-.79-.12.23-.22a3.71,3.71,0,0,1-1.9-.46c.13.23-.24.38-.95.12-.43-.31.34-.11-.66-.44a.85.85,0,0,1,.94.21c.07,0,.27-.06.34-.11a5.9,5.9,0,0,0-1.62-.64,1.49,1.49,0,0,1,.36.2,11.16,11.16,0,0,1-1.53-.29c-.18-.19,0-.17.22-.16-.29-.11-.53-.1-.95-.28.19-.12.26-.32.87-.13l-1.39-.43c-.06-.11-.56-.53-.35-.51-.61-.52-1.88-.67-2.68-1.39a.87.87,0,0,1-.37-.15c-.39-.32-.73-.66-1.1-1-.19-.16-.39-.31-.6-.46a5.37,5.37,0,0,0-.7-.48l-.26-.71c-.74-.56.38.94-.86,0-.89-.66-.1-.48-.3-.82a4.25,4.25,0,0,1-1.86-1.68A7.72,7.72,0,0,1,257.14,88.11Zm-5.91-9.75c.12.19.42.55.35.76C251.23,79,251.29,78.74,251.23,78.36ZM250,61a1,1,0,0,1-.23.7A2.72,2.72,0,0,1,250,61ZM289.54,38.5h0C289,38.23,289.21,38.33,289.54,38.5Zm1,.48c.11,0,.12,0,.09-.07a1.21,1.21,0,0,1-.59-.17C290.1,38.83,290.22,38.92,290.55,39Zm-3.82,60.33h-.22C287,99.12,286.84,99.21,286.73,99.31Z"/><path class="cls-2" d="M249.84,63a.26.26,0,0,1-.15.07C249.72,63.18,249.77,63.19,249.84,63Z"/><path class="cls-2" d="M262.52,92.74l0,0,.05,0Z"/><path class="cls-2" d="M274,39.36a1.22,1.22,0,0,1-.43-.06C273.59,39.36,273.69,39.39,274,39.36Z"/><path class="cls-2" d="M296,41.24l-.65-.32a1.85,1.85,0,0,1,.51.41C295.9,41.27,295.82,41.13,296,41.24Z"/><path class="cls-2" d="M300,46.11c.1,0,.16.14.26.18l0-.1C300,45.91,299.67,45.78,300,46.11Z"/><path class="cls-2" d="M296.15,42.26c-.07.21.37.34.77.62l-.07-.05C297.13,42.68,296.66,42.44,296.15,42.26Z"/><path class="cls-2" d="M297,43a3.47,3.47,0,0,1,.37.26C297.49,43.15,297.25,43.08,297,43Z"/><path class="cls-2" d="M291.91,39.38c.19.15.24-.17.33,0C292.58,39.21,290.68,39,291.91,39.38Z"/><polygon class="cls-2" points="296.12 43.03 296.11 42.73 295.77 42.76 296.12 43.03"/><path class="cls-2" d="M292.91,41l.66.4c0-.05.11,0,.23,0C293.37,41.18,292.92,40.91,292.91,41Z"/><path class="cls-2" d="M293.8,41.39a2.85,2.85,0,0,0,.55.28A3.48,3.48,0,0,0,293.8,41.39Z"/><polygon class="cls-2" points="295.18 42.54 295.02 42.38 294.56 42.09 295.18 42.54"/><path class="cls-2" d="M285.08,38.25l-.85-.06c-.1.08.12.16.44.18S285.19,38.35,285.08,38.25Z"/><path class="cls-2" d="M287.37,39.52c-.2-.11-.2-.17-.3-.28l-.1.3Z"/><path class="cls-2" d="M285,39c-.1.07-1.22.06-.19.2C284.93,39.13,285.75,39.22,285,39Z"/><polygon class="cls-2" points="272.6 38.76 272.81 38.7 272.67 38.21 272.6 38.76"/><path class="cls-2" d="M263.1,44.05c.88-.39,0-.39.85-.7.13-.22-.67.26-.53,0C263,43.81,262.69,43.9,263.1,44.05Z"/><path class="cls-2" d="M263.42,43.4l.21-.22A1.7,1.7,0,0,0,263.42,43.4Z"/><polygon class="cls-2" points="310.98 70.43 311.12 69.77 310.93 70.19 310.98 70.43"/><path class="cls-2" d="M310.67,69.15,311,69l-.27-.4A1.23,1.23,0,0,1,310.67,69.15Z"/><path class="cls-2" d="M251.34,76.55l-.09,0c-.06.11,0,.25,0,.53Z"/><polygon class="cls-2" points="254.45 84.11 254.38 83.99 254.28 84.37 254.45 84.11"/><path class="cls-2" d="M259,89.22a6.16,6.16,0,0,1-.65-.6C258.82,89,258.85,89.53,259,89.22Z"/><path class="cls-3" d="M270.8,62.26v2.13a27,27,0,0,0-3.36.11L267.33,63s.33-.55.56-.55a1.43,1.43,0,0,0,.56-.12,6.13,6.13,0,0,0,.89-.11Zm11.1-10.2-4.37.11V50l8.85-.22s.56.34.56.56a1.51,1.51,0,0,0,.11.56,5.65,5.65,0,0,0,.12.9c0,.78.11,6.16.11,10.31,3.7.11,8.07.11,9.19.11.9,0,.9,1.12.9,1.68v.56l-.12,7.06-.33.45a8.17,8.17,0,0,0-1.8-.11V68.43c0-1.35,0-3.93-3.13-3.93-.9,0-3.93.11-6.95,0,0-2.91-.12-4.26-.12-6.39V55.87a6.3,6.3,0,0,1-.11-1,.11.11,0,0,0-.11-.11c0-1.34-1.68-2.35-1.68-2.35Zm3,32.28c0-1.68.12-4,.12-5.71h.56c.56,0,1.23-.12,1.68-.12,0,2.25-.11,4.26-.11,4.94,0,.89-1.12.89-1.69.89Z"/><path class="cls-2" d="M284.94,84.36l0,0Z"/><path class="cls-2" d="M285.32,84.51v0l.05,0Z"/><path class="cls-2" d="M285.68,84.65c0-.15-.13,0-.19-.09v0l0,.08C285.52,84.63,285.63,84.59,285.68,84.65Z"/><path class="cls-2" d="M285.91,85.1c0-.07,0,0-.06,0v0Z"/><path class="cls-2" d="M285.86,85.08s0,.07,0,0Z"/><path class="cls-2" d="M286.07,85.14l-.06,0s.08.1.06.12S286.12,85.24,286.07,85.14Z"/><path class="cls-2" d="M286.12,85l0,0S286.11,85.07,286.12,85Z"/><path class="cls-2" d="M286,85.07l.06,0s0-.11,0,0C286.06,85,286.05,85,286,85.07Z"/><path class="cls-2" d="M286,85s-.08-.09,0-.14C285.85,84.87,285.87,85,286,85Z"/><path class="cls-2" d="M285.7,84.5l0,0,0,0S285.7,84.55,285.7,84.5Z"/><path class="cls-2" d="M286.53,85.44c0-.06-.06-.16-.07-.23l0,.05A.41.41,0,0,1,286.53,85.44Z"/><path class="cls-2" d="M286.46,85.21l.06-.07C286.45,85.11,286.44,85.15,286.46,85.21Z"/><path class="cls-2" d="M286.11,84.78a1.47,1.47,0,0,1-.1.13,1.36,1.36,0,0,0,.12-.12Z"/><polygon class="cls-2" points="286.9 85.52 286.88 85.65 286.93 85.46 286.9 85.52"/><path class="cls-2" d="M287.18,85.51c0,.12.16.2.13.28s.13-.14.15-.25C287.42,85.61,287.31,85.61,287.18,85.51Z"/><path class="cls-2" d="M287.51,85.39a.86.86,0,0,0-.05.15A.21.21,0,0,0,287.51,85.39Z"/><path class="cls-2" d="M286.67,85.19a.43.43,0,0,0,.12.18l-.08-.17Z"/><path class="cls-2" d="M286.7,85.19h.09Z"/><path class="cls-2" d="M286.66,85.19h0S286.66,85.17,286.66,85.19Z"/><path class="cls-2" d="M286.3,85a.24.24,0,0,0,0-.29C286.28,84.76,286.34,84.84,286.3,85Z"/><path class="cls-2" d="M286.57,85l-.09,0s0,.1,0,.14Z"/><polygon class="cls-2" points="286.6 84.93 286.57 84.98 286.61 85 286.6 84.93"/><path class="cls-2" d="M287.2,85.26c0-.09.06-.11.12-.13a.63.63,0,0,0-.23,0C287.11,85.17,287.12,85.27,287.2,85.26Z"/><path class="cls-2" d="M286.94,85.22h0S286.92,85.19,286.94,85.22Z"/><polygon class="cls-2" points="287.92 84.7 287.88 84.69 287.91 84.72 287.92 84.7"/><path class="cls-2" d="M287.07,85.08c-.06,0-.07,0-.07.07a.19.19,0,0,1,.09,0S287.08,85.07,287.07,85.08Z"/><path class="cls-2" d="M287.67,85.23l-.17-.06C287.57,85.22,287.69,85.28,287.67,85.23Z"/><path class="cls-2" d="M287,85.26h0S287,85.29,287,85.26Z"/><path class="cls-2" d="M287,85.26s0-.07,0-.11l-.06.06Z"/><path class="cls-2" d="M286.9,83.77c.17.1.27.28.07.19a2.39,2.39,0,0,0,.91.73.41.41,0,0,1-.14-.29c-.12,0-.35,0-.43-.15s.12,0,.24,0c-.22-.1-.22-.33-.57-.46a.83.83,0,0,1,.08.12A.91.91,0,0,0,286.9,83.77Z"/><path class="cls-2" d="M287.69,84.89l0,.06a1,1,0,0,1,.34,0,.33.33,0,0,0-.09-.27,1.37,1.37,0,0,1-.22.2Z"/><path class="cls-2" d="M287.44,85.06c-.07-.19,0-.32-.23-.48-.1.06,0,.19,0,.29.19-.12,0,.13.22.17,0,0-.07.07-.1.09l.18,0h0s0,0,0,0h0l0-.07c.1,0,0,0,0,.07l0,0h0a.87.87,0,0,0,.17-.21A.64.64,0,0,0,287.44,85.06Z"/><path class="cls-2" d="M286.3,84.34s0,0,0,0S286.32,84.34,286.3,84.34Z"/><path class="cls-2" d="M286.37,84.43s0,.08,0,.07,0-.07,0-.12,0,.11,0,.18v0a1.27,1.27,0,0,1,.17.27C286.47,84.67,286.43,84.56,286.37,84.43Z"/><path class="cls-2" d="M286.78,84.72l.09-.11-.13-.14,0,.09C286.7,84.54,286.76,84.65,286.78,84.72Z"/><path class="cls-2" d="M288,84.75l.16.17c-.05-.11-.11-.22-.17-.33Z"/><polygon class="cls-2" points="288.19 84.44 288.35 84.55 288.29 84.41 288.19 84.44"/><path class="cls-2" d="M286.1,79.79v0Z"/><path class="cls-2" d="M286.18,79.8l0-.09C286.17,79.76,286.17,79.8,286.18,79.8Z"/><path class="cls-2" d="M288.47,80.88c.19,0,.47-.09.25-.08h-.22S288.52,80.86,288.47,80.88Z"/><path class="cls-2" d="M287.22,78.85h-.07l.21,0Z"/><path class="cls-2" d="M286.32,78.82l.15-.06Z"/><path class="cls-2" d="M286,80.11l.15.18S286,80.2,286,80.11Z"/><path class="cls-2" d="M288.37,82.61c.09,0,.12-.06.14-.09S288.19,82.6,288.37,82.61Z"/><path class="cls-2" d="M285.63,77.51a.19.19,0,0,0,0,.13A.15.15,0,0,0,285.63,77.51Z"/><path class="cls-2" d="M288.51,82.42l-.05,0s.06,0,.05.08S288.66,82.46,288.51,82.42Z"/><path class="cls-2" d="M285.92,82.87h0Z"/><path class="cls-2" d="M284.74,84l0-.05A.09.09,0,0,0,284.74,84Z"/><path class="cls-2" d="M288.53,83.36s0,0,0,0Z"/><path class="cls-2" d="M287.67,83.51l-.11,0Z"/><path class="cls-2" d="M287.16,82.17Z"/><path class="cls-2" d="M288.43,83.4l.07,0Z"/><path class="cls-2" d="M288.53,83.39l0,0S288.57,83.42,288.53,83.39Z"/><path class="cls-2" d="M288.52,83.33s0,0,0,0h0S288.52,83.34,288.52,83.33Z"/><path class="cls-2" d="M285.65,80.77h0C285.72,80.8,285.71,80.79,285.65,80.77Z"/><polygon class="cls-2" points="286.23 80.21 286.24 80.21 286.25 80.21 286.23 80.21"/><path class="cls-2" d="M286.07,80.12c.27,0,.24.06.18.09l.63,0Z"/><path class="cls-2" d="M286,79.86l.11.19a5.18,5.18,0,0,0,.23.47c-.33-.66,0-.06-.28-.73l.07.14s0,0,0,0c.13.32-.15-.48-.06-.38a.63.63,0,0,1,.08.22v-.16s0,.12,0,.11l0,0v0a2,2,0,0,1,0-.35c0,.1,0,.08,0,.16l0-.17c0,.18,0,.35,0,.33.1.67,0-.17.18.21l-.06.09c.08.38.12.23.22.47,0-.13-.21-.59-.14-.77,0,0,.05.07.08-.07,0,.24.06.18.11.16l0,.32a1.59,1.59,0,0,0,0-.4c.07,0,.1.27.13.47.1,0-.1-.39,0-.46.09.12.12,0,.2-.21.05.1,0,.19,0,.28l0-.26a1.23,1.23,0,0,1,0,.13c0-.1,0-.32,0-.41,0-.36.14.51.18.11,0,.09,0,.19,0,.32,0,0,0,0,0-.06l-1.09-1.09a1.64,1.64,0,0,0,.49.18l-.21.07a1.6,1.6,0,0,1,.75.09l.27,0,.17.1a1.18,1.18,0,0,1-.3,0l.08,0a1.12,1.12,0,0,1-.48,0l.19,0a3.92,3.92,0,0,0-.59,0s.07,0,.08,0h-.13l.12,0-.36,0h.15l-.23.13a3.17,3.17,0,0,1,1,.34,4.49,4.49,0,0,0-.74,0c.33,0-.14-.12-.07-.2s-.18,0-.23,0l.29.14c-.25,0-.19,0-.29.07.5,0,.33.1.48.16-.17,0-.34,0-.3-.08-.38.08.59.1.27.18,0,0,0,0-.07,0,.15,0,0,.14-.11.12v0c-.06.12,0,.35.42.37l-.6,0,1.42.21a8.1,8.1,0,0,1-1.44-.05c-.05,0-.11.06,0,.12a2.67,2.67,0,0,1,.56,0,4.91,4.91,0,0,0-.57.13,2,2,0,0,1,.63,0c-.08,0-.56,0-.62,0l.56.11a2.35,2.35,0,0,0-.64,0c.11,0,0,.09,0,.12l.14,0c-.09.13.78.13.75.25a2.52,2.52,0,0,0-.78,0,9.93,9.93,0,0,1,1.6.24l-.17,0,.19.08c-.43-.05-1.34-.19-1.7-.27-.13,0-.19,0-.18.08a.26.26,0,0,1-.24-.06l-.1.16c.33,0,.33.12.61.12l-.34-.18c.33,0,.95.1.89.22a5.45,5.45,0,0,1-.71,0c.11,0,.22.11.13.12l-.17,0c-.13.06.44.1.12.18,0,0-.44.08-.24.08a16.7,16.7,0,0,1,1.86,0,4,4,0,0,1-.56.17c-.3,0-.72-.07-1,0a1.2,1.2,0,0,1,.25,0c-.08,0-.29,0-.25.05.34,0,0,.12.29,0,.09.06-.07.06-.06.13a2.45,2.45,0,0,1,.84.12l-.25,0c0,.12-.19.18-.19.3a1,1,0,0,1-.33,0c.06,0,.17,0,.18.06-.3.07,0-.07-.4,0a.78.78,0,0,1,.39.14c.31,0,.07-.12-.06-.17a2.35,2.35,0,0,1,1.06.21c.1.09-.28,0-.22,0-.07.18.74.15.43.3a4.54,4.54,0,0,1-.73,0c-.1-.07.17-.12.16-.17l-.12.07c-.09,0-.16-.08-.08-.11-.24.05-.05.3-.28.43a.56.56,0,0,0,.29,0l0,0c.22,0,.3.08.4,0s.4.12.26.28h-.31c.09,0,.19-.06.1-.1.13.08-.42.12-.05.24l.23,0c.14.11.42.38.24.52.32,0,0,0,.37,0-.44,0,.14-.48-.36-.39.42,0,.2-.16.55-.32-.1,0-.19,0-.14,0l-.09,0h0a.33.33,0,0,1-.15,0c-.23,0-.22-.12-.34-.15.05,0,.11,0,.22,0l-.18,0c.23,0,.38-.09.51,0v-.07c.13,0,.18-.11.09-.15s-.25-.09-.08,0l-.13-.12h.05c0-.12-.36-.24,0-.38-.06,0-.13-.08-.06-.14l.19,0c-.07,0,.2-.15,0-.17.52,0,.12-.24.21-.33h-.25c0-.06-.06-.12-.16-.19h-.22c-.18-.06.16-.17.14-.27s.06,0,0,0c.51-.12-.36-.26,0-.37-.08,0-.05,0,0-.07a0,0,0,0,0,0,0h0l.12,0-.12,0s0,0-.09-.09h.24c.09,0-.12,0-.3,0a.46.46,0,0,0-.14,0c.39,0-.13-.08.28-.12-.2,0-.14-.16-.57-.17h.09c.05,0,.09-.07,0-.1l.3,0-.41-.07a.94.94,0,0,1,.53,0c-.36-.12-.13-.1-.49-.19h.2s-.27-.09-.11-.11c.38-.08.06-.38.42-.58-.59,0,.26-.09-.19-.1a1,1,0,0,1,.34,0c-.14-.1.22-.15-.16-.22.14,0,.2,0,.28,0s-.12,0,0,0a.45.45,0,0,1,.18,0c0-.1-.45-.11-.84-.12.19,0,.16-.08-.1-.12.13,0,.27,0,.31,0s.2-.22-.12-.22c.08,0,0-.06,0-.06a0,0,0,0,1,0,0l.51-.39-1.17-.26c-.08,0-.1,0-.18,0l0,.05c0,.39-.07.09-.14.14v0c-.17-.26-.05.14-.23-.16l0,.23c0,.52-.16-.29-.23-.08l0,.13c0,.18-.19-.69-.24-.75s0-.07,0-.1c-.15-.3,0,.31-.07.39,0-.17,0-.43-.08-.46s-.09.57-.25.25a.57.57,0,0,1,0,.36c-.07,0-.34-.48-.35-.07a.42.42,0,0,1,0-.1c-.05.11-.19.18-.15.4-.17-.41-.26-.31-.31-.2s-.08.22-.27-.16l-.2,0,0-.08c-.18,0-.12.14,0,.32a.38.38,0,0,1-.11-.16c-.15,0-.14.09.11.58l-.18-.21c.1.16-.37-.06-.18.37a.52.52,0,0,1-.08-.11c.22.4-.77.06.07.73l.19.26c.09-.12.38.26.54.28s-.28,0-.32-.1h0c-.46-.3-.16.14-.48,0a1.68,1.68,0,0,1-.13.62,2.86,2.86,0,0,1-.1.31.59.59,0,0,0-.05.19l.36,0,0,.08c-.08,0-.28,0-.27,0-.21,0,.17.1.25.11-.15.11-.42,0-.43,0l0,0h.05c.15,0,.3,0,.28.12s-.22,0-.24,0,0,0,0,0l0,.11.29,0c.14,0,0,.1.31.05-.51.07-.19.4-.35.44.21.07.21.14.18.22s.39,0,.35,0c-.67,0-.3.12-.78.18.33,0,.05.2.52.12-.06.06-.25,0-.42,0,.22.14-.09.31.08.48a.78.78,0,0,1,.3,0l-.32.09c.05,0,.41,0,.2.1.05,0,.14,0,.17,0s0,.34.12.51a1.11,1.11,0,0,1,.11.52s0,0,.06,0,.05,0,.08,0a.33.33,0,0,0,0,.14c.06,0,.09.16.11.17l0,0c0,.06.05-.09.12-.08s.21-.18.12-.29,0,0,.07,0-.05-.06,0-.13h0c.06-.18.17-.25.36-.45h-.14a.27.27,0,0,1,.13-.07c-.2,0-.07.12-.28.08.31-.06.11-.31.52-.34,0-.07-.21,0-.18,0l.12,0-.14,0a.66.66,0,0,1,.31-.06s0,0,0,0c.17-.06.05-.16.11-.18l-.12.06c0-.18.34-.39,0-.57h-.12c-.22-.13.12-.1,0-.25h0c-.11,0-.16-.07-.15-.11s.25-.07.4,0c-.22-.15-.17-.07-.59-.17l.19,0c-.17,0-.26,0-.3-.11.15.06.28,0,.49,0,.41-.15-.41-.22.19-.29-.51-.07-.29.13-.4.09s-.38-.06-.33-.11.66-.08.65-.2,0,0,0,0-.18-.09,0-.14c-.31,0,0-.08-.37-.09l.09.12c-.11-.07-.57-.13-.34-.23l.24.06c.12,0-.07-.06.05-.09.39,0,.08.13.38.2s-.28-.13.14-.09c-.54-.05.08-.12-.34-.21h.24s-.15,0-.14-.07l.3,0c-.24-.09.19-.08,0-.1.09,0-.25,0-.39,0-.37-.11.54,0,.31-.06.05,0-.06,0-.18,0a.3.3,0,0,1,.16,0c-.11,0-.19,0-.34-.09.22.05-.12,0-.21-.11l.18.07c.05,0-.38-.17-.29-.19l.26.15-.1-.06.2.1c-.19-.09-.12-.09-.08-.08-.11-.07-.29-.2-.29-.25s.15.13.13.06c.1.1.22.19.07.1l.15.12c.11.06,0,0,0,0s0,0,0,0l-.22-.24c.06,0,.11.1.16.14l-.11-.13.33.33-.15-.17a1.84,1.84,0,0,1,.2.19c.08.08-.24-.32-.14-.23l-.07-.1s.19.22,0-.07l.23.34c0-.08-.3-.44-.34-.57s.19.3.26.39c-.1-.17-.24-.53-.06-.24C286,79.88,285.94,79.83,286,79.86Zm.43-.18s0,.21-.06.07S286.34,79.6,286.38,79.68Zm.37-.69c-.08,0,0,0,.06-.06S286.82,79,286.75,79Zm1.59,4.09h0C288.42,83,288.39,83.05,288.34,83.08Zm-.11.09a.33.33,0,0,0,.1,0c-.06,0-.06,0,0,0S288.18,83.14,288.23,83.17ZM284,81h.07C284.15,81.06,284.09,81.05,284,81Z"/><path class="cls-2" d="M286.43,78.82h0Z"/><polygon class="cls-2" points="285.93 80.07 285.93 80.07 285.95 80.11 285.93 80.07"/><path class="cls-2" d="M286.22,81.82l.12,0A.19.19,0,0,0,286.22,81.82Z"/><path class="cls-2" d="M288.59,83.91a.54.54,0,0,0,0-.15c0,.06-.05.08-.09.11S288.6,83.86,288.59,83.91Z"/><path class="cls-2" d="M286.89,84s0,0,0,0l.07.09S287,84,286.89,84Z"/><path class="cls-2" d="M287.78,83.85c-.2,0-.14,0-.13.11v0C287.91,84.07,287.85,84,287.78,83.85Z"/><path class="cls-2" d="M287.65,84a.14.14,0,0,1,0,.07C287.72,84.09,287.66,84,287.65,84Z"/><path class="cls-2" d="M288.37,83.28c-.06,0,.26,0,.17,0C288.8,83.32,288.23,83.18,288.37,83.28Z"/><polygon class="cls-2" points="287.13 83.71 287.37 83.76 287.18 83.68 287.13 83.71"/><path class="cls-2" d="M287.35,83.4l-.07.07.08,0S287.43,83.4,287.35,83.4Z"/><path class="cls-2" d="M287.36,83.49s0,0,0,.06A.09.09,0,0,0,287.36,83.49Z"/><path class="cls-2" d="M287.08,83.61h.05l0,0A.18.18,0,0,1,287.08,83.61Z"/><path class="cls-2" d="M287.42,82.73l-.07-.06c-.09,0-.14,0-.11,0A.32.32,0,0,0,287.42,82.73Z"/><path class="cls-2" d="M286.73,82.94a.75.75,0,0,1,.19,0h-.31Z"/><path class="cls-2" d="M286.66,82.74c-.09,0-.25-.1-.23,0S286.58,82.8,286.66,82.74Z"/><polygon class="cls-2" points="287.07 81.72 287.08 81.73 287.59 81.73 287.07 81.72"/><path class="cls-2" d="M285.88,80.82c-.13.08.31,0,.16.09.12,0,.12-.06.22,0C286.14,80.82,286.21,80.79,285.88,80.82Z"/><path class="cls-2" d="M286.26,80.87l.08,0Z"/><polygon class="cls-2" points="284.82 84.2 284.85 84.25 284.84 84.22 284.82 84.2"/><path class="cls-2" d="M284.9,84.3h0s0,0,0,0S284.92,84.34,284.9,84.3Z"/><path class="cls-2" d="M286.59,80.32v-.08c0-.09,0-.09-.06-.1Z"/><polygon class="cls-2" points="286.17 80.11 286.17 80.11 286.08 79.82 286.17 80.11"/><path class="cls-2" d="M286.26,80.47l0,0C286.27,80.49,286,80.11,286.26,80.47Z"/><path class="cls-2" d="M282,52.1l-.08,0Z"/><polygon class="cls-2" points="283.59 53.05 283.55 53.04 283.77 53.21 283.59 53.05"/><path class="cls-2" d="M284.35,54.48c.15-.18-.15-.55-.27-.82v0l-.15-.06A1.69,1.69,0,0,1,284.35,54.48Z"/><path class="cls-2" d="M284.08,55.38c.07-.07.05.24,0-.26l0,.05Z"/><path class="cls-2" d="M284.09,55.17c0-.22-.07.15,0,0Z"/><path class="cls-2" d="M284.08,56l0-.14,0,.17,0-.13a.46.46,0,0,0-.05.14l0-.18c0,.07-.05.13-.06.08C283.92,56.21,284,56.16,284.08,56Z"/><path class="cls-2" d="M284.21,56.25l0-.13S284.15,56.17,284.21,56.25Z"/><path class="cls-2" d="M284.17,56v0l0-.15,0,.25s.11,0,0-.13c.05,0,0,0,0-.12V56Z"/><path class="cls-2" d="M284.2,55.8c0-.17.06-.38.14-.1C284.3,55.17,284.18,55.25,284.2,55.8Z"/><path class="cls-2" d="M284.52,54.53v-.18l-.08-.13C284.51,54.29,284.47,54.55,284.52,54.53Z"/><path class="cls-2" d="M283.73,57.57c.06,0,.17-.08.24-.1l0-.18C283.88,57.38,283.82,57.56,283.73,57.57Z"/><path class="cls-2" d="M284,57.47l.06.28C284.07,57.5,284,57.46,284,57.47Z"/><path class="cls-2" d="M284.45,56.29l-.12-.42v0c0,.17.07.34.11.51Z"/><polygon class="cls-2" points="283.58 58.64 283.45 58.48 283.64 58.76 283.58 58.64"/><path class="cls-2" d="M283.51,59.34c-.11-.12-.24.16-.3,0a.88.88,0,0,0,.17.5A.7.7,0,0,1,283.51,59.34Z"/><path class="cls-2" d="M283.5,60.12a1.33,1.33,0,0,0-.12-.24A.54.54,0,0,0,283.5,60.12Z"/><path class="cls-2" d="M284,58.22a.35.35,0,0,0-.19.22l.18-.11Z"/><path class="cls-2" d="M284,58.33h0l0,.24Z"/><path class="cls-2" d="M284,58.2v0S284,58.21,284,58.2Z"/><path class="cls-2" d="M284.26,57c.07.16.14.5.29.17C284.45,57.08,284.37,57.27,284.26,57Z"/><path class="cls-2" d="M284.18,58.06l.06-.3s-.11.06-.15,0Z"/><polygon class="cls-2" points="284.22 58.2 284.18 58.06 284.16 58.17 284.22 58.2"/><path class="cls-2" d="M283.75,59.62a.85.85,0,0,1,.07.42,2.3,2.3,0,0,0,.1-.51C283.86,59.51,283.76,59.44,283.75,59.62Z"/><path class="cls-2" d="M283.86,59v0S283.89,59,283.86,59Z"/><polygon class="cls-2" points="283.79 61.59 283.83 61.57 283.79 61.56 283.79 61.59"/><path class="cls-2" d="M284,59.51a.25.25,0,0,0,0-.28,1.51,1.51,0,0,1,0,.3S284,59.55,284,59.51Z"/><path class="cls-2" d="M283.55,60.56a1.64,1.64,0,0,0,.14-.22C283.62,60.4,283.5,60.53,283.55,60.56Z"/><path class="cls-2" d="M283.81,59.06v0C283.76,59.09,283.78,59.08,283.81,59.06Z"/><path class="cls-2" d="M283.81,59.06a.69.69,0,0,0,.1.17.65.65,0,0,0,0-.21S283.83,59.05,283.81,59.06Z"/><path class="cls-2" d="M285.18,62.06a.4.4,0,0,1-.18-.64c-.16-.28-.82-.1-1.17.15.08,0,.17,0,.29.3.11-.1.23-.65.42-.4s-.06.32-.16.5c.25-.16.37.49.73.41L285,62C285,62,285.13,62.16,285.18,62.06Z"/><path class="cls-2" d="M283.82,61l0-.12a1,1,0,0,1-.26.42c.11.2.19.24.26.25V61Z"/><path class="cls-2" d="M283.82,60.36c.2.09.29.38.53.2,0-.35-.17-.25-.25-.46,0,.57-.1-.16-.26.25a1.67,1.67,0,0,1,0-.31,2.71,2.71,0,0,1-.13.3l0,0h0s0,0,0,0h0a.13.13,0,0,1,.08,0c-.06.16-.06,0-.08,0h0a5.58,5.58,0,0,0,.08.57A2.39,2.39,0,0,0,283.82,60.36Z"/><path class="cls-2" d="M284.87,57.5s0,0,0,0S284.87,57.57,284.87,57.5Z"/><path class="cls-2" d="M284.77,57.73a.24.24,0,0,1-.06-.21c.05-.11.07,0,.12,0s-.1-.29-.18,0l0,0c-.06.23-.29.52-.31.48A1.16,1.16,0,0,0,284.77,57.73Z"/><path class="cls-2" d="M284.4,59.06l.07.47.18-.24-.1,0C284.59,59,284.47,59.09,284.4,59.06Z"/><polygon class="cls-2" points="283.68 61.65 283.45 61.59 283.79 61.86 283.68 61.65"/><polygon class="cls-2" points="283.73 62.27 283.53 62.24 283.65 62.41 283.73 62.27"/><path class="cls-2" d="M292.3,63.4l-.15.05A.44.44,0,0,0,292.3,63.4Z"/><path class="cls-2" d="M293.31,63.42l0-.09C293.29,63.38,293.27,63.42,293.31,63.42Z"/><path class="cls-2" d="M293.88,68.56c-.19.2-.47.43-.25.4l.22-.06A.43.43,0,0,1,293.88,68.56Z"/><path class="cls-2" d="M297.28,66.91l-.07.06.21.14Z"/><path class="cls-2" d="M296.38,66.75l.15-.26A1,1,0,0,0,296.38,66.75Z"/><path class="cls-2" d="M285.87,62.72a1.34,1.34,0,0,1-.23-.13C285.65,63.06,285.76,62.77,285.87,62.72Z"/><path class="cls-2" d="M289.09,65.69a1.12,1.12,0,0,0,.44.13C289.32,65.7,289.15,65.51,289.09,65.69Z"/><path class="cls-2" d="M292.72,61.1c-.08,0-.12.08-.12.13S292.74,61.15,292.72,61.1Z"/><path class="cls-2" d="M290,65.82l-.1,0a.89.89,0,0,1-.41,0A.41.41,0,0,0,290,65.82Z"/><path class="cls-2" d="M278.59,51l0,0S278.58,51,278.59,51Z"/><path class="cls-2" d="M280.21,52.29l-.24,0Z"/><path class="cls-2" d="M284.2,65.86c-.24,0-.06,0,0,0Z"/><path class="cls-2" d="M284.55,64.52a.09.09,0,0,0,.1,0S284.57,64.53,284.55,64.52Z"/><path class="cls-2" d="M291.35,64.47h0S291.33,64.44,291.35,64.47Z"/><path class="cls-2" d="M284,65.77l.22.06A.68.68,0,0,0,284,65.77Z"/><path class="cls-2" d="M283.9,65.87h-.09s0-.06,0-.09a.07.07,0,0,0,0,0,.2.2,0,0,0,0,.07Z"/><path class="cls-2" d="M284.52,65.85a1.3,1.3,0,0,1-.35,0s0,0,0,0Z"/><path class="cls-2" d="M286.52,52.4l0,0C286.44,52.24,286.46,52.3,286.52,52.4Z"/><polygon class="cls-2" points="295.18 70.89 295.17 70.9 295.19 70.91 295.18 70.89"/><path class="cls-2" d="M295.47,70.73c-.05.27-.11.24-.28.18l.15.63A2.54,2.54,0,0,0,295.47,70.73Z"/><path class="cls-2" d="M289.87,63.43l.33.2c-.41.31-.7.2-.39.48.06-.68,1.29-.06,1.35-.73l.21.14c-.06,0-.07,0-.13,0,.42.33.32-.49.87-.39.18.06.32.16.19.24l.42-.17c.13,0,.09.14,0,.12l.65,0v0a3.07,3.07,0,0,1,.41-.34c.16.1-.08.07,0,.16l.36-.16c.14.17-.16.34-.4.31.33.68.3-.16,1,.24l-.34.08c.21.39.48.25.86.5-.09-.13-.76-.62-.37-.78a.43.43,0,0,0,.46-.06.16.16,0,0,0,.14.19c.07,0,.07,0,.13,0l-.05.31a2.57,2.57,0,0,1,.23-.39c.12,0,0,.28-.11.49,0,0,.08-.07.13-.18s.1-.26.23-.25c.05.2.18.17.41.32-.1.18-.2.06-.28.14l.26,0s-.09,0-.13,0,.32-.07.41.12c.35,0-.52.66-.13,1.06-.09.1-.19-.05-.32,0a3.4,3.4,0,0,0,.53,1l-.21.4c.24-.29.52.09.75.42.12-.11.22-.19.27-.25l.16.52c0,.07-.16,0-.29-.07l.07.09c-.12.19-.3.09-.48,0l.2-.18a.87.87,0,0,0-.59-.23.34.34,0,0,1,.08.17c-.05,0-.1-.06-.13,0s0,.07.12.16l-.36.11.14,0-.23.69a3.94,3.94,0,0,1,1,1.71c-.26-.2-.42,0-.73-.06.33-.21-.13-.61-.06-1,0,.21-.18.16-.23.11l.28.72c-.25,0-.19.15-.3.34.25-.07.33.06.37.25a1.43,1.43,0,0,0,.11.43c-.17,0-.34-.13-.3-.31-.19.09,0,.15.11.28s.31.29.15.35c0-.06,0-.09-.06-.15.15.21,0,.49-.12.29v0l0,.13a.58.58,0,0,0-.1.12s-.06.11-.1.14a.33.33,0,0,0-.14,0,.38.38,0,0,0-.34.37c0-.06-.09-.51-.1-.6a2,2,0,0,1-.54,1.18l-.19-.2-.25-.18c.35.09,1.18-.24,1.42.18l-1-1,.05,0h-.05l1,1a.7.7,0,0,0,0-.56c-.05.1-.52.24-.56.11.41-.36.22-.25.57-.68-.08.14-.65,0-.64-.24.09,0,.57,0,.63.06l-.56-.55c.1.13.47,0,.63-.1-.11,0,0-.48,0-.63l-.13.23c.08-.63-.79-.62-.76-1.24.11.07.71.19.78-.14a6,6,0,0,1-1.68-1.06l.14-.12a2.66,2.66,0,0,0-.26-.31,3.75,3.75,0,0,1,1.86,1.15c.12-.27.2-.08.15-.48.15-.16.26.21.27.33a6.85,6.85,0,0,0,0-1c-.3.1-.51-.72-.78-.59a5.77,5.77,0,0,1,.57,1c-.34.07-1-.45-1.17-1,.06-.21.61-.11.71-.15a1.65,1.65,0,0,1-.48-.66l.33.2a.74.74,0,0,0-.44-.44.8.8,0,0,1-.44-.5c-.11-.14-.22-.7-.36-.56.09.53-.66,1.46-.9,1.64a4.76,4.76,0,0,0-.43-.8c-.15-.36.56-.57.44-.88a.47.47,0,0,1-.28.16c-.14-.11.14-.27-.24-.3-.12.32-.72-.15-.22.26-.35,0-.34-.11-.74-.12.1.22-.33.74-.63.84a.36.36,0,0,0-.08-.25c-.61,0-.94-.18-1.51-.19,0-.08-.32-.18-.21-.33-.08.06-.15.18-.33.19-.34-.3.39,0,.14-.4,0,.2-.46.27-.71.39.07.31.58.06.83-.06,0,.42-.45.86-1.05,1.06s-.2-.27-.29-.21c-.9-.08-.75.73-1.55.43-.37-.27,0-.54,0-.73.41-.1.59.17.86.16l-.32-.13a.58.58,0,0,1,.52-.08c-.22-.24-1.55,0-2.05-.27-.17.09-.46.19-.44.29l.25,0c.09.21-.68.3-.44.4l-.39.12c-.05,0-.16.07-.18,0l-.06-.12a1.43,1.43,0,0,1-.07-.73l.29-.29c-.08.06-.16.46-.06.53-.07-.05,0-.33.08-.56s.1-.43-.11-.47l-.2.48a6.3,6.3,0,0,1-.3-.59,1.75,1.75,0,0,1-.11-.81c-.3.22,0,.09-.31.57.44-.47,0,1.63.46.82-.38.63-.13.78-.42,1.65.09-.11.17-.37.16.17,0,0,.05,0,.12,0h0l0,0h0c0-.1.05-.29.09-.36a.13.13,0,0,1,.08,0s0,.08.1,0l.41-.08a3.6,3.6,0,0,0,.67-.13c.23,0-.18.12-.1.22l.45-.17c-.09.22.6.37-.13.5h.62a2.35,2.35,0,0,0,.62.12.64.64,0,0,0,.37,0c.18,0,.46-.25.3-.07l.61-.14v.06c.6,0,1.23-.38,1.91,0a1.37,1.37,0,0,1,.75-.06l.07.19c.26-.07.78.2.89,0a.46.46,0,0,0,.32.24.68.68,0,0,0,.32.05c.21,0,.42,0,.5,0l.09-.24a3,3,0,0,0,.51.11l.14-.17c.3,0,.21.47.32.79-.09,0-.09-.09-.07-.16-.16.27,0,.44.12.69s.29.51.11.77a.27.27,0,0,1,0,.33.06.06,0,0,0,0,0v.06a1.32,1.32,0,0,0-.12.2.77.77,0,0,0,.12-.17,1.37,1.37,0,0,0,.09.44l-.24.07v0c-.09.16.12.13.3,0a1.18,1.18,0,0,0,.14.22c-.38.13.14.42-.28.6.2.11.15.82.58.91-.06,0-.08.05-.09,0a.56.56,0,0,0,0,.52l-.31.08.41.4a.76.76,0,0,1-.23.22l.72.73a.11.11,0,0,1,0,.11l-.84-.84a.4.4,0,0,1-.18-.12.41.41,0,0,0,.09.12l.93.94a1.4,1.4,0,0,1,.5-.17,2,2,0,0,0,.52-.21l0,.2c.27,0,.49-.26.69-.11a.68.68,0,0,0,.59,0c.17-.21.51-.42.51-.79a5,5,0,0,0,.17-1.16c0-.21,0-.42.07-.62a2.6,2.6,0,0,1,.1-.4c-.58.19.27-.46-.18-.51.14-.06.22-.2.34,0-.13-.52.23-.78-.15-1.14.14,0,.2.12.29.06s-.12-.16,0-.21.12.07.18.16c0-.53-.44-.59-.84-.63.19-.27.17-.4-.09-.6.13-.09.27-.24.31.09,0-.19.21-1.13-.11-1.15.08-.06,0-.26,0-.31a4.06,4.06,0,0,0,0-.85l0,.11c-.38-.18-.08-.3-.13-.73h0c.13-.5.06-.61,0-.7s-.05-.17-.09-.7l-.18.19c-.23.11-.21-.11-.28-.38s-.28-.57-.58-.53l.1.17c-.17,0-.26-.13-.4-.36s-.33-.47-.53-.5.15-.07.28-.1c-.5-.16-.56-.08-.56,0a.31.31,0,0,1-.3.33c-.08-.17.11-.43-.2-.47-.15-.14-.9.54-1.31.21.09.13.18.26,0,.36s-.88-.5-1.18-.1a.14.14,0,0,1-.06-.1c-.25.1-.81.17-1,.39-.22-.83-1.56.38-1.54-.38l-.77,0,0-.08h-.24a.42.42,0,0,0-.13.07,2.71,2.71,0,0,0-.25.24c-.05,0,0-.12,0-.16-.18-.08-.24-.11-.37-.08a1.47,1.47,0,0,0-.25.11l-.19.09-.13,0,.25-.25c-.08,0,0-.23.1-.44a1.11,1.11,0,0,0,.07-.29c0-.11,0-.1-.09-.32a.19.19,0,0,1,.12.08c-.3-.8.66-1.9-.24-2.19l-.23-.52c-.06.67-.39-.11-.54.17-.06-.26.26-.68.31-.36l0,0c.47.12.16-.84.48-.82,0-1.33.21-2.63.21-3.88l-.36.15v-.44c.09-.11.29-.15.28.16.2-.16-.18-.52-.26-.53.07-.33.16-.34.27-.14s.16.28.16.19l0-.31a.36.36,0,0,1,0,.09c-.08-.16-.18-.22-.24-.35a.32.32,0,0,1-.12-.28c0-.19.21-.11.21-.18s0,0,0-.09l-.52-.28.05,0,0,0h0l.29-.13h0v0s0,0,0,0v-.05l0-.11-.06-.21a3,3,0,0,0-.12-.36c0,.14-.09.3-.14.44-.19-.22-.26-.59-.36-.11a.67.67,0,0,0-.24-.62,1.1,1.1,0,0,0-.36-.27l-.48-.07a6.15,6.15,0,0,0-1,0,.86.86,0,0,1-.42,0,1.65,1.65,0,0,1-1.08.21c.1.06.17.38-.19.35.12-.67-.66-.27-1-.75.27.33-1,.09-.6.54-.3,0,0-.25-.25-.41-.71.24-1.57-.05-2.45.14,0,.07.14.18-.05.31l-.47-.32c-.2.06-.08.43-.59.21.08.05.18.13,0,.17a6.89,6.89,0,0,0-.91,0l-.22,0,0,.21-.05.43a4.34,4.34,0,0,0,0,1l.08.93a1.41,1.41,0,0,0,.09.38l.4.05a2.59,2.59,0,0,0,.41,0l.49,0,1.36-.07c-.24,0-.08,0,.1-.06-.12,0,0,0,0-.07.25,0,.49,0,.73,0s.79-.1.86-.13l-.23,0c.31-.05-.43,0-.39-.12-.34.07-.92-.18-1.48-.07-.13,0,.11,0,0-.08a1.3,1.3,0,0,1-.64,0h0a1.27,1.27,0,0,0-.47,0c-.12,0-.18,0-.26,0s-.08,0-.09,0l.06-.17a.79.79,0,0,0,0-.31l-.12,0a.25.25,0,0,1,.05-.18c-.2-.23.05.35-.19.18.13-.09.07-.32.13-.5s.29-.12.4.08c.14,0-.13-.21,0-.2l.07.11a.76.76,0,0,1,0-.15c.09,0,.28.19.27.29a.42.42,0,0,0-.18,0c.24.16.79,0,.88.07l-.33-.11c.92-.07,2.05.27,2.92-.13l-.07-.11c.67-.24.55.1,1.29,0l0,0a.8.8,0,0,1,.55-.17c-.19.14.36.25.11.4.73-.24.36-.19.84-.61l.11.18a.7.7,0,0,1,.51-.32c-.22.17.14.26-.08.49.19.17.31,0,.49,0s.31,0,.16.27c.56-.3-.12-.51,0-.5,0-.07.1-.2.22-.21a.35.35,0,0,1,.33.13c.06.07,0,.24-.11.44s-.28.32-.22.55l-.1-.43a1.15,1.15,0,0,0,0,.18c0-.08,0-.08-.05-.16-.1.27.24.61.07.85.32,0,0,.26.39.31,0-.09,0-.22-.05-.26a.93.93,0,0,1-.08-.21c.15.2.59.52.38,1.06a.78.78,0,0,1-.24-.31c-.12.16.08.3,0,.46-.4,0-.1-.74-.4-1-.17.07.29.63-.14.43.55.25-.06.62.36,1l-.24,0a.78.78,0,0,1,.15.33l-.31-.22c.27.34-.22.66-.08,1,0-.69.29-.15.46-.44.32.84-.62.48-.49,1.44,0-.13.13-.49.25-.29a1.26,1.26,0,0,1-.26.53c.05.63.24-.09.39.18-.29.21.12.31.22.58h-.25c-.14.72.51.19.33.84l-.34-.27.09.33-.27-.06a.93.93,0,0,1,.08.84c.17-.09.44,0,.45.36-.14.22-.23-.12-.19.33-.15-.1-.34-.21-.12-.41-.08,0-.16-.1-.23-.12-.17.23,0,.59,0,.75a.48.48,0,0,1,0-.18l.34.66c-.09.1-.16,0-.23-.06,0,.13.14.22.16.42-.2-.05-.4,0-.49-.32l.22.62a.49.49,0,0,0-.16.21c-.05.11-.1.21-.14.14a2.55,2.55,0,0,0,.14,1.07,2.76,2.76,0,0,1,.11,1.16s.08.06.11.2-.08.43,0,.54l.48.08a3.49,3.49,0,0,0,1.24-.1,4.25,4.25,0,0,0,.37.36c.38,0,.22-.15.15-.27s-.07-.24.45-.3c.71-.1.28.3.49.4.24-.17.65-.53,1.08-.24C290.12,63.46,290,63.41,289.87,63.43Zm4.95-.1c-.1.05-.29.21-.36.07C294.57,63.12,294.65,63.25,294.82,63.33Zm2,4.3c-.08-.07,0-.18.06-.31A.41.41,0,0,1,296.8,67.63Zm-10.18-2h0c.18,0,.18.06.18,0Zm-.66-.11c-.08,0-.09.07-.07.1a.57.57,0,0,1,.39,0C286.25,65.55,286.17,65.51,286,65.56ZM288,51l0,.07C287.88,50.91,288,51,288,51Z"/><path class="cls-2" d="M296.49,66.78a.2.2,0,0,1,.13,0S296.53,66.7,296.49,66.78Z"/><path class="cls-2" d="M285.91,62.75v0h0Z"/><path class="cls-2" d="M293.36,63.69a.39.39,0,0,1,.18.19C293.57,63.83,293.53,63.76,293.36,63.69Z"/><path class="cls-2" d="M283.56,64.05c0,.17.05.32.08.47a1,1,0,0,1,.06-.48C283.64,64.08,283.56,64.21,283.56,64.05Z"/><path class="cls-2" d="M285,60.93s0-.08,0-.13l-.11,0C284.86,61,285,61.12,285,60.93Z"/><path class="cls-2" d="M284.35,63.33c.2-.09.12-.29.08-.56,0,0,0,0,0,0C284.15,62.76,284.25,63.07,284.35,63.33Z"/><path class="cls-2" d="M284.42,62.71a.73.73,0,0,1,0-.21C284.3,62.49,284.39,62.55,284.42,62.71Z"/><path class="cls-2" d="M285,65.7c-.12,0-.25.26-.29.17-.17.13.16.06.38,0S285.47,65.63,285,65.7Z"/><path class="cls-2" d="M285,63l-.25.13.2.07Z"/><path class="cls-2" d="M284.9,64.69c0-.07,0-.26,0-.37,0,0-.06,0-.08,0C284.85,64.5,284.77,64.84,284.9,64.69Z"/><path class="cls-2" d="M284.84,64.3c0-.12,0-.22,0-.25A1.23,1.23,0,0,0,284.84,64.3Z"/><polygon class="cls-2" points="285.09 63.37 285.04 63.48 285.03 63.72 285.09 63.37"/><path class="cls-2" d="M288.47,64.74l.35-.08c0-.08-.06-.13-.19-.1S288.42,64.65,288.47,64.74Z"/><path class="cls-2" d="M287.44,64.05c.09,0,.1.11.15.19l0-.31Z"/><path class="cls-2" d="M288.45,64c0-.09.5-.25.07-.23C288.48,63.84,288.13,63.91,288.45,64Z"/><path class="cls-2" d="M293.66,64.71l-.08,0-.2.47C293.47,65,293.56,64.85,293.66,64.71Z"/><path class="cls-2" d="M296.47,68.87c.13-.41-.31-.1-.16-.47-.12-.09-.12.31-.23.21C296.21,68.85,296.14,69,296.47,68.87Z"/><path class="cls-2" d="M296.08,68.61l-.07-.13A.46.46,0,0,0,296.08,68.61Z"/><polygon class="cls-2" points="281.17 52.19 281.44 52.15 281.27 52.17 281.17 52.19"/><path class="cls-2" d="M281.68,52.09h.06l.16,0Z"/><path class="cls-2" d="M295.46,64v-.08c0-.09,0-.09-.13-.11l.11.1S295.46,64,295.46,64Z"/><polygon class="cls-2" points="291.96 63.71 292.02 63.72 291.91 63.42 291.96 63.71"/><path class="cls-2" d="M288.76,64.05l.37,0,.2,0a.35.35,0,0,1-.18,0,2,2,0,0,0-.22-.08C288.81,63.87,288.75,63.86,288.76,64.05Z"/><path class="cls-2" d="M270.79,62.25h0Z"/><path class="cls-2" d="M270.53,62.11v0l0,0Z"/><path class="cls-2" d="M270.28,62c0,.15.09,0,.14.1v0l0-.07C270.39,62,270.32,62,270.28,62Z"/><path class="cls-2" d="M270.15,61.53c0,.07,0,0,0,0v0Z"/><path class="cls-2" d="M270.18,61.56s0-.08,0,0Z"/><path class="cls-2" d="M270.06,61.47l0,0s0-.1,0-.12S270,61.37,270.06,61.47Z"/><path class="cls-2" d="M270,61.59l0,0S270,61.54,270,61.59Z"/><path class="cls-2" d="M270.08,61.55l0,0s0,.1,0,0C270.06,61.62,270.07,61.57,270.08,61.55Z"/><path class="cls-2" d="M270.1,61.59c0,.06,0,.11,0,.14S270.17,61.63,270.1,61.59Z"/><path class="cls-2" d="M270.27,62.11l0,0,0,0S270.27,62.07,270.27,62.11Z"/><path class="cls-2" d="M269.85,61.11s0,.16,0,.23l0,0A.45.45,0,0,1,269.85,61.11Z"/><path class="cls-2" d="M269.86,61.34l0,.06S269.86,61.4,269.86,61.34Z"/><path class="cls-2" d="M270,61.81l.06-.11-.07.11Z"/><polygon class="cls-2" points="269.71 60.93 269.73 60.82 269.69 60.99 269.71 60.93"/><path class="cls-2" d="M269.61,60.84c0-.1,0-.24,0-.3s-.05.07-.07.15S269.58,60.7,269.61,60.84Z"/><path class="cls-2" d="M269.51,60.81l0-.12A.39.39,0,0,0,269.51,60.81Z"/><path class="cls-2" d="M269.76,61.31a.81.81,0,0,0,0-.2l0,.19Z"/><path class="cls-2" d="M269.75,61.3h0l0,0Z"/><path class="cls-2" d="M269.77,61.32h0S269.76,61.34,269.77,61.32Z"/><path class="cls-2" d="M269.92,61.63a.37.37,0,0,0,0,.27A2.45,2.45,0,0,1,269.92,61.63Z"/><path class="cls-2" d="M269.78,61.54l0,.06a.61.61,0,0,1,0-.14Z"/><polygon class="cls-2" points="269.76 61.57 269.78 61.53 269.77 61.51 269.76 61.57"/><path class="cls-2" d="M269.57,61.07c0,.07,0,.06-.05,0a.33.33,0,0,0,.06.12C269.59,61.18,269.6,61.08,269.57,61.07Z"/><path class="cls-2" d="M269.66,61.2h0S269.66,61.23,269.66,61.2Z"/><polygon class="cls-2" points="269.28 61.06 269.29 61.1 269.29 61.06 269.28 61.06"/><path class="cls-2" d="M269.59,61.28s0,0,0,0h-.05S269.58,61.29,269.59,61.28Z"/><path class="cls-2" d="M269.45,60.85l0,.14C269.47,60.91,269.45,60.79,269.45,60.85Z"/><path class="cls-2" d="M269.65,61.15h0Z"/><path class="cls-2" d="M269.65,61.15a.24.24,0,0,0,0,.09s0,0,0,0Z"/><path class="cls-2" d="M269.25,62.46c0-.2,0-.39.08-.18a4.92,4.92,0,0,0,0-1.18.72.72,0,0,1-.05.3.8.8,0,0,1,.08.42c-.06.12-.05-.06-.09-.16,0,.24-.06.37,0,.73l0-.13A1.33,1.33,0,0,0,269.25,62.46Z"/><path class="cls-2" d="M269.39,61.1v0a1.15,1.15,0,0,1,0-.27.59.59,0,0,0-.06.25h.1Z"/><path class="cls-2" d="M269.47,61.12a2.18,2.18,0,0,0,0,.52s0-.16.06-.24,0-.1,0-.26,0,0,0,0a.5.5,0,0,1,0-.13h0v0h0v.08c0-.07,0-.06,0-.08v0h0a.6.6,0,0,0-.08.08A.06.06,0,0,0,269.47,61.12Z"/><path class="cls-2" d="M269.86,62.21v0S269.85,62.2,269.86,62.21Z"/><path class="cls-2" d="M269.83,62.11s0-.08,0-.06a.48.48,0,0,1,0,.12.27.27,0,0,0,0-.18v0a.79.79,0,0,1-.07-.3C269.8,61.86,269.81,62,269.83,62.11Z"/><path class="cls-2" d="M269.65,61.72l-.07.07,0,.18v-.1C269.65,61.92,269.64,61.8,269.65,61.72Z"/><polygon class="cls-2" points="269.27 60.95 269.28 60.72 269.23 61.06 269.27 60.95"/><polygon class="cls-2" points="269.13 61.01 269.13 60.81 269.1 60.93 269.13 61.01"/><path class="cls-2" d="M268.4,63.28v-.05A.43.43,0,0,0,268.4,63.28Z"/><path class="cls-2" d="M268.26,63.28v0Z"/><path class="cls-2" d="M266.37,62.24c-.18-.08-.44-.19-.26-.07l.19.1S266.32,62.23,266.37,62.24Z"/><path class="cls-2" d="M267.47,64.3h0Z"/><path class="cls-2" d="M268.37,64.25l-.14,0Z"/><path class="cls-2" d="M269.16,63v-.22S269.15,62.92,269.16,63Z"/><path class="cls-2" d="M268.08,61.63l-.06-.18C268.05,61.53,268,61.51,268.08,61.63Z"/><path class="cls-2" d="M268.52,65.58a.53.53,0,0,0,0-.13A.53.53,0,0,0,268.52,65.58Z"/><path class="cls-2" d="M268,61.22v0c0,.11,0,.14,0,.19Z"/><path class="cls-2" d="M270.74,62.69h0Z"/><path class="cls-2" d="M270.81,62.59v0Z"/><path class="cls-2" d="M268.76,61s0,0,0,0Z"/><path class="cls-2" d="M268.91,61.81a.46.46,0,0,0,0,.1Z"/><path class="cls-2" d="M268.09,62.5Z"/><path class="cls-2" d="M268.78,61.06a.08.08,0,0,0,0-.06S268.77,61,268.78,61.06Z"/><path class="cls-2" d="M268.77,61v0S268.78,60.92,268.77,61Z"/><path class="cls-2" d="M268.74,61s0,0,0,0v0Z"/><path class="cls-2" d="M270.47,63.74v0C270.49,63.67,270.49,63.69,270.47,63.74Z"/><polygon class="cls-2" points="268.36 63.3 268.35 63.3 268.34 63.3 268.36 63.3"/><path class="cls-2" d="M268.52,63.35c-.27,0-.24,0-.18-.05l-.62.07Z"/><path class="cls-2" d="M268.73,63.21l-.06-.19c0-.33.09-.22,0-.49,0,.68-.18.08-.14.75l0-.14s0,0,0,0c-.08-.33,0,.49-.09.39a.41.41,0,0,1,0-.23l0,.17s0-.13,0-.11l-.09,0v0c0,.11,0,.27,0,.34,0-.09,0-.07,0-.15l0,.16c0-.17,0-.34,0-.32-.1-.67,0,.17-.16-.22l0-.09c-.07-.38-.09-.24-.17-.47a2.58,2.58,0,0,1,.12.76c0-.05,0-.07-.05.07,0-.24-.05-.18-.08-.17l0-.32a2.42,2.42,0,0,0,0,.4,1.27,1.27,0,0,1-.11-.48c-.07-.05.09.39,0,.46-.07-.12-.1,0-.15.2-.05-.11,0-.19,0-.28v.25a.33.33,0,0,1,0-.12c0,.1,0,.32,0,.4,0,.35-.15-.51-.16-.11a1.35,1.35,0,0,1,0-.31.75.75,0,0,0,0,.17l1.08.89a1.94,1.94,0,0,0-.38-.06l.2-.07a2.16,2.16,0,0,1-.76,0l-.26.06L267,64.3h.22a2.28,2.28,0,0,1,.48,0l-.19,0h.59l-.08,0h0l.35,0h-.14l.22-.11a4.56,4.56,0,0,1-1.05-.15c.26,0,.42,0,.73-.05-.32.05.15.07.09.13a.43.43,0,0,1,.23,0l-.31-.08c.26,0,.19,0,.29-.07-.49.06-.33,0-.49-.07.17,0,.34,0,.3,0,.37-.08-.59,0-.27-.1,0,0,0,0,.06,0-.15,0,0-.09.11-.09h0c.06-.08,0-.23-.43-.21l.59,0-1.43,0a11.11,11.11,0,0,1,1.44-.08s.1,0,0-.08a3.64,3.64,0,0,1-.56.05c.41-.08.22-.05.56-.13a2.24,2.24,0,0,1-.63,0c.08,0,.56,0,.62,0l-.57,0a3.91,3.91,0,0,0,.64-.06c-.08,0-.05,0,0-.05l-.14.6h0l-.06,0,0,0h0l.12-.52h0l-.12.52h0v0l-.06,0-.21-.17c-.16-.13-.33-.26-.29-.29a4.66,4.66,0,0,0,.65.44A6.59,6.59,0,0,1,267,62.32l.14.09-.1-.18a17,17,0,0,0,1.22,1.2c.12.06.16.11.17.08a.46.46,0,0,1,.18.16l.11,0a4.9,4.9,0,0,1-.46-.42l.24.27c-.27-.2-.72-.63-.63-.64s.43.41.52.48c-.08-.08-.14-.17-.08-.11l.12.13c.05,0,0,0-.09-.1a2,2,0,0,1-.15-.18,1.87,1.87,0,0,1-.14-.18l0,.05h0s0,0,0,0l-.16-.23a6.83,6.83,0,0,1-.51-.74s.4.2.46.39a1.55,1.55,0,0,1,.06.23l0,.09v0l0-.06v-.05h0v.66h0v0a.43.43,0,0,1,0,0s0,0,0,0,0,0,0-.13.06.07.12,0a4.77,4.77,0,0,1,0-.86c0,.09,0,.2,0,.25s.16.17.26.14a1.43,1.43,0,0,1,.12.31c0-.06,0-.18,0-.19.16.25-.06.07.1.38-.06-.19,0-.29,0-.42s-.11,0-.13.12c-.11-.39-.18-.82-.27-1l.27-.06v0c.06-.12,0,.27,0,.2s.07-.74.16-.45a6.89,6.89,0,0,1,.05.72c-.05.11-.09-.16-.12-.14l.05.12c0,.09-.05.16-.07.09,0,.24.2,0,.31.23a.93.93,0,0,0,0-.29l0,0c0-.22,0-.31,0-.4s0-.4.09-.29l.05.31c0-.09-.05-.18-.06-.09,0-.13.13.41.1,0l-.06-.2c0-.08,0-.2,0-.29s.08-.15.12-.11c-.07-.3,0,0-.12-.31.07.22,0,.22-.05.22s0,0,0,.23c-.08-.4-.07-.17-.15-.51,0,.1,0,.19,0,.15v.08h0l0,.15c0,.24-.05.24-.05.36,0,0,0-.12,0-.22l0,.18a1.94,1.94,0,0,1,0-.5h0c0-.12-.06-.17-.07-.07s0,.26,0,.08l-.05.15v-.06s0,0-.05.06l-.28.63a3.23,3.23,0,0,1-.2-.56s0,.1,0,0l0-.19c0,.07,0-.19,0,0,0-.26,0-.29,0-.26s0,.23,0,.36,0,.4,0,.6v-.92h-.11l-.32.07-.19,0,.08.24a.53.53,0,0,0-.38.41l.15.17c0,.2-.29,0-.35.15-.06-.06,0-.07,0,0-.49-.22.11.44-.24.3,0,.07,0,.07,0,.05h0l-.12,0,.11,0a.25.25,0,0,0,0,.12l-.21-.13h0c-.09,0,.09.09.25.17a.5.5,0,0,0,.1.11c-.19-.1-.15-.05-.14,0l-.14.57s0,0-.15.05c.2,0,.16.1.58.08h-.08c-.05,0-.09,0,0,.07l-.31,0,.42,0a1.46,1.46,0,0,1-.53.06c.37,0,.14,0,.5.09h-.19s.27,0,.11.07c-.37.08,0,.26-.37.43.58-.08-.26.08.19,0a1.27,1.27,0,0,1-.33,0c.14.06-.21.12.17.14-.13,0-.2,0-.28,0s.12,0,0,0a.51.51,0,0,1-.18,0c0,.07.46,0,.85,0-.18,0-.15.07.11.07-.13,0-.26.06-.31,0s-.18.16.14.14c0,0,0,0,0,0l.77.63a.08.08,0,0,0,0,0c.05,0,.06,0,.11,0l0,0c0-.38,0-.09.07-.13v0c.12.27,0-.14.16.17l0-.23c0-.52.11.3.15.1l0-.14c0-.18.15.7.19.76s0,.07,0,.11c.1.3,0-.32,0-.39,0,.17,0,.43.07.46s.07-.55.15-.23a1.17,1.17,0,0,1,0-.36s.16.49.16.08a.36.36,0,0,1,0,.1,1.25,1.25,0,0,0,.09-.4c.09.82.18-.41.23.35l.1,0v.07c.07,0,.08-.13.09-.32a1.28,1.28,0,0,1,0,.17c.1.15.11.12.16-.27l0,.25c0-.14.15.38.23.09a.41.41,0,0,1,0,.11c.1-.29.28.68.28-.22l.06-.23c-.09-.06,0-.39,0-.54s.1.27.06.32v0c0,.47.12.16.12.48.18,0,.35.22.51.24l0-.37.06,0c0,.09,0,.29,0,.28,0,.2.07-.18.07-.26.08.15,0,.43,0,.44l0,0v0c0-.15,0-.3.08-.29a1.25,1.25,0,0,1,0,.24s0,0,0,0l.14,0-.06-.29c0-.14.1,0,0-.31.08.28.08.23.07.13v-.16c0-.25,0-.3,0-.36s0-.28,0-.3c.06.55,0,.12.06.42l0-.5s0,.17,0,.24c0-.3,0-.2,0-.44,0,0,0-.12,0-.19v.13c0-.06,0-.27,0-.19v-.1c0-.53,0,.09,0-.89,0,0,0,0,0,0V62.5c0-.17,0,0,0-.18v0h0c0,.08,0,0,0,.14v0c0,.09,0,.08,0,.1v0c0,.15,0,0,0,.11,0-.14,0,.15,0-.07v.17l0-.14v0c0-.07,0,.07,0,.05v0c0,.14,0,.08,0,.35v.07c0,.21,0,0,0,.09v0c0,.1,0,.16,0,.17l0-.32c0,.22,0,.17,0,.57l0-.15,0,.33c0-.15,0-.26,0-.46s0,.49,0-.06c.05.54,0,.22,0,.35s0,.4,0,.38a5.63,5.63,0,0,1-.12-.65s0,0,0,0-.06.18-.1,0c0,.31-.06,0-.06.38l.08-.1c0,.11-.08.57-.16.35s0-.19,0-.25,0,.08-.06,0c0-.39.09-.09.14-.39s-.09.29-.07-.14c0,.55-.09-.06-.14.35v-.23s0,.15,0,.14l0-.31c0,.27-.09-.22-.14-.08s0,.29.07.46c-.11.32-.08-.62-.21-.5,0,0,.07.14,0,.25A.61.61,0,0,1,270,63c-.09,0,0,.24,0,.39,0-.29,0,.12-.07.21v-.24c-.11-.15,0,.5-.11.32l0-.34,0,.09v-.27c-.05.2-.07.15-.12.07,0,.17,0,.44,0,.45,0-.14,0-.23-.06-.19,0-.15,0-.34.06-.12v-.23c0-.17-.08,0-.1,0s0,0,0,0l-.07.34a.65.65,0,0,1,0-.24s0,.14-.06.16a1.72,1.72,0,0,1,0-.49l-.08.22a1.71,1.71,0,0,1-.05-.3c-.05-.12-.1.38-.17.23a.25.25,0,0,1,0,.1c-.06,0-.13-.28-.19,0l-.06-.35c-.05.09.08.45,0,.58s-.05-.3-.07-.39c0,.17-.06.54-.14.25C268.7,63.19,268.72,63.24,268.73,63.21Zm-.67.18s0-.21,0-.07S268.09,63.47,268.06,63.39Zm-.13.78c.08,0,0,0-.05,0S267.87,64.19,267.93,64.17Zm.7-3h0C268.61,61.1,268.61,61.13,268.63,61.18Zm.05.1a.41.41,0,0,0,0-.11c0,.07,0,.07,0,.06S268.67,61.33,268.68,61.28Zm2,4.08V65.3C270.68,65.23,270.68,65.29,270.67,65.36Z"/><path class="cls-2" d="M268.27,64.26l-.14,0Z"/><polygon class="cls-2" points="269.16 63.07 269.16 63.07 269.16 63.03 269.16 63.07"/><path class="cls-2" d="M267.89,62.68s0,0,0,0Z"/><path class="cls-2" d="M268.87,60.84l0,.06s0,0,0,.08S268.86,60.84,268.87,60.84Z"/><path class="cls-2" d="M269.4,62.28s0,0,0,0v-.12A.15.15,0,0,0,269.4,62.28Z"/><path class="cls-2" d="M269,61.63c0,.2.05.13.09.09h0C269.08,61.43,269,61.53,269,61.63Z"/><path class="cls-2" d="M269.11,61.71s0,0,0,0S269.12,61.68,269.11,61.71Z"/><path class="cls-2" d="M268.73,61.13s0-.26,0-.17C268.71,60.7,268.69,61.28,268.73,61.13Z"/><polygon class="cls-2" points="269.12 62.29 269.08 62.04 269.09 62.24 269.12 62.29"/><path class="cls-2" d="M268.9,62.13l0,.06a.17.17,0,0,1,0-.08S268.89,62.06,268.9,62.13Z"/><path class="cls-2" d="M269,62.11s0,0,0,0S269,62.08,269,62.11Z"/><polygon class="cls-2" points="269.08 62.37 269.06 62.32 269.02 62.3 269.08 62.37"/><path class="cls-2" d="M268.46,62.14v0l-.1,0v.06c0,.08.06.12.06.08v0h.05A.57.57,0,0,0,268.46,62.14Z"/><path class="cls-2" d="M268.61,62.81c0-.05,0-.11,0-.19v.31Z"/><path class="cls-2" d="M268.47,62.9a.36.36,0,0,1,0,.1l.28-.06c0,.06,0,.13,0,.11l-.33.08h0C268.46,63,268.52,63,268.47,62.9Z"/><polygon class="cls-2" points="267.85 62.63 267.85 62.63 267.62 62.17 267.85 62.63"/><path class="cls-2" d="M268.5,63.72c.12,0-.26-.19-.11-.13-.1-.07-.12,0-.2-.11C268.28,63.57,268.22,63.54,268.5,63.72Z"/><path class="cls-2" d="M268.19,63.48l-.06,0Z"/><polygon class="cls-2" points="270.81 62.41 270.81 62.36 270.81 62.39 270.81 62.41"/><path class="cls-2" d="M270.8,62.3h0v0Z"/><path class="cls-2" d="M267.9,62.74v.08c0,.08,0,.09,0,.1Z"/><polygon class="cls-2" points="268.42 62.97 268.41 62.96 268.45 63.25 268.42 62.97"/><path class="cls-2" d="M268.82,62.58s0,.05-.05,0S268.85,62.94,268.82,62.58Z"/><text class="cls-4" transform="translate(33.34 108.95)">R<tspan class="cls-5" x="44.09" y="0">e</tspan><tspan class="cls-6" x="78.45" y="0" xml:space="preserve">cipe   RESCUE</tspan></text><text class="cls-7" transform="translate(32.23 110.61)">R<tspan class="cls-5" x="44.09" y="0">e</tspan><tspan class="cls-6" x="78.45" y="0" xml:space="preserve">cipe   RESCUE</tspan></text><path class="cls-8" d="M312.1,64.09V62.92l-.16-1.33-.42-2.09-.34-1.08-.16-.75-.42-1.34-.5-1.67-.84-1.92-.75-1.5-.58-.84-.5-1-.59-.83L305.51,47l-2.09-2.5-1.75-1.67-1.75-1.42-2.34-1.5L295.83,39l-1.34-.75-1.16-.58-1.17-.42-1.26-.42-.75-.33-1.08-.25-1.67-.42-1.5-.25H285l-2-.17-2.92.09-2-.09-1.33.25-2.09.34-2.25.75-1.09.5-1.75.5L267.2,38.8l-2,1L263,41.06,262,42l-.67.33-.83.83-.84.92-.58.75-.84.75-1.41,1.92L255.27,50l-.83,1.83L253.68,53l-.83,2.17-.67,1.92-.25,1.34-.67,2.08L251.1,62l-.25,1.59V66l-.09,1.42.09,1.17L251.1,70l.08,1,.34,1.67.41,2,.42,1.09.5,1.83,1.08,1.92,1,1.84,1.17,2.25,3,3.59.92.92,1.42,1.25,1.16,1.08.84.5.75.59,1.08.58.92.59.84.41,1.67.92,2,.75,1.5.59,1.09.25.83.25,1.5.33h2.09l1.67.25,1.25.08h1.42l1.92.17h2.42l1.75-.25,2.09-.58L292,95.3l.92-.33,1.42-.58,1.83-1.09,1.67-.92,1-.67.59-.5.83-.5.67-.58.75-.59.58-.5.76-.75,1.08-.83.92-.92.5-.58.33-.59.5-.75.59-.75.67-.83.41-.84.59-1,.75-1.59.67-1.83.75-2,.33-1.42.25-1,.25-1.66.08-1.34.17-1.34.17-2.16.17-1.42Zm-16.57,8.17a1.46,1.46,0,0,0-.57.12,6.13,6.13,0,0,0-.9.11c-.79,0-4.85.11-8.24.11V84.79l-8.91.22s-.57-.33-.57-.56a1.51,1.51,0,0,0-.11-.56,6.35,6.35,0,0,0-.11-.91c0-.79-.11-6.2-.11-10.38-3.73-.11-8.13-.11-9.26-.11-.9,0-.9-1.13-.9-1.69v-.57l.11-7.11.34-.45c1.24.23,6.21.12,9.71.12,0-4.41.11-10.39.11-11.63,0-.9,1.13-.9,1.69-.9h.57l7.1.11.46.34c-.23,1.36-.12,8.24-.12,12.08h10l.23,8.91S295.75,72.26,295.53,72.26Z"/><path class="cls-9" d="M312.1,64.09V62.92l-.16-1.33-.42-2.09-.34-1.08-.16-.75-.42-1.34-.5-1.67-.84-1.92-.75-1.5-.58-.84-.5-1-.59-.83L305.51,47l-2.09-2.5-1.75-1.67-1.75-1.42-2.34-1.5L295.83,39l-1.34-.75-1.16-.58-1.17-.42-1.26-.42-.75-.33-1.08-.25-1.67-.42-1.5-.25H285l-2-.17-2.92.09-2-.09-1.33.25-2.09.34-2.25.75-1.09.5-1.75.5L267.2,38.8l-2,1L263,41.06,262,42l-.67.33-.83.83-.84.92-.58.75-.84.75-1.41,1.92L255.27,50l-.83,1.83L253.68,53l-.83,2.17-.67,1.92-.25,1.34-.67,2.08L251.1,62l-.25,1.59V66l-.09,1.42.09,1.17L251.1,70l.08,1,.34,1.67.41,2,.42,1.09.5,1.83,1.08,1.92,1,1.84,1.17,2.25,3,3.59.92.92,1.42,1.25,1.16,1.08.84.5.75.59,1.08.58.92.59.84.41,1.67.92,2,.75,1.5.59,1.09.25.83.25,1.5.33h2.09l1.67.25,1.25.08h1.42l1.92.17h2.42l1.75-.25,2.09-.58L292,95.3l.92-.33,1.42-.58,1.83-1.09,1.67-.92,1-.67.59-.5.83-.5.67-.58.75-.59.58-.5.76-.75,1.08-.83.92-.92.5-.58.33-.59.5-.75.59-.75.67-.83.41-.84.59-1,.75-1.59.67-1.83.75-2,.33-1.42.25-1,.25-1.66.08-1.34.17-1.34.17-2.16.17-1.42Zm-16.57,8.17a1.46,1.46,0,0,0-.57.12,6.13,6.13,0,0,0-.9.11c-.79,0-4.85.11-8.24.11V84.79l-8.91.22s-.57-.33-.57-.56a1.51,1.51,0,0,0-.11-.56,6.35,6.35,0,0,0-.11-.91c0-.79-.11-6.2-.11-10.38-3.73-.11-8.13-.11-9.26-.11-.9,0-.9-1.13-.9-1.69v-.57l.11-7.11.34-.45c1.24.23,6.21.12,9.71.12,0-4.41.11-10.39.11-11.63,0-.9,1.13-.9,1.69-.9h.57l7.1.11.46.34c-.23,1.36-.12,8.24-.12,12.08h10l.23,8.91S295.75,72.26,295.53,72.26Z"/><path class="cls-8" d="M296,72.71a3.18,3.18,0,0,1-.41.21c-.05,0,0,0-.07.07.46-.06.47-.18.53-.21s.05-.07,0-.08S296,72.71,296,72.71Z"/><polygon class="cls-8" points="296.4 69.27 296.44 69.33 296.33 68.87 296.4 69.27"/><path class="cls-8" d="M296.33,66.38c-.17.28.05,1.05,0,1.57l0,.08.14.23C296.41,67.64,296.29,66.83,296.33,66.38Z"/><path class="cls-8" d="M296.68,64.83c-.07.1-.07-.33,0,.36l0-.06Z"/><path class="cls-8" d="M296.68,65.13c0,.3.05-.2,0,0Z"/><path class="cls-8" d="M296.6,63.73l.08.39c0-.08,0-.44.07-.31,0-.13,0-.23,0-.31s0-.12,0-.12A1.23,1.23,0,0,0,296.6,63.73Z"/><path class="cls-8" d="M296.46,63.13l0,.33A.58.58,0,0,0,296.46,63.13Z"/><path class="cls-8" d="M296.56,64c0-.15,0-.25-.07-.53,0,.09-.08.13,0,.3C296.47,63.72,296.52,63.81,296.56,64Z"/><path class="cls-8" d="M296.54,64.24c0,.23-.05.52-.12.12C296.46,65.13,296.59,65,296.54,64.24Z"/><path class="cls-8" d="M296.14,66.24l0,.3.06.26C296.13,66.67,296.2,66.22,296.14,66.24Z"/><path class="cls-8" d="M294.33,62s.13.1.16.15l.3,0C294.63,62.06,294.35,62,294.33,62Z"/><path class="cls-8" d="M294.49,62.13l-.44.06C294.44,62.2,294.52,62.17,294.49,62.13Z"/><path class="cls-8" d="M296.26,63.11l.08.5c0,.19.05.26.08.4-.05-.23-.11-.74-.17-1.1Z"/><polygon class="cls-8" points="292.63 61.97 292.88 61.89 292.44 62.02 292.63 61.97"/><path class="cls-8" d="M291.51,62c.19-.07-.25-.12-.06-.17a4.46,4.46,0,0,0-.8.13A2.88,2.88,0,0,1,291.51,62Z"/><path class="cls-8" d="M290.26,62a3.1,3.1,0,0,0,.39-.09A1.83,1.83,0,0,0,290.26,62Z"/><path class="cls-8" d="M293.29,62.18s-.1-.09-.35-.11l.18.1Z"/><path class="cls-8" d="M293.12,62.18h0Z"/><path class="cls-8" d="M293.34,62.18h0Z"/><path class="cls-8" d="M295.35,62.3c-.48.06-.92.13-.42.22C295.19,62.44,294.76,62.39,295.35,62.3Z"/><path class="cls-8" d="M293.55,62.31l.47,0s-.09-.07,0-.1Z"/><polygon class="cls-8" points="293.32 62.34 293.55 62.31 293.38 62.3 293.32 62.34"/><path class="cls-8" d="M291.07,62.14a3.62,3.62,0,0,1-.68,0c.27,0,.55,0,.81,0C291.24,62.19,291.36,62.13,291.07,62.14Z"/><path class="cls-8" d="M292.07,62.16H292S292.07,62.18,292.07,62.16Z"/><polygon class="cls-8" points="287.92 62.19 287.96 62.21 287.97 62.19 287.92 62.19"/><path class="cls-8" d="M291.25,62.25a1.13,1.13,0,0,0,.44,0l-.49,0S291.18,62.25,291.25,62.25Z"/><path class="cls-8" d="M289.57,62.09l.35,0C289.82,62.11,289.61,62.06,289.57,62.09Z"/><path class="cls-8" d="M292,62.14h0C291.92,62.11,291.93,62.12,292,62.14Z"/><path class="cls-8" d="M292,62.14l-.26.07.33,0Z"/><path class="cls-8" d="M287.17,62.88c0-.1.57-.19,1-.09.45-.07.15-.4-.24-.58,0,0,0,.08-.48.14.16.06,1,.13.64.22a1.54,1.54,0,0,1-.81-.09c.25.13-.77.18-.65.36l.54-.06S287,62.85,287.17,62.88Z"/><path class="cls-8" d="M288.84,62.22H289a4.45,4.45,0,0,1-.66-.13c-.32,0-.38.08-.4.11l.94,0Z"/><path class="cls-8" d="M289.89,62.21c-.15.11-.6.15-.32.27.56,0,.39-.09.73-.14-.91,0,.26-.06-.4-.12l.49,0-.47,0h0s.05,0,0,0h0s0,0,0,0c-.26,0,0,0,0,0l0,0h0l-.91.06Z"/><path class="cls-8" d="M294.45,62.75s0,0,0,0S294.34,62.75,294.45,62.75Z"/><path class="cls-8" d="M294.07,62.68a1,1,0,0,1,.34,0c.19,0,0,0,0,.08s.45-.07.05-.13l-.07,0a2.21,2.21,0,0,1-.77-.19A1.15,1.15,0,0,0,294.07,62.68Z"/><path class="cls-8" d="M292,62.47l-.76.06.39.09,0-.06C292,62.59,291.9,62.52,292,62.47Z"/><polygon class="cls-8" points="287.83 62.14 287.93 62.02 287.5 62.19 287.83 62.14"/><path class="cls-8" d="M286.85,62.15l0-.1a.23.23,0,0,0-.15.06S286.75,62.14,286.85,62.15Z"/><path class="cls-8" d="M266.93,71.9l.22,0Z"/><path class="cls-8" d="M266.48,71.44l-.05,0S266.49,71.49,266.48,71.44Z"/><path class="cls-8" d="M275.49,51.78c-.1.32-.24.68-.13.64l.11-.1A2.25,2.25,0,0,1,275.49,51.78Z"/><path class="cls-8" d="M270.5,62.84l.09,0,.22-.1Z"/><path class="cls-8" d="M270.27,63.29l-.43-.07A4.28,4.28,0,0,0,270.27,63.29Z"/><path class="cls-8" d="M276.19,71.9l.56-.11C276,71.78,276.29,71.84,276.19,71.9Z"/><path class="cls-8" d="M286.4,53.76c0-.28.06-.5.07-.69C286.4,53.4,286.31,53.67,286.4,53.76Z"/><path class="cls-8" d="M266,72.84c.2.09.29.09.29.06C266.1,72.85,266,72.79,266,72.84Z"/><path class="cls-8" d="M286.49,52.27l0,.15a4.57,4.57,0,0,1,0,.65A1.79,1.79,0,0,0,286.49,52.27Z"/><path class="cls-8" d="M285.2,74.85l0-.07S285.2,74.8,285.2,74.85Z"/><path class="cls-8" d="M292.85,73l-.38,0Z"/><path class="cls-8" d="M286.49,59.86c0,.21,0,0,0,0Z"/><path class="cls-8" d="M286.07,60.87a.12.12,0,0,0-.05-.08A.22.22,0,0,1,286.07,60.87Z"/><path class="cls-8" d="M285.51,50.41h0C285.53,50.46,285.53,50.45,285.51,50.41Z"/><path class="cls-8" d="M286.44,60.17a1.93,1.93,0,0,0,0-.27C286.47,60,286.46,60,286.44,60.17Z"/><path class="cls-8" d="M286.5,60.13a1.21,1.21,0,0,0,0,.18S286.52,60.31,286.5,60.13Z"/><path class="cls-8" d="M286.48,59.57c0,.12,0,.23,0,.33s0,0,0,0S286.49,59.71,286.48,59.57Z"/><path class="cls-8" d="M278.69,84.64h.05C279,84.6,278.86,84.61,278.69,84.64Z"/><polygon class="cls-8" points="276.56 57.2 276.56 57.17 276.56 57.2 276.56 57.2"/><path class="cls-8" d="M276.64,57.94a1.24,1.24,0,0,1-.09-.74l-.31.25Z"/><path class="cls-8" d="M270.79,71.91l-.53-.1c.64-.15,1.1-.09.61-.23-.08.33-2.05,0-2.13.34l-.34-.07a1.48,1.48,0,0,1,.21,0c-.67-.17-.5.24-1.37.18-.32,0-.5-.08-.31-.12-.15,0-.21.06-.33,0s0-.09,0,0c-.13-.1-.17-.16-.23-.47h0a2.25,2.25,0,0,1-.2-.57c0-.26,0,.13.08.06l-.08-.56c.09-.24.17.24.16.62.34-.51-.09-.46.12-1.61l0,.54a5.36,5.36,0,0,0,.26-1.37c-.06.15-.32,1.21-.39.6a2.09,2.09,0,0,0,0-.74c.12,0,.09-.33.09-.73l.16,0a2,2,0,0,0-.19-.67c0-.49.15-.59.26-.7,0-.79-.21.53-.22-.39a8.29,8.29,0,0,0-.07-1.9c.06-.45.09.08.14-.08l-.12-.41c0-.1,0-.06.06,0,0-.18-.12-.07-.17-.24a.8.8,0,0,1,.05-.11c0-.06,0-.12.07-.11l.21.08a1.09,1.09,0,0,0,.28.08,1.84,1.84,0,0,0,.74,0c.16.05-.08.1,0,.16a8.44,8.44,0,0,0,1.55-.24l.64.11c-.47-.12.13-.26.66-.38a3.57,3.57,0,0,0-.41-.13l.84-.09c.1,0,0,.08-.12.15l.15,0c.3.06.15.15-.07.24l-.3-.1c-.2.1-.4.21-.35.3a1.19,1.19,0,0,1,.27,0c-.05,0-.09,0-.06.06s.11,0,.25-.06l.19.18.05-.07,1.09.11a12.87,12.87,0,0,1,2.71-.54c-.31.13-.07.22-.08.37-.34-.16-1,.08-1.61,0,.34,0,.26.09.18.11l1.15-.15c0,.12.24.09.54.14-.1-.12.06-.17.5-.19l.65,0h.16s.12,0,.09,0l0-.29c.05,0,.09.07.12.23v.14s0,.07,0,.08h-.09a4.09,4.09,0,0,1-.5,0,2.4,2.4,0,0,0,.62,0,1.89,1.89,0,0,0-.06-.52,2,2,0,0,1-.07-1,.89.89,0,0,0,0,.35,3.12,3.12,0,0,1,0-.74c0-.21.05-.37.09-.27v.14a9.78,9.78,0,0,0-.19-3,.75.75,0,0,1,.3.18l-.7-1.65c.18.14.62-.41.72.35a3.24,3.24,0,0,0,0-1c0,.15-.27.37-.28.17a7.06,7.06,0,0,0,.29-1.09c0,.22-.33,0-.31-.38,0,0,.28,0,.31.1l-.27-.89c.05.22.23,0,.32-.16a8.48,8.48,0,0,1,0-1l-.07.38c.06-1-.38-1-.36-2,.06.14.36.24.4-.15a.57.57,0,0,1-.13-.65,1.43,1.43,0,0,1,1.1-.66l.18.08.68-.1c-.21.12-.62.27-1,.46a1.85,1.85,0,0,0-.52.32.51.51,0,0,0-.16.32c.18-.08.09,0,.3-.08s-.08.14-.09.17.06,0,.24-.06a3,3,0,0,1,.53,0c-.07-.17,1-.17.94-.31-.46.06-1,.1-1.34.19,0-.08.11-.22.43-.32a4.19,4.19,0,0,1,1.24-.14c.23.07-.18.3-.16.36a3.18,3.18,0,0,1,1-.06l-.39.08c.51.08.84-.2,1.46,0,.21,0,.63.22.67.12-.35-.19-.41-.79-.17-.93.07,0,1.12.2,1.36.3s-.53.35-.24.48c0,0,.21-.09.29-.11.23,0-.09.14.4.13.08-.17,1,0,.23-.14a8,8,0,0,1,1.06,0c-.16-.11.49-.37,1-.41,0,0,0,.08.07.11l0,0,.26.21.12.09s0,.1,0,.14c0,.2-.05.37-.08.56,0,.36-.07.72-.09,1.18,0,.08-.1.52-.17.33a2.08,2.08,0,0,1,.09.54c-.16.54,0-.63-.2-.22.1,0,.12.73.18,1.13.16-.12,0-.92,0-1.33.21,0,.42.71.51,1.66.05.75-.14.32-.11.46,0,1.42.37,1.2.22,2.38-.13.47-.27,0-.36.13a10.06,10.06,0,0,1,.07-1.36l-.06.51a2.84,2.84,0,0,1,0-.83c-.12.39,0,2.4-.12,3.5.05.19.09.53.15.37l0-.35c.1-.32.15.65.2.22a5.76,5.76,0,0,1,.14,1.64l-.15.12a1.2,1.2,0,0,0,0-.61c.07.25-.2,1.07,0,1.21,0-.14.07-.2.1-.37.12.39.12.58.44.52,0-.15-.1,0-.08-.16,0,.05-.08.1-.1.08a.76.76,0,0,1,0-.17.37.37,0,0,0,0-.16c0-.08,0,0-.1,0,.21-.36.09-.72.26-1.26-.05,0-.1.2-.07-.29a.28.28,0,0,1-.05-.11v0s0,0,0,0a.73.73,0,0,1-.08.25,9,9,0,0,1-.18-1.28c0-.29.06.12.11,0l-.09-.39c.11,0,.18-.77.25-.09v-.61a3.83,3.83,0,0,0,0-1.16c0-.29-.12-.73,0-.48l-.07-1h0a14.65,14.65,0,0,1,0-3,5.78,5.78,0,0,1,0-1.16l.12-.18,0-.36,0-.21V50.4s-.08-.06-.11-.1l-.83-.65h-.47a.43.43,0,0,0-.21,0c-.43-.27-2-.09-2.71-.15l0,.13a15.28,15.28,0,0,0-1.59.06l0,.11c-.53.08-1.37-.1-2.21-.1a.73.73,0,0,1,.42,0,4,4,0,0,0-1.58,0,3.57,3.57,0,0,0-.94.25,1.66,1.66,0,0,0-.79.71c-.08.33-.06.66-.1.77v0l-.06.32a1.68,1.68,0,0,0,.06-.27,6.41,6.41,0,0,0,0,.7l-.12.11v.06c-.05.26.06.21.15.07a2.7,2.7,0,0,0,.07.35c-.2.2.06.68-.15,1,.1.18.06,1.31.27,1.45,0,0,0,.08,0-.06a3,3,0,0,0,0,.84l-.15.13.2.63c-.1.39-.15.54-.27.16.17.93.06.75.23,1.54l-.09,0c0,.28.12.73,0,.9a10,10,0,0,0-.12,2c0,.21,0,.42,0,.63l0,.39c0,.09-.1,0-.15,0l-.19,0-.17,0-.3,0c.31.29-.75-.13-.81.1-.1-.07-.32-.1-.06-.17a8,8,0,0,0-1.8.1c-.1-.07.17-.11.09-.15a.68.68,0,0,1-.35,0c-.08,0,.12-.06.25-.09-.84,0-.92.22-1,.42a1.31,1.31,0,0,0-.95.06c-.14-.07-.39-.14.13-.16-.29,0-1.79-.11-1.82,0a1.55,1.55,0,0,0-.48,0l-1.41-.09.23.05a.77.77,0,0,1-.6,0c-.07.07-.15.18-.25.29s-.15.19-.23.31v0h0c0,.39-.05.57-.06.68a1.7,1.7,0,0,0,0,.25,3.22,3.22,0,0,1-.07.84l.12-.07c.26.12-.16,1-.08,1.73l.08-.24c.08.37-.37,1-.41,1.41,0,.08,0-.13-.05-.24-.17,1,.16.13.18.86-.09.13-.21-.18-.23.32a13.55,13.55,0,0,1,.08,2.1c.07-.14.13-.29.18,0s-.06.63,0,1.06.39,1,.76,1c.08.06.11.08.1.09a1.88,1.88,0,0,0,.56,0l.45,0a3.4,3.4,0,0,0,.71-.11c.37.42,2.48-.17,2.47.21h1.22l0,0A3.14,3.14,0,0,0,273,72.9c.18,0,0,.06,0,.08a5.54,5.54,0,0,0,2.16-.1l0,.12a.52.52,0,0,1,.22,0s.14,0,.12.07l0,.22a6,6,0,0,0,0,1.46.19.19,0,0,1-.06-.12c.16,1.26-.31,3,.15,3.49l.12.83c0-1.08.2.16.27-.28,0,.42-.13,1.09-.16.57l0-.08c-.24-.19-.07,1.34-.23,1.31V82.2c0,.3,0,.52,0,.9l.07.79V84l0,.11a1.18,1.18,0,0,1,0,.19v.13a.46.46,0,0,0,0,.16.73.73,0,0,0,.09.23,1.3,1.3,0,0,0,.36.4,3.36,3.36,0,0,0,.43.31h1.53l-.23-.17h.69c.19,0,.25.14-.24.14a1.34,1.34,0,0,0,.84-.15c1,.05-.38.23-.08.22l.4,0-.09,0a2.59,2.59,0,0,1,.95-.17c.38,0,.19.11.34.11,0,0,.05,0,.23,0H282l-.35-.14c.39-.08.82,0,.42-.17a7,7,0,0,0,1.9.1l1.13,0c.44,0,.77,0,.92,0l.23,0a17,17,0,0,1-.06-1.94c0,.16-.19.26-.17-.31.33.21.14-1,.38-1.51-.16.41,0-1.63-.26-1,0-.47.12,0,.2-.39-.13-1.13.09-2.5,0-3.91,0,0-.11.22-.18-.09l.22-.74c0-.27-.25-.25-.1-.76,0,.07-.09.18-.1,0s0-.64.05-1l0-.55,2.82-.07a21.9,21.9,0,0,1,3.24.14c-.38-.08-.13-.09.16-.09-.19,0,0-.11,0-.17l1.17.15c.09-.09.41-.07.75-.13a1.41,1.41,0,0,0,.6-.15l.15,0v0h0l-.14,0-.32.07c.22-.12.06-.21-.18-.29s-.26-.08-.34-.12-.14-.11-.12-.17c-.55.22-1.46-.3-2.36,0-.2,0,.17-.08.06-.13a2.08,2.08,0,0,1-1,.09l.06,0c-1.44.05-2.06,0-3.68-.09l.12.11a5.51,5.51,0,0,1-.68-.07c-.31.1.13.09.39.09s.5,0,.32.11a1.48,1.48,0,0,0-.62-.1c-.35,0-.78,0-1.2,0,0,.44,0,.88,0,1.24a1,1,0,0,1-.13.57c0,.53.14-.16.14.37l-.08.15.1.13c0,.35-.11.53-.17.54s0-.24,0-.33a10.91,10.91,0,0,0,0,1.44l0-.51c.07,1.46,0,3.24.12,4.65l.06-.1c.1,1.08-.06.86,0,2l0,0a3.38,3.38,0,0,1,.08.88c-.07-.3-.13.56-.2.17a1.82,1.82,0,0,0,.11.67,1.32,1.32,0,0,1,.19.46h0l-.15-.06c-.11.09-.09.13-.58.17.41-.09-.3-.14.11-.25-1.15-.18-1.81.25-2.36,0-.57.28,1.07.12.76.18.27.08-.47.21-.86.19a7.65,7.65,0,0,0-1.68-.28l.21,0c-.38-.06-.73.1-1.19,0-.26.16-.6,0-.67.21l.92-.07a5.87,5.87,0,0,1-1.86.21,2.39,2.39,0,0,1,.49-.13c-.25,0-.47,0-.74,0,.07-.2,1.11-.07,1.67-.24-.27-.07-1.05.17-.78-.05-.39.28-1,0-1.64.22a.53.53,0,0,1,0-.12c-.06,0-.17.11-.25,0a.24.24,0,0,0,.18-.1c-.11.08-.18-.05-.23-.15-.13.11-.39.26-.45.23H277v-.25a1.41,1.41,0,0,0-.17-.6l.07.31v0l-.08-.31a1.4,1.4,0,0,1,.16.75.27.27,0,0,1,0,.11h-.05l0,0h-.06v0h-.36s.08,0,.26-.09a.56.56,0,0,1-.26.09h.31v-.12c0-.08,0-.16,0-.23a2.22,2.22,0,0,0-.11-.39l.05.2a2.44,2.44,0,0,1,.1-.63.92.92,0,0,0,0-.19V83s0,0,0,0a4.31,4.31,0,0,0,0-.65c0,.2-.06.77-.12.45a4.44,4.44,0,0,1,.12-.85c0-1-.12.15-.2-.27.15-.35-.06-.5-.11-.94h.12c.06-1.14-.26-.3-.17-1.33l.17.43-.05-.54.14.11a4,4,0,0,1-.05-1.33c-.09.13-.22-.08-.23-.59.07-.34.11.2.09-.52a.75.75,0,0,1,.07.65s.07.16.11.19a6,6,0,0,0,0-1.19,1.84,1.84,0,0,1,0,.28l-.18-1c.05-.17.08,0,.12.09,0-.21-.07-.35-.08-.66.09.08.2.06.25.5l-.12-1c0-.06.11-.51.15-.38a3.45,3.45,0,0,0,0-.45c0-.2,0-.26-.07-.64s-.05-.64-.07-.94V72.1c0-.07,0-.2-.07-.16l-.46,0a2.87,2.87,0,0,1-.48,0c-.65,0-.88,0-1.23-.08a4.75,4.75,0,0,0-1.11.05l-.45-.19c-.64,0,.62.23-.45.29-.75,0-.27-.16-.54-.21a3.76,3.76,0,0,1-1.71.11C270.39,71.9,270.57,71.92,270.79,71.91Zm-4.38-2.77c0,.15.1.46,0,.57C266.3,69.53,266.37,69.4,266.41,69.14Zm5.24-6.07a.91.91,0,0,1-.48,0A2.06,2.06,0,0,1,271.65,63.07Zm14.73-5.49v0C286.42,57.22,286.4,57.34,286.38,57.58Zm-.05.7c0,.07,0,.07.05,0a1,1,0,0,1,0-.39A.52.52,0,0,0,286.33,58.28ZM280.94,85.4l-.14,0C281.11,85.33,281,85.36,280.94,85.4Z"/><path class="cls-8" d="M270.3,63.24a.13.13,0,0,1-.06-.07C270.18,63.19,270.17,63.21,270.3,63.24Z"/><path class="cls-8" d="M276.1,71.92h0l.05,0Z"/><path class="cls-8" d="M282.7,50.82a.92.92,0,0,1-.28-.07S282.48,50.81,282.7,50.82Z"/><path class="cls-8" d="M286.56,61.87a.21.21,0,0,1,0-.08l0-.23a.93.93,0,0,1,0,.25s0,0,0,.06S286.55,61.83,286.56,61.87Z"/><path class="cls-8" d="M289,62.8c.07,0,.14,0,.21,0l0-.06C288.88,62.73,288.68,62.77,289,62.8Z"/><path class="cls-8" d="M286.16,62.22c-.07.05-.18.39.15.28h0C286.44,62.34,286.13,62.49,286.16,62.22Z"/><path class="cls-8" d="M286.36,62.5h.21C286.61,62.44,286.5,62.48,286.36,62.5Z"/><path class="cls-8" d="M286.4,59.17c0,.15.14.1.09.18C286.62,59.52,286.33,58.35,286.4,59.17Z"/><path class="cls-8" d="M285.82,62.69l.13-.21-.1-.09Z"/><path class="cls-8" d="M285.91,60.19l0,.51s0,.06.05.13A3.36,3.36,0,0,0,285.91,60.19Z"/><path class="cls-8" d="M285.92,60.83a2.31,2.31,0,0,0,0,.41C285.94,61.15,285.93,61,285.92,60.83Z"/><polygon class="cls-8" points="285.79 62.01 285.81 61.85 285.82 61.49 285.79 62.01"/><path class="cls-8" d="M285.91,54.76l0-.55c0-.05-.07.1-.05.3S285.87,54.85,285.91,54.76Z"/><path class="cls-8" d="M285.57,56.43a.5.5,0,0,1,.09-.24l-.15,0Z"/><path class="cls-8" d="M285.53,54.82s-.11-.8-.11-.1C285.46,54.78,285.5,55.33,285.53,54.82Z"/><polygon class="cls-8" points="281.86 50.38 282 50.38 281.98 50.13 281.86 50.38"/><path class="cls-8" d="M276.78,52.28c.07-.66-.15-.16-.07-.75-.06-.15-.07.48-.12.33C276.65,52.25,276.61,52.46,276.78,52.28Z"/><path class="cls-8" d="M276.59,51.86l0-.2A1.23,1.23,0,0,0,276.59,51.86Z"/><polygon class="cls-8" points="294.47 73.06 294.83 73.06 294.59 73.01 294.47 73.06"/><path class="cls-8" d="M295.27,72.72l.1.15a1.29,1.29,0,0,1,.16-.17A.78.78,0,0,1,295.27,72.72Z"/><path class="cls-8" d="M266.76,68l0,0a.79.79,0,0,0-.06.36Z"/><polygon class="cls-8" points="267.46 71.75 267.36 71.74 267.55 71.89 267.46 71.75"/><path class="cls-8" d="M272.26,71.62c-.2,0-.43,0-.62,0C272.06,71.61,272.31,71.8,272.26,71.62Z"/><path class="cls-8" d="M311.51,64.35c0-.28-.11-.17-.13-.21C311.43,64.61,311.54,64.34,311.51,64.35Z"/><polygon class="cls-8" points="311.48 68.99 311.45 68.9 311.47 69.6 311.48 68.99"/><path class="cls-8" d="M311,73.32l0,0a6.73,6.73,0,0,0,.26-1.63,6.26,6.26,0,0,1,0-.63l.05-.13-.12-.37c0,.35,0,.74,0,1.12-.06.6-.14,1.27-.22,1.64Z"/><path class="cls-8" d="M310.05,75.52c.05,0,0,.07,0,0a4.53,4.53,0,0,1,.1-.58l0,.09C310.13,75.18,310.1,75.3,310.05,75.52Z"/><path class="cls-8" d="M310.15,75.08c.11-.45-.12.29,0,0Z"/><path class="cls-8" d="M309.53,77l.16-.59c-.09.1-.29.61-.24.41C309.26,77.46,309.34,77.35,309.53,77Z"/><path class="cls-8" d="M309.45,77.63l.08-.31A.62.62,0,0,0,309.45,77.63Z"/><path class="cls-8" d="M309.72,76.67l-.19.65c.06-.07.12-.06.09-.29C309.65,77.1,309.65,77,309.72,76.67Z"/><path class="cls-8" d="M309.88,76.33c.16-.31.33-.72.18-.12a5.94,5.94,0,0,0,.18-.6s0-.12,0-.11-.05.08-.06.09A5,5,0,0,0,309.88,76.33Z"/><path class="cls-8" d="M311.1,73.58l.1-.26,0-.16v-.41a3.75,3.75,0,0,1-.09.56C311.11,73.45,311.07,73.59,311.1,73.58Z"/><path class="cls-8" d="M308,80.48s.18-.14.25-.16l.15-.43C308.32,80.09,308.11,80.48,308,80.48Z"/><path class="cls-8" d="M308.29,80.32l-.22.6h0C308.31,80.44,308.35,80.29,308.29,80.32Z"/><polygon class="cls-8" points="309.6 77.8 309.86 76.71 309.52 78.01 309.6 77.8"/><path class="cls-8" d="M306.9,82.61v0s0-.13,0-.22c0,.09-.08.23-.05.22v0l0,.08-.09.18Z"/><path class="cls-8" d="M305.85,84c.12-.27-.34.23-.19,0l-.1.14a7.15,7.15,0,0,0-.52,1,5.48,5.48,0,0,1,.64-1Z"/><path class="cls-8" d="M304.86,85.56s0,0,0,0a1.36,1.36,0,0,1,.06-.16c0-.08.06-.16.1-.25l-.11.24a.85.85,0,0,0-.06.17S304.89,85.51,304.86,85.56Z"/><path class="cls-8" d="M307.47,81.92a1.3,1.3,0,0,0-.34.44l.22-.2Z"/><path class="cls-8" d="M307.35,82.15h0c-.13.26-.23.44-.27.51S307.2,82.45,307.35,82.15Z"/><path class="cls-8" d="M307.51,81.86l0,.06A.13.13,0,0,0,307.51,81.86Z"/><path class="cls-8" d="M308.9,79.42h0c-.1.34-.4,1.14,0,.44.05-.27-.18.08,0-.44Z"/><path class="cls-8" d="M307.79,81.63l.39-.61s-.12.06-.07-.08Z"/><polygon class="cls-8" points="307.64 81.96 307.79 81.63 307.65 81.86 307.64 81.96"/><path class="cls-8" d="M305.54,84.65c-.14.28-.32.59-.5.93.21-.35.46-.72.69-1.06C305.74,84.46,305.79,84.27,305.54,84.65Z"/><path class="cls-8" d="M306.51,83.39l0,.06S306.53,83.4,306.51,83.39Z"/><polygon class="cls-8" points="302.4 88.06 302.46 88.03 302.45 88.01 302.4 88.06"/><path class="cls-8" d="M305.79,84.48l.12-.17a2.52,2.52,0,0,0,.28-.43c-.1.13-.2.26-.3.41l-.16.23S305.74,84.56,305.79,84.48Z"/><path class="cls-8" d="M304.23,86.33l.3-.24.08-.07a.4.4,0,0,0-.09.07A.94.94,0,0,0,304.23,86.33Z"/><path class="cls-8" d="M306.39,83.51l0,0C306.33,83.54,306.35,83.54,306.39,83.51Z"/><path class="cls-8" d="M306.39,83.51a2.8,2.8,0,0,0-.2.37l.29-.43Z"/><path class="cls-8" d="M302.05,89.34s.07-.16.2-.3a4.82,4.82,0,0,1,.75-.76l.14-.08c.43-.42.09-.48-.47-.29l-.21.12s0,.07-.42.62c.13-.09.5-.4.75-.6s.29-.13.11,0l0,0a2.59,2.59,0,0,1-.8.7l-.1.06c.38-.15-.79.91-.53.91.21-.18.41-.38.6-.57C302.06,89.24,301.86,89.47,302.05,89.34Z"/><path class="cls-8" d="M303.58,87.14l.13-.11,0,0,0,0a7.84,7.84,0,0,1-.79.44l-.34.34c-.14.17-.11.17-.13.21l.17-.16,1-.78Z"/><path class="cls-8" d="M304.63,86.09a.45.45,0,0,0,0,.08c-.11.23-.46.65-.11.44a2,2,0,0,0,.27-.29c.21-.28.14-.29.35-.6-.86,1.06.22-.34-.47.37l.37-.48,0,0,0,0-.41.41,0,0h0c.05,0,.07,0,0,0l0,0a.17.17,0,0,1,0,.07.17.17,0,0,1-.05,0c-.1.08-.06,0,0,0l.08-.11v0h0l-.08.11-.81.89c.2-.18.46-.45.85-.85Z"/><path class="cls-8" d="M308.82,80.64s0,0,0,0S308.75,80.79,308.82,80.64Z"/><path class="cls-8" d="M308.52,81.13a1.57,1.57,0,0,1,.17-.48c.16-.25.05,0,.09,0,.06-.19.22-.66-.09-.12l0,.1c-.08.14-.18.31-.27.44-.23.3-.47.56-.44.49a2.24,2.24,0,0,0,.55-.43Z"/><path class="cls-8" d="M306.65,83.71l-.53.75-.13.23.18-.2.25-.24h-.06C306.78,83.74,306.64,83.81,306.65,83.71Z"/><polygon class="cls-8" points="302.27 88.11 302.3 87.92 301.94 88.51 302.27 88.11"/><polygon class="cls-8" points="301.22 89.09 301.2 88.98 300.92 89.27 301.22 89.09"/><path class="cls-8" d="M253.69,51.88l.16-.3Z"/><path class="cls-8" d="M252.58,54.2l0,.07C252.62,54.16,252.62,54.11,252.58,54.2Z"/><path class="cls-8" d="M267.46,92.65c-.4-.31-.85-.69-.84-.56l.09.17A4.62,4.62,0,0,1,267.46,92.65Z"/><path class="cls-8" d="M251.79,74.14v.15l.17.3Z"/><path class="cls-8" d="M251.28,73.89l-.06-.66A5.41,5.41,0,0,0,251.28,73.89Z"/><path class="cls-8" d="M261.79,41.21l.2-.35C261.55,41.3,261.79,41.14,261.79,41.21Z"/><path class="cls-8" d="M288,95.9c-.43,0-.77,0-1.06.08C287.43,96,287.85,96,288,95.9Z"/><path class="cls-8" d="M254.18,53.26v0c0-.07.1-.22.06-.2l-.07.14a.13.13,0,0,0,0,0S254.17,53.26,254.18,53.26Z"/><path class="cls-8" d="M285.77,96.06l.23,0,.35,0,.56-.09a4.32,4.32,0,0,0-.56,0A3.24,3.24,0,0,0,285.77,96.06Z"/><path class="cls-8" d="M306.23,46.88l.06.09S306.28,46.93,306.23,46.88Z"/><path class="cls-8" d="M311.15,60.1c0-.12-.06-.29-.1-.48v0A3.65,3.65,0,0,0,311.15,60.1Z"/><path class="cls-8" d="M296.34,92.43c.28-.17,0,0,0,0Z"/><path class="cls-8" d="M297.88,92.05c-.05,0-.08.08-.08.11A.26.26,0,0,1,297.88,92.05Z"/><path class="cls-8" d="M282.61,96.62h0C282.67,96.65,282.66,96.64,282.61,96.62Z"/><path class="cls-8" d="M296.79,92.24l-.38.17Z"/><path class="cls-8" d="M296.7,92.22l.25-.12S296.94,92.07,296.7,92.22Z"/><path class="cls-8" d="M296,92.65l.46-.24-.07,0Z"/><path class="cls-8" d="M283.49,35.1h.07C283.88,35.09,283.74,35.09,283.49,35.1Z"/><polygon class="cls-8" points="260.08 88.84 260.11 88.86 260.07 88.83 260.08 88.84"/><path class="cls-8" d="M259.18,88.11a3.61,3.61,0,0,1,.89.72l-.07-.48C259.72,88.28,259.46,88.19,259.18,88.11Z"/><path class="cls-8" d="M256.63,46.75l-.34.35-.23.29a2.52,2.52,0,0,1,.16-.34c.41-.73.68-1,.2-.6.05.09,0,.26-.23.58-.46.85-1.42,2.17-1.26,2.39l-.22.27a1.66,1.66,0,0,1-.14.23c.05-.1.05-.12.11-.25l.07-.13-.09.12a1.63,1.63,0,0,0-.3.86,2.73,2.73,0,0,1-.34,1.06h0c-.23.31-.46.58-.32.29l-.47.88,0,.13c-.11.27-.16.23,0-.13l-.55,1.53v0c0,.23-.14.73-.18,1s0-.2,0-.12l-.2.85c-.2.31,0-.4.16-1-.53.61-.22.66-.74,1.91a4.6,4.6,0,0,1-.14.51l.08-.52.11-.38a1.33,1.33,0,0,0-.22.35c-.08.29-.12.41-.18.65s-.12.51-.18.67c0,0-.09.21-.14.31a2.94,2.94,0,0,1,.18-.3c.17-.38.46-1.12.39-.4a3.23,3.23,0,0,0-.11.47c0,.1-.09.34-.13.56-.11,0-.24.45-.42,1l-.14-.09a5,5,0,0,0-.11.56,1.47,1.47,0,0,0,0,.31c0,.08,0,.16,0,.28a1.64,1.64,0,0,1-.37,1c-.21,1.17.33-.79.14.61a8.3,8.3,0,0,0-.17.94c0,.69.05,1.2.12,2s-.1-.12-.14.13.08.41.11.61-.05.1-.07.08c0,.52.16,0,.15.86,0,0,0,.08,0,.2,0,.29,0,.68,0,1.22a4.69,4.69,0,0,0,.25,1.35c0,.07,0,.07,0,.07h0s-.1-.15-.14-.08,0,.11,0,.1c.09.53.14.8.18,1,.11.4.18.58.39,1.18l.1,1c0-.72.29.15.57.91,0-.26,0-.49,0-.63l.31,1.13,0,.07c0,.13,0,.07-.14,0l0-.08,0,.08.07.12c.11.45-.06.27-.26,0v-.48c-.16-.29-.33-.56-.4-.48a3.48,3.48,0,0,1,.12.4c0-.07-.07-.12-.08-.08a1.16,1.16,0,0,0,.14.37,1.08,1.08,0,0,0-.1.33v0a.3.3,0,0,0,.1.07l.31,1,.11.58.56,1.22a21.32,21.32,0,0,1,1.68,2.38c-.34-.35-.24,0-.39.06a15.44,15.44,0,0,0-1.23-2.12c.24.46.12.39,0,.29l1,1.46c-.13,0,.1.37.27.8,0-.42.78,1.06,1.17,1.66-.06.08-.21,0-.6-.81.28.94.84,1,1.13,1.88-.1-.19-.14-.3-.22-.35a5,5,0,0,1,.46.81c.28.36.41.57.29.49l-.14-.16a30.74,30.74,0,0,0,2.94,3.26c.08.06.11.07.15.07a.3.3,0,0,1-.23,0,.59.59,0,0,1-.2,0,.41.41,0,0,1,.12.09A21.62,21.62,0,0,0,261,88.69c-.29,0,.06.87-.89.17a8.39,8.39,0,0,0,1.1,1c-.15-.18-.25-.58,0-.38a14.79,14.79,0,0,0,1,1.34c-.16-.18,0-.23.21-.12a1.67,1.67,0,0,1,.51.21c-.1,0-.11.27-.29.19.18.06.41.15.56.19l.67.33c-.27-.15-.23.09,0,.39l.05,0a7.68,7.68,0,0,1,1.06.55l.27.17-.25-.21-.18-.13.19.11a4.49,4.49,0,0,0,1,.47,4.83,4.83,0,0,1,1.64.57c-.19,0-.57.1.09.5.16,0,.45,0,.87.12a8.34,8.34,0,0,1,2.14.28l.21.17,1,.29c-.68,0-2.45-.23-3.49-.42l-.06,0,.05,0a3.7,3.7,0,0,0,.91.43c.26.18-.47-.06-.71-.14l1.85.75c0-.19,1.47.39,1.46.24l-2.09-.62c0-.17,1.06,0,2.24.38l.45.11c.33.14-.33.23-.31.29a4.77,4.77,0,0,1,1.41.29l-.58-.08a3.89,3.89,0,0,0,.88.21,4.12,4.12,0,0,1,1.31.28l.26.08c.45.06.8.18.87.09-.53-.19-.64-.78-.28-.92l1.56.18c.25.07.43.13.53.17.51.23-.85.24-.42.43a1.36,1.36,0,0,1,.45,0c.34.09-.16.12.58.21a.88.88,0,0,1,.48,0c.35,0,.62.07,0,0l-.12,0h.12c.66,0,.72.11,1.54.12-.22-.09.49-.3,1.16-.39h.36c-.05,0,.11.11.19.14l1.37.15c.76,0,1.41.06,2.31.06l.12,0c.24,0,.65,0,.43.09a4.32,4.32,0,0,1,.79-.21c.85,0-.94.16-.29.24a2.77,2.77,0,0,1,.86-.25l.82-.3a1.92,1.92,0,0,0-.84.17c-.42.08-.86.19-1.16.26,0-.13.41-.34,1.1-.54a11.82,11.82,0,0,1,1.23-.5c1.1-.36.53,0,.71-.09,2.07-.65,1.64-.89,3.35-1.41.71-.15.13.23.31.26a13.12,13.12,0,0,1-2,.67l.76-.2a6,6,0,0,1-1.19.45,18,18,0,0,0,3-1.07c.68-.39,1.35-.77,1.88-1,.24-.18.67-.47.43-.4l-.46.27c-.48.14.8-.61.19-.33.38-.26.8-.57,1.26-.85a8.74,8.74,0,0,1,.81-.54l.24,0a2.64,2.64,0,0,0-.8.48,4.88,4.88,0,0,1,.82-.49,3.56,3.56,0,0,0,.6-.49.74.74,0,0,0,.2-.19l-.26.11-.4.26.33-.36.77-.59a4.75,4.75,0,0,1,.76-.69c-.41.13-.14.14-.75.43.19-.08,0,.09-.06.19l-.83.51c-.33.28-.4.37-.11.24a3,3,0,0,0-.49.27,11.18,11.18,0,0,1-1,.53l-.15,0c.05,0,.31-.06-.36.28a.65.65,0,0,1-.12.11l0,0,0,0s0,0,0,0a1.46,1.46,0,0,1,.37-.12c-.27.28-1.32.84-1.63,1.11s.13-.15-.1-.07l-.47.38c-.11-.06-1.11.44-.25-.15l-.73.43h0a12.48,12.48,0,0,0-1.64.62c-.4.13-1,.48-.65.28l-1.36.52,0,0-2.31.73a15.41,15.41,0,0,1-1.68.2l-.36,0a16.39,16.39,0,0,1-1.81,0L284,96h0c-.21,0-.63-.06-1-.1a7.32,7.32,0,0,0-1-.09.38.38,0,0,0-.2,0,14.35,14.35,0,0,0-2.41-.2l-.86-.11-.77-.12-.09.12h-1l-1,0-.28,0,0,.12a8.59,8.59,0,0,1-1.21-.26,14.27,14.27,0,0,0-1.88-.57l-.09,0,.1,0a2.35,2.35,0,0,1,.45.12l-.44-.16c-1-.52-2.49-.79-3.47-1.22l-.28-.2a3.15,3.15,0,0,1-.74-.41l.08,0-.13-.07-.39-.29a2.39,2.39,0,0,0,.33.25,9.37,9.37,0,0,0-1-.46l-.1-.18-.09,0-.1-.07c-.11-.07-.12,0-.07.12v0h0a3.89,3.89,0,0,0-.42-.19,1.22,1.22,0,0,0-.49-.4,1.94,1.94,0,0,1-.75-.48,2.34,2.34,0,0,1-.3-.11c-.05,0-.22-.14-.35-.22l-.43-.3a1.91,1.91,0,0,0-.88-.32s-.07-.09.09,0l-.1-.07a5.7,5.7,0,0,0-.82-.73l0-.25c-.28-.17-.58-.32-.86-.49-.38-.46-.52-.66,0-.36-1.14-.76-.91-.73-1.77-1.36l-.07,0,.12,0a8,8,0,0,1-.93-1,25.35,25.35,0,0,0-2-2.54c-.56-1.09-1.25-2.45-1.74-3.49,0,.56-.43-1.08-.68-1.05,0-.16-.15-.48.1-.16a8,8,0,0,1-.44-.75l-.29-.56-.06-.21c0-.1-.05-.19-.08-.28a3.77,3.77,0,0,0-.24-.56c0-.15.17.24.18.1a1.34,1.34,0,0,1-.16-.5c0-.14.1.16.18.34a6.62,6.62,0,0,0-.23-.71c-.32-.62-.48-.61-.66-.63l-.08-.33a2.62,2.62,0,0,0-.3-1c0-.23,0-.61.19.16a15.54,15.54,0,0,0-.62-2.71V71a3.92,3.92,0,0,0-.07-.65c0-.16,0-.29,0-.35l-.24-1.41s0-.16,0-.3v.28a2.28,2.28,0,0,1-.15-1.11c0-.12,0-.3,0-.47l0,0c.25-1.83,0-.79.15-2.6l-.12.1c-.12-.07-.09-.45,0-.87a8.46,8.46,0,0,0,.36-1.72l-.12.37a5.69,5.69,0,0,1,.51-1.65,1.33,1.33,0,0,0,.18-.34c.06-.12,0,.22-.06.35.59-1.34-.09-.22.21-1.29.15-.17.13.32.37-.39a2.46,2.46,0,0,0,.12-.35c0-.25,0-.4.06-.65s.05-.47.07-.71a6.6,6.6,0,0,1,.49-1.4c-.13.19-.27.38-.15-.12a22.07,22.07,0,0,0,1-2.51.31.31,0,0,0,0-.07c.07-.08.1-.1.12-.09.14-.26.35-.64.57-1a8.49,8.49,0,0,0,.4-1.2,1.7,1.7,0,0,0,.45-.63c.57-.85,1.31-2.51,1.56-2.47h0l1.09-1.51v.06l.29-.39c.12-.11.33-.31.44-.43l.33-.38a3.32,3.32,0,0,0,.19-.37c.19-.2.1,0,.1,0l.33-.39a17.08,17.08,0,0,0,1.54-1.75s.18-.13.32-.23l.2,0,.18-.1c.14-.15.26-.26.42-.41l.53-.47.23-.11.31-.15.62-.33c.43-.22.85-.48,1.24-.72,0,0,0,.06-.14.13a18.13,18.13,0,0,1,2.3-1.1,13.14,13.14,0,0,0,2-.89,1.66,1.66,0,0,0,.45-.29l1.21-.46h0c-1.62.42.18-.26-.5-.14l.4-.11c.54-.22,1.06-.34.49-.06l-.13,0c-.08.16.38,0,.83-.22s1.11-.36,1.1-.27l1.14-.38c1.07-.16,2.34-.34,3.36-.52l2,.13,2.76,0-.35-.17H283l.51,0c.27.06.36.17-.39.1a2.9,2.9,0,0,0,1.29,0c1.48.2-.6.17-.14.21l.62,0-.14,0,.24,0a4.9,4.9,0,0,1,.9-.1l.29,0c.56.14.27.16.49.21,0,0,.07,0,.34.06l.31.06.95.25-.48-.27c.59.07,1.22.31.66,0a7.64,7.64,0,0,0,1.61.53l.73.33c1,.32,1.91.64,2.41.83a2.83,2.83,0,0,1,.35.2,13.79,13.79,0,0,1,2.38,1.18c-.21-.15-.26-.36.5.07-.29.09.38.43,1,.79a4,4,0,0,1,.8.68c-.44-.48,2.11,1.31,1.4.58l.17.13c.22.22-.16,0,.16.37.48.33,1,.74,1.47,1.14l1.67,1.69c.3.39.69.85,1.05,1.27,0,0-.12-.32.22,0l.56,1c.29.32.44.14.83.83,0-.11-.11-.27.08-.06l.74.94.54.81.5,1,.58.83c.25.51.58,1.09.83,1.65l.75,1.7c.29,1,.59,2,.84,3l.12.76.18.82c-.09-.58,0-.21.17.21-.07-.28.1,0,.14-.1l0,.1.17,1.66a1.08,1.08,0,0,1,.16.41c.07.37.13,1,.19,1.3a1,1,0,0,0,.07.28v-.29l0-.23c.28.72.28-1.1.53-1a1.55,1.55,0,0,1,0-.15,12.77,12.77,0,0,1-.3-2.14,5.72,5.72,0,0,0-.38-1.08.89.89,0,0,1-.08-.17c0-.31.13.23.15.06a2.2,2.2,0,0,1-.24-.64,8.67,8.67,0,0,1-.26-.87l.05.07c-.29-.89-.46-1.54-.66-2.26-.38-.93-.64-1.78-1.28-3.09l0,.22a6.13,6.13,0,0,1-.26-.65l-.13-.24c-.19-.15-.12,0,.07.28s.48.94.23.71a3,3,0,0,0-.24-.71c-.18-.29-.38-.58-.56-.84s-.34-.69-.49-1-.42-.63-.58-.91a1,1,0,0,1-.18-.36c-.53-.63.05.27-.48-.35l-.08-.22-.21-.1c-.33-.42-.43-.68-.4-.74.08.11.25.27.35.38-.38-.59-1.28-1.49-1.41-1.69l.46.63c-.47-.53-.93-1.07-1.46-1.71l-1.8-1.7c-.65-.52-1.21-.95-1.83-1.39l-.22-.13.11.14c-1.32-.74-1.11-.76-2.29-1.5l-.39-.19.07,0a7.91,7.91,0,0,1-1.22-.56c.43.16-.7-.51-.14-.29a6.38,6.38,0,0,0-2-.74l-.2-.2a5.26,5.26,0,0,1-.53-.15c-.19,0-.39-.1-.8-.23.73.17-.5-.33.32-.15a9.4,9.4,0,0,0-1.87-.67l-.38-.14-.4-.16a2.34,2.34,0,0,1-.86-.31c-.58,0,.25.24.83.38.32.14.43.19.29.14.16.12,0,.1-.33,0a7.56,7.56,0,0,1-1-.19c-.48-.12-.77-.42-1.7-.73a6.62,6.62,0,0,0-.75-.15l.31,0a9.36,9.36,0,0,0-1.11-.17,3.88,3.88,0,0,1-.77,0l-.17,0c-.32,0-.72-.09-.83.07l.82,0,.55,0-.55.06a9.84,9.84,0,0,1-2,0l-.28,0a1.89,1.89,0,0,1,.28-.06l.51,0A2.54,2.54,0,0,0,283,35a3,3,0,0,1-.67,0c.06-.07.27-.1.67-.13a14.36,14.36,0,0,0,1.93.08c-.4-.12-1.61,0-1.17-.17a1.81,1.81,0,0,1-.76.06,9,9,0,0,0-1.83.1l.06-.12a5.74,5.74,0,0,1-.8.1l.54-.17a4,4,0,0,1-.9.05,9.92,9.92,0,0,0-1.47-.13c1.68.07.37.16,1.08.27a4.67,4.67,0,0,1-1.66-.14,6.84,6.84,0,0,0-2,.17c.31-.06,1.17-.13.7,0a8,8,0,0,1-1.29.08c-1.51.27.25.08-.38.26a1.45,1.45,0,0,0-.58.05c-.31.14-.45.28-.85.44l0-.12c-1.42.41-.69.4-1.36.64l-.54.23c.16-.13.27-.23.48-.38l.11-.06-.12,0-.66.34.09-.19-.52.3a11.22,11.22,0,0,1-1.31.36c.16,0,.08.14-.38.31a4.64,4.64,0,0,1-.44.23c-.52.16.22-.23-.78.25a1.75,1.75,0,0,1,.89-.47,1.17,1.17,0,0,1,.25-.23l0,0h0a14.39,14.39,0,0,0-1.7.77l.41-.16c-.46.28-.92.54-1.38.84-.24.07-.08-.05.08-.18-.28.16-.46.31-.88.54.06-.15,0-.22.58-.57l-1.32.79c-.12,0-.75.27-.59.14a6.56,6.56,0,0,0-.89.52l-.49.33-.26.16-.34.21-.4.43-.35.33s-.12.16-.13.19l0,0-.66.3-.93.87a10.23,10.23,0,0,0-.85,1l-.09.13-.57.45s0,0,0,0,0,0,0,.07,0,0,0,0,.11,0,.13,0a.12.12,0,0,0,.08,0s0,.05,0,.09a2.6,2.6,0,0,1-.35.37,3.49,3.49,0,0,1-.46.41c-.26.29-.13-.1-.35.14a9.55,9.55,0,0,1-1.14,1.83,4.4,4.4,0,0,1-.31.41c.09-.17.15-.28.26-.45Zm-5.14,11a3.36,3.36,0,0,1,.12-.86l0-.07v.08A1.67,1.67,0,0,1,251.49,57.79Zm.62,18.09v0a2.52,2.52,0,0,1-.22-.66,4.92,4.92,0,0,1,.23.65Zm41.28,18.26h0C292.88,94.31,293.06,94.25,293.39,94.14Zm.93-.37c.08-.07.07-.08,0-.07a1.25,1.25,0,0,1-.26.19l-.18.07a.72.72,0,0,0,.19,0Zm-7.55-57.59-.2-.06C287,36.16,286.9,36.17,286.77,36.18Z"/><path class="cls-8" d="M251.34,73.92a.16.16,0,0,1,0-.11C251.35,73.73,251.32,73.73,251.34,73.92Z"/><path class="cls-8" d="M261.75,41.28l0,0a.11.11,0,0,0,0,0Z"/><path class="cls-8" d="M278.25,96.8a2,2,0,0,1-.41-.13S277.92,96.74,278.25,96.8Z"/><path class="cls-8" d="M299,90.61l-.55.52a3,3,0,0,1,.5-.38s-.06,0-.08,0S298.83,90.75,299,90.61Z"/><path class="cls-8" d="M304.08,87.48l0,0c.06-.07.14-.14.19-.21l-.05,0-.19.19C303.86,87.58,303.8,87.67,304.08,87.48Z"/><path class="cls-8" d="M299.79,90.6s.19,0,.3-.1l.46-.43-.07.06c0-.17-.23.06-.44.29Z"/><path class="cls-8" d="M300.63,90a3.17,3.17,0,0,1,.35-.29C301,89.64,300.82,89.81,300.63,90Z"/><path class="cls-8" d="M295.47,93c.21-.1.06-.19.19-.22C295.82,92.56,294.41,93.72,295.47,93Z"/><polygon class="cls-8" points="300.3 90.67 300.23 90.68 300.09 90.66 299.91 90.89 300.25 90.71 300.3 90.67"/><path class="cls-8" d="M297.08,92.69l.69-.34s0,0,0,0a.39.39,0,0,1,.13-.11l-.14.08A3.82,3.82,0,0,0,297.08,92.69Z"/><path class="cls-8" d="M297.92,92.21a4.65,4.65,0,0,0,.5-.37C298.31,91.92,298.07,92.08,297.92,92.21Z"/><polygon class="cls-8" points="299.42 91.26 299.23 91.39 298.83 91.72 298.81 91.73 298.83 91.72 299.42 91.26"/><path class="cls-8" d="M289.51,96l-.8.26c-.07.07.16,0,.45-.07S289.65,96,289.51,96Z"/><path class="cls-8" d="M292.05,95.52a1.16,1.16,0,0,1-.39,0l0,.16Z"/><path class="cls-8" d="M289.71,96.31c-.07.06-1.15.45-.12.15C289.66,96.4,290.47,96.13,289.71,96.31Z"/><polygon class="cls-8" points="277.03 96.29 277.25 96.28 277.21 96.03 277.03 96.29"/><path class="cls-8" d="M266.18,93.46c.85.5.28,0,1,.45.24.06-.61-.41-.38-.34C266.27,93.36,266,93.19,266.18,93.46Z"/><path class="cls-8" d="M266.83,93.57l.29.11Z"/><path class="cls-8" d="M311.42,62.4l0,.56v0a2.36,2.36,0,0,0,0-.34Z"/><path class="cls-8" d="M311.68,63.55l-.16.16.14.38A2.37,2.37,0,0,1,311.68,63.55Z"/><path class="cls-8" d="M250.72,59.34l0,.06a1.86,1.86,0,0,0,.22-.51Z"/><polygon class="cls-8" points="253.9 51.18 253.84 51.32 254.08 51.12 253.9 51.18"/><path class="cls-8" d="M257.87,44.66l-.29.27-.24.35-.19.25.22-.28.25-.28.27-.22S257.93,44.68,257.87,44.66Z"/></g></g></svg>