<svg xmlns="http://www.w3.org/2000/svg" viewBox="0 0 63.89 64.04"><defs><style>.cls-1{fill:#d65528;}.cls-2{fill:#f6921e;}</style></defs><g id="Layer_2" data-name="Layer 2"><g id="Layer_1-2" data-name="Layer 1"><path class="cls-1" d="M61.34,31.41V30.24l-.17-1.33-.42-2.09-.33-1.09L60.25,25l-.41-1.33L59.33,22l-.83-1.92-.75-1.5-.58-.84-.51-1-.58-.83L54.74,14.3l-2.08-2.5-1.75-1.67L49.15,8.71l-2.33-1.5-1.76-.92-1.33-.75L42.56,5l-1.17-.41-1.25-.42-.75-.33-1.08-.25-1.67-.42-1.51-.25h-.91l-2-.17-2.92.08-2-.08L26,3l-2.08.34L21.61,4l-1.08.5L18.78,5,16.44,6.12l-2,1L12.18,8.38l-.91.91-.67.34-.84.83-.83.92-.58.75-.84.75L6.09,14.8,4.51,17.31l-.84,1.83-.75,1.17-.83,2.17L1.42,24.4l-.25,1.33L.5,27.82l-.17,1.5L.08,30.91v2.42L0,34.75l.08,1.17.25,1.41.09,1L.75,40l.42,2,.41,1.08.51,1.84,1.08,1.92,1,1.83,1.17,2.26,3,3.59.91.91,1.42,1.26,1.17,1.08.83.5.76.58,1.08.59.92.58.83.42,1.67.92,2,.75,1.51.58,1.08.25.84.25,1.5.34H27l1.66.25,1.26.08h1.41l1.92.17h2.42l1.76-.25,2.08-.59,1.76-.58.91-.33,1.42-.59,1.84-1.08,1.67-.92,1-.67.58-.5.84-.5.67-.58.75-.59.58-.5.75-.75,1.09-.83.91-.92.5-.59.34-.58.5-.75.58-.75.67-.84.42-.83.58-1,.75-1.59.67-1.83.75-2,.34-1.42.25-1L60.84,39l.08-1.33.17-1.34.16-2.17.17-1.42ZM44.76,39.58a1.51,1.51,0,0,0-.56.11,5.65,5.65,0,0,0-.9.12c-.79,0-4.86.11-8.24.11V52.11l-8.92.22s-.56-.34-.56-.56a1.58,1.58,0,0,0-.11-.57,5.85,5.85,0,0,0-.12-.9c0-.79-.11-6.2-.11-10.38-3.72-.11-8.12-.11-9.25-.11-.9,0-.9-1.13-.9-1.7v-.56l.11-7.11.34-.45c1.24.23,6.2.11,9.7.11,0-4.4.11-10.38.11-11.62,0-.9,1.13-.9,1.7-.9h.56l7.11.11.45.34c-.22,1.35-.11,8.24-.11,12.07h10L45.33,39S45,39.58,44.76,39.58Z"/><path class="cls-2" d="M63.81,28.71V27.54l-.17-1.34-.41-2.08L62.89,23l-.16-.75L62.31,21l-.5-1.67L61,17.36l-.75-1.5L59.64,15l-.5-1-.59-.84L57.22,11.6,55.13,9.1,53.38,7.43,51.63,6l-2.34-1.5-1.75-.92L46.2,2.84,45,2.25l-1.16-.41-1.26-.42-.75-.34L40.78.83,39.11.42,37.61.17h-.92l-2-.17L31.77.08l-2-.08L28.43.25,26.34.58l-2.25.75L23,1.84l-1.75.5L18.91,3.42l-2,1L14.66,5.67l-.92.92-.67.34-.83.83-.84.92-.58.75-.84.75L8.57,12.1,7,14.6l-.84,1.84-.75,1.17-.83,2.17L3.89,21.7,3.64,23,3,25.12l-.16,1.5-.25,1.59v2.42l-.09,1.42.09,1.16.25,1.42.08,1,.33,1.67.42,2,.42,1.08.5,1.84,1.08,1.92,1,1.83,1.16,2.26,3,3.58.92.92L13.16,54l1.16,1.09.84.5.75.58,1.08.59.92.58.84.42,1.67.92,2,.75,1.5.58,1.09.25.83.25,1.5.34h2.09l1.67.25,1.25.08h1.42l1.92.17h2.42l1.75-.25L42,60.5l1.75-.58.92-.34L46,59l1.83-1.08L49.54,57l1-.67.59-.5.83-.5.67-.59.75-.58.58-.5.75-.75,1.09-.84.92-.91.5-.59.33-.58.5-.75.59-.75.66-.84.42-.83.59-1,.75-1.59.66-1.84.76-2L62.81,39l.25-1,.25-1.67L63.39,35l.17-1.34.17-2.17L63.89,30ZM47.24,36.88a1.58,1.58,0,0,0-.57.11,5.65,5.65,0,0,0-.9.12c-.79,0-4.85.11-8.24.11V49.41l-8.91.22s-.57-.34-.57-.56a1.58,1.58,0,0,0-.11-.57,6.13,6.13,0,0,0-.11-.9c0-.79-.12-6.21-.12-10.38-3.72-.11-8.12-.11-9.25-.11-.9,0-.9-1.13-.9-1.7v-.56l.11-7.11.34-.45c1.24.22,6.21.11,9.7.11,0-4.4.12-10.38.12-11.62,0-.9,1.13-.9,1.69-.9h.56l7.11.11.45.34c-.22,1.35-.11,8.24-.11,12.07h10l.23,8.92S47.46,36.88,47.24,36.88Z"/></g></g></svg>