<svg xmlns="http://www.w3.org/2000/svg" viewBox="0 0 63.82 62.83"><defs><style>.cls-1{fill:#772001;}.cls-2{fill:#759d59;}</style></defs><g id="Layer_2" data-name="Layer 2"><g id="Layer_1-2" data-name="Layer 1"><path class="cls-1" d="M61.34,30.2V29l-.17-1.34-.42-2.08-.33-1.09-.17-.75-.41-1.34-.51-1.66-.83-1.92-.75-1.51-.58-.83-.51-1-.58-.84-1.34-1.58-2.08-2.51L50.91,8.92,49.15,7.5,46.82,6l-1.76-.91-1.33-.75-1.17-.59-1.17-.42-1.25-.41-.75-.34-1.08-.25L36.64,1.9l-1.51-.25h-.91l-2-.16-2.92.08-2-.08L26,1.74l-2.08.33-2.26.75-1.08.5-1.75.5L16.44,4.91l-2,1L12.18,7.16l-.91.92-.67.33-.84.84-.83.92-.58.75-.84.75L6.09,13.59l-1.58,2.5-.84,1.84L2.92,19.1l-.83,2.17-.67,1.92-.25,1.33L.5,26.61l-.17,1.5L.08,29.69v2.42L0,33.53.08,34.7l.25,1.42.09,1,.33,1.67.42,2,.41,1.09.51,1.83,1.08,1.92,1,1.84,1.17,2.25,3,3.59.91.92,1.42,1.25,1.17,1.09.83.5.76.58,1.08.59.92.58.83.42,1.67.91,2,.76,1.51.58,1.08.25.84.25,1.5.34H27l1.66.25,1.26.08h1.41l1.92.17h2.42l1.76-.25L39.47,62l1.76-.58.91-.34,1.42-.58L45.4,59.4l1.67-.91,1-.67.58-.5.84-.5.67-.59.75-.58.58-.5.75-.75,1.09-.84.91-.92.5-.58.34-.58.5-.75.58-.76.67-.83.42-.84.58-1,.75-1.58.67-1.84.75-2,.34-1.42.25-1,.25-1.67.08-1.34.17-1.33L61.25,33l.17-1.42ZM49.41,32.53l0,0v0l-.11.11a1.11,1.11,0,0,0-.18.32,6.09,6.09,0,0,0-.56.72l-.6.61-1.09,1.12c-.43.53-.92.7-1.44,1.48s-1.07,1.6-1.64,1.68c-.56.41-1.14,1.53-1.69,1.72h0c-.18.41-.36.51-.53.53-.09-.54-.18.47-.27.27h0a2.71,2.71,0,0,1-1.44,1.43l-1.48,1.47-5.84,5.77a6,6,0,0,0-2.11,0c-.71-.18-1.43.09-2.16,0-.72.48-1.45-.15-2.18,0-.36-.09-.72.5-1.08.09a1.34,1.34,0,0,1-1.07-.09,3.91,3.91,0,0,0-1.06.21c-.36-.43-.7-.27-1.05-.22h0c-.12-.44-.25.24-.38,0-.25,0-.5-.46-.75,0h0c-.28.44-.56-.18-.85,0-.28-.26-.56,0-.84,0,0-.17.07-.89.07-.46.18.35.43-.65.74-.67.3-.43.66-.21,1.06-1a9.63,9.63,0,0,1,1.34-1.29c.48-.68,1-.67,1.54-1.53l.84-.84a1.8,1.8,0,0,0,.87-.86,5.74,5.74,0,0,1,1.5-1.5c.51-.46,1-1.45,1.54-1.54A8,8,0,0,1,30,38.54,3,3,0,0,1,31.52,37L33,35.56l1.36-1.36h0l2-2L34.3,30.11h0L33,28.75,31.5,27.29A3,3,0,0,1,30,25.77a8.28,8.28,0,0,1-1.54-1.54c-.51-.1-1-1.09-1.54-1.55a5.57,5.57,0,0,1-1.49-1.5,1.94,1.94,0,0,0-.87-.86l-.84-.83c-.55-.87-1.06-.86-1.55-1.53a10.9,10.9,0,0,1-1.33-1.3c-.41-.79-.77-.57-1.07-1-.3,0-.55-1-.74-.66,0,.43-.05-.3-.07-.46.29,0,.57.26.85,0,.28.19.57-.43.85,0h0c.24.46.5,0,.75,0,.13-.23.25.44.38,0h0c.34.05.69.22,1-.21a4.33,4.33,0,0,0,1.06.21,1.33,1.33,0,0,1,1.08-.1c.36-.41.72.18,1.08.09.72.15,1.45-.49,2.18,0,.72-.11,1.45.16,2.16,0a6,6,0,0,0,2.11,0l1.4,1.38c.47.48,1,1,1.45,1.44.49,1,1,1,1.49,1.47.5.68,1,1.38,1.49,1.49a5.39,5.39,0,0,1,1.48,1.47c.25,0,.49.32.73.63a3.85,3.85,0,0,0,.71.8h0c.09.1.18-.31.27.27.18-.2.36,1.13.53.53h0c.28.75.56.68.85.86.28.41.57-.06.85.86.56,0,1.11.71,1.64,1.68a4.29,4.29,0,0,0,1.43,1.48c.43.3.8-.14,1.09,1.12l.6.62a6.09,6.09,0,0,0,.56.72.76.76,0,0,0,.09.18l.26.24S49.57,32.37,49.41,32.53Z"/><path class="cls-2" d="M63.74,28.71V27.54l-.17-1.34-.41-2.08L62.82,23l-.16-.75L62.24,21l-.5-1.67-.84-1.92-.75-1.5L59.57,15l-.5-1-.59-.84L57.15,11.6,55.06,9.1,53.31,7.43,51.56,6l-2.34-1.5-1.75-.92-1.34-.75L45,2.25,43.8,1.84l-1.26-.42-.75-.34L40.71.83,39,.42,37.54.17h-.92l-2-.17L31.7.08l-2-.08L28.36.25,26.27.58,24,1.33l-1.09.51-1.75.5L18.84,3.42l-2,1L14.59,5.67l-.92.92L13,6.93l-.83.83-.84.92-.58.75-.84.75L8.5,12.1,6.91,14.6l-.84,1.84-.75,1.17-.83,2.17L3.82,21.7,3.57,23,2.9,25.12l-.16,1.5-.25,1.59v2.42L2.4,32.05l.09,1.16.25,1.42.08,1,.33,1.67.42,2L4,40.39l.5,1.84,1.08,1.92,1,1.83,1.16,2.26,3,3.58.92.92L13.09,54l1.16,1.09.84.5.75.58,1.08.59.92.58.84.42,1.67.92,2,.75,1.5.58,1.09.25.83.25,1.5.34h2.09l1.67.25,1.25.08H33.7l1.92.17H38l1.75-.25,2.09-.59,1.75-.58.92-.34L46,59l1.83-1.08L49.47,57l1-.67.59-.5.83-.5.67-.59.75-.58.58-.5.76-.75,1.08-.84.92-.91.5-.59.33-.58.5-.75.59-.75.66-.84.42-.83.59-1L61,44.23l.67-1.84.75-2L62.74,39,63,38l.25-1.67L63.32,35l.17-1.34.17-2.17L63.82,30ZM51.81,31l0,0v0l-.12.11a1.11,1.11,0,0,0-.18.32,6.09,6.09,0,0,0-.56.72l-.6.61L49.24,34c-.43.53-.92.69-1.44,1.48s-1.07,1.59-1.64,1.68c-.56.4-1.13,1.52-1.69,1.72h0c-.17.41-.35.52-.53.53-.09-.54-.18.47-.27.27h0a2.67,2.67,0,0,1-1.44,1.43l-1.48,1.47-5.84,5.77a5.92,5.92,0,0,0-2.1,0,19.46,19.46,0,0,0-2.16,0c-.73.48-1.46-.16-2.18,0-.36-.1-.73.49-1.09.08-.36.19-.71,0-1.07-.09a3.91,3.91,0,0,0-1.06.21c-.35-.43-.7-.27-1-.22h0c-.13-.44-.26.24-.38,0-.25,0-.51-.45-.75,0h0c-.28.44-.57-.19-.85,0-.28-.26-.57,0-.85,0,0-.16.07-.89.07-.46.19.35.44-.65.74-.66.3-.44.66-.22,1.06-1a10.27,10.27,0,0,1,1.34-1.3c.48-.67,1-.67,1.55-1.53L27,42.5a1.8,1.8,0,0,0,.87-.86,5.9,5.9,0,0,1,1.5-1.5c.51-.45,1-1.45,1.54-1.54a8.06,8.06,0,0,1,1.54-1.55,2.93,2.93,0,0,1,1.51-1.52l1.45-1.45,1.35-1.36h0l2-2L36.7,28.62h0l-1.36-1.36L33.9,25.81a3,3,0,0,1-1.51-1.52,8.68,8.68,0,0,1-1.54-1.55c-.51-.09-1-1.09-1.53-1.54a5.74,5.74,0,0,1-1.5-1.5,1.84,1.84,0,0,0-.87-.86c-.28-.29-.56-.56-.84-.84-.54-.86-1.06-.86-1.54-1.53a9.7,9.7,0,0,1-1.34-1.3c-.4-.79-.76-.57-1.07-1-.3,0-.55-1-.73-.66,0,.43-.05-.3-.07-.46.28,0,.56.26.84,0,.29.18.57-.44.85,0h0c.25.46.5,0,.75,0,.13-.23.26.45.38,0h0c.35.06.69.22,1-.21a4,4,0,0,0,1.06.21c.36-.11.72-.28,1.08-.09.36-.41.72.18,1.08.08.73.15,1.46-.49,2.18,0,.73-.11,1.45.16,2.16,0a6.22,6.22,0,0,0,2.11,0l1.4,1.38,1.45,1.43c.5,1,1,1,1.49,1.48.5.67,1,1.38,1.5,1.48a5.69,5.69,0,0,1,1.48,1.47c.24,0,.48.32.72.63a3.6,3.6,0,0,0,.72.8h0c.08.1.18-.31.26.27.18-.2.36,1.13.54.53h0c.27.75.56.68.84.86.28.41.57-.06.85.86.56,0,1.12.71,1.64,1.68a4.21,4.21,0,0,0,1.44,1.48c.43.3.8-.14,1.09,1.13l.6.61a6.09,6.09,0,0,0,.56.72,1.42,1.42,0,0,0,.08.18l.26.24S52,30.88,51.81,31Z"/></g></g></svg>