<svg xmlns="http://www.w3.org/2000/svg" viewBox="0 0 524.79 123.95"><defs><style>.cls-1{fill:#98563b;}.cls-2,.cls-3{fill:#893d1e;}.cls-3,.cls-6{font-size:117.26px;}.cls-3{font-family:CheapPine-Shadow, Cheap Pine;}.cls-4{letter-spacing:-0.01em;}.cls-5{letter-spacing:0em;}.cls-6,.cls-7{fill:#fff;}.cls-6{font-family:CheapPine-Sans, Cheap Pine;}.cls-8{fill:none;}</style></defs><g id="Layer_2" data-name="Layer 2"><g id="Layer_1-2" data-name="Layer 1"><path class="cls-1" d="M278.83,59.09c0,.29.2.19.24.23C279,58.83,278.77,59.1,278.83,59.09Z"/><polygon class="cls-1" points="277.93 54.3 278.02 54.38 277.71 53.71 277.93 54.3"/><path class="cls-1" d="M276.93,49.92c-.22.51.47,1.56.55,2.37l-.05.15.37.28A24.41,24.41,0,0,1,276.93,49.92Z"/><path class="cls-1" d="M276.83,47.38c-.08.19-.3-.46.15.55v-.11C276.94,47.73,276.9,47.6,276.83,47.38Z"/><path class="cls-1" d="M277,47.82c.18.45,0-.34,0,0Z"/><path class="cls-1" d="M276,45.79l.39.53c0-.16-.21-.68-.06-.51C276,45.24,276,45.4,276,45.79Z"/><path class="cls-1" d="M275.54,45.36l.19.27C275.73,45.57,275.71,45.48,275.54,45.36Z"/><path class="cls-1" d="M276.13,46.22l-.4-.59c0,.11-.12.17.17.28C275.78,45.9,275.93,46,276.13,46.22Z"/><path class="cls-1" d="M276.25,46.6c.09.34.2.79-.15.26C276.57,48,276.77,47.7,276.25,46.6Z"/><path class="cls-1" d="M276.5,49.82a3.56,3.56,0,0,1,.05.47l.21.35C276.67,50.46,276.62,49.75,276.5,49.82Z"/><path class="cls-1" d="M274.3,42.21c-.09,0-.06.29-.12.38l.32.35C274.42,42.71,274.22,42.29,274.3,42.21Z"/><path class="cls-1" d="M274.18,42.59l-.48-.53C274,42.6,274.13,42.67,274.18,42.59Z"/><polygon class="cls-1" points="275.13 45.44 275.88 46.35 275.04 45.24 275.13 45.44"/><polygon class="cls-1" points="272.77 39.97 273.15 40.19 272.51 39.77 272.77 39.97"/><path class="cls-1" d="M271.65,38.57c.31.13-.09-.46.19-.29a5.85,5.85,0,0,0-1.06-.78A3.92,3.92,0,0,1,271.65,38.57Z"/><path class="cls-1" d="M270.24,37.15a6.34,6.34,0,0,0,.54.35A3.33,3.33,0,0,0,270.24,37.15Z"/><path class="cls-1" d="M273.07,41.05a.81.81,0,0,0-.15-.57v.34Z"/><path class="cls-1" d="M272.91,40.84v0l-.35-.48C272.61,40.4,272.71,40.55,272.91,40.84Z"/><path class="cls-1" d="M273.11,41.1l0-.05S273.07,41.1,273.11,41.1Z"/><path class="cls-1" d="M274.47,43.74c-.32-.3-.87-1-.6-.16C274.15,43.75,274,43.3,274.47,43.74Z"/><path class="cls-1" d="M273.1,41.53c.13.2.23.43.35.65,0,0,0-.2.19-.06C273.46,41.92,273.29,41.71,273.1,41.53Z"/><polygon class="cls-1" points="272.82 41.28 273.1 41.53 272.95 41.3 272.82 41.28"/><path class="cls-1" d="M271,38.23a4,4,0,0,1-.8-.71c.25.34.53.68.81,1C271.05,38.51,271.26,38.57,271,38.23Z"/><path class="cls-1" d="M271.93,39.48l-.06,0S271.9,39.51,271.93,39.48Z"/><polygon class="cls-1" points="267.32 34.83 267.35 34.9 267.38 34.88 267.32 34.83"/><path class="cls-1" d="M271,38.59a1.33,1.33,0,0,0,.52.46,6.87,6.87,0,0,1-.54-.54S270.9,38.52,271,38.59Z"/><path class="cls-1" d="M269.41,36.43l.31.47C269.66,36.73,269.49,36.43,269.41,36.43Z"/><path class="cls-1" d="M271.86,39.31l0,0C271.86,39.23,271.85,39.25,271.86,39.31Z"/><path class="cls-1" d="M271.86,39.31a3.16,3.16,0,0,0-.36-.26,4.54,4.54,0,0,0,.37.38A.53.53,0,0,1,271.86,39.31Z"/><path class="cls-1" d="M265.55,35.19c.15-.11,1,.18,1.32.84.6.35.7-.43.47-1.13-.07.06-.1.09-.76-.25.16.21,1.06,1.23.49,1-.77-.56-.56-.54-.86-.91.16.43-1.18-.44-1.23,0l.73.39S265.4,35,265.55,35.19Z"/><path class="cls-1" d="M268.37,35.85l.24.19a4.21,4.21,0,0,1-.6-.91c-.44-.27-.56-.28-.63-.25l1.08,1Z"/><path class="cls-1" d="M269.59,37c-.3,0-.91-.43-.74,0,.63.59.55.31,1,.62-1-1,.36.22-.25-.62a7.55,7.55,0,0,1,.57.53c-.16-.21-.3-.41-.43-.62v0h0c0,.07,0,.09,0,0a0,0,0,0,1,0,0,.12.12,0,0,1-.1,0c-.25-.34,0-.09.1,0h0a13.78,13.78,0,0,0-1.12-.9C268.8,36.27,269.11,36.5,269.59,37Z"/><path class="cls-1" d="M273.09,43.18s0,0,0-.06S273,43,273.09,43.18Z"/><path class="cls-1" d="M272.9,42.63a.89.89,0,0,1,.35.39c.09.27-.09,0-.14.1.15.14.49.51.25-.08l-.07-.06a2.94,2.94,0,0,1-.31-1.23A2.22,2.22,0,0,0,272.9,42.63Z"/><path class="cls-1" d="M271.34,39.73a8.13,8.13,0,0,0-.84-.82l.26.56.07-.1C271.22,39.91,271.22,39.72,271.34,39.73Z"/><path class="cls-1" d="M267.29,34.65l.26-.07c-.23-.08-.5-.12-.74-.18Z"/><polygon class="cls-1" points="266.03 33.74 266.19 33.61 265.79 33.46 266.03 33.74"/><path class="cls-1" d="M221.56,74.34l.21.25A2.39,2.39,0,0,0,221.56,74.34Z"/><path class="cls-1" d="M220.45,72.27h-.11C220.44,72.34,220.49,72.36,220.45,72.27Z"/><path class="cls-1" d="M230.13,32.19c-.53.1-1.19.17-1,.32l.26.1A2.64,2.64,0,0,1,230.13,32.19Z"/><path class="cls-1" d="M216.88,53.29l.08-.13-.12-.36A4.6,4.6,0,0,0,216.88,53.29Z"/><path class="cls-1" d="M217.71,53.8l-.24.6A3.65,3.65,0,0,0,217.71,53.8Z"/><path class="cls-1" d="M230.37,83.47c.14,0,.28,0,.43,0C230.32,83.17,230.47,83.4,230.37,83.47Z"/><path class="cls-1" d="M251.46,27.8a7.61,7.61,0,0,0-1.08-.3C250.9,27.7,251.29,28,251.46,27.8Z"/><path class="cls-1" d="M219.06,74.66c.14.17.23.22.27.2C219.18,74.69,219.08,74.6,219.06,74.66Z"/><path class="cls-1" d="M249.11,27.42l.23.06a4.59,4.59,0,0,1,1,0A2,2,0,0,0,249.11,27.42Z"/><path class="cls-1" d="M271.35,75.8l.08-.08S271.38,75.74,271.35,75.8Z"/><path class="cls-1" d="M278.26,63.54c0,.14,0,.37-.07.59A3.17,3.17,0,0,0,278.26,63.54Z"/><path class="cls-1" d="M260.73,30.42c.3.13.06,0,0,0Z"/><path class="cls-1" d="M261.77,31.87c-.07,0-.14,0-.17,0A.33.33,0,0,1,261.77,31.87Z"/><path class="cls-1" d="M245.87,28.71h0C245.94,28.75,245.92,28.74,245.87,28.71Z"/><path class="cls-1" d="M261.13,30.72l-.35-.24A2.59,2.59,0,0,0,261.13,30.72Z"/><path class="cls-1" d="M261.12,30.6l.25.15C261.42,30.73,261.4,30.7,261.12,30.6Z"/><path class="cls-1" d="M260.31,30.23c.17.08.32.17.47.25,0,0-.07-.06,0-.06Z"/><path class="cls-1" d="M250.86,89.08h.07C251.23,89,251.1,89,250.86,89.08Z"/><polygon class="cls-1" points="225.19 39.15 225.2 39.12 225.16 39.15 225.19 39.15"/><path class="cls-1" d="M224.57,40.07a1.35,1.35,0,0,1,.59-.92l-.7-.15Z"/><path class="cls-1" d="M224.91,78.84l-.36-.69c.86.47,1.21,1,.94.32-.27.17-.82-.33-1.28-.91s-.91-1.16-1.21-1l-.19-.49c.08.12.13.12.21.23-.33-1-.84-.31-1.43-1.45-.19-.41-.26-.72,0-.51l-.66-.76c-.14-.25,0-.25.14,0-.27-.42-.48-.88-.72-1.32h0a6.87,6.87,0,0,1-.72-.71c-.08-.38.15.15.18,0-.16-.24-.35-.46-.5-.7,0-.2.13-.15.26,0a3.15,3.15,0,0,1,.43.69.72.72,0,0,0-.17-.85,2.6,2.6,0,0,1-.51-1.42l.35.7c.19-.61-.15-1.13-.23-2-.05.22,0,1.85-.43,1.06a2.48,2.48,0,0,0-.42-1c.23-.07,0-.52-.11-1.09l.32,0c-.25-.6-.39-.51-.63-.84-.15-.71.05-.9.24-1.1-.12-1.14-.27.85-.53-.48a12.4,12.4,0,0,0-.56-2.73c.08-.68.2.11.28-.14l-.29-.58c0-.14.08-.1.12-.08-.12-.5-.32,0-.44-.82-.18-.1-.1-.52,0-1a2.72,2.72,0,0,0,.12-1.59c.1-.24.19.13.32.06-.2-1.33-.16-1.11-.34-2.3l.35-.91c-.34.65-.49-.27-.59-1.11-.16.23-.29.43-.36.56a9.21,9.21,0,0,1,.08-1.29c.09-.14.16,0,.24.24a1.66,1.66,0,0,0,0-.24c.23-.42.35-.15.45.2l-.31.4c.15.35.31.68.51.65a1.63,1.63,0,0,1,0-.42c0,.09.08.15.12.12s0-.18-.05-.39l.42-.2-.12-.1.62-1.51c0-.29,0-.6-.07-.91s0-.6,0-.93a8.88,8.88,0,0,1,.41-2.31c0,.52.35.25.62.4-.5.34-.36,1.39-.76,2.26.21-.46.31-.31.31-.17l.31-1.7c.21.13.29-.27.59-.62-.6.1.25-1.28.41-2,.17,0,.25.27-.15,1,.75-.65,0-1.37.75-2-.11.18-.19.26-.16.37.12-.48.84-1.44.82-1.12l-.1.18c.19-.29.42-.65.65-1l.79-1.15c.49-.75.83-1.44.75-1.64a2,2,0,0,1,.3.58c.15-.92.37-1.84.59-2.8.12.41,1.3.41.69,1.39a5,5,0,0,0,1-1c-.2.1-.78,0-.58-.24a8.45,8.45,0,0,0,1.58-.67c-.3.17-.41-.51,0-.86,0,.12.4.4.3.58a11,11,0,0,1,.65-1.28c-.2.28.25.4.58.36-.17,0,.91-.67,1.15-.92l-.51.22c1.21-.83.75-1.49,2-2.26-.1.19,0,.84.66.51a6.54,6.54,0,0,1,.52-1.25,4.56,4.56,0,0,1,1.3-1.49l.31,0a9,9,0,0,1,.88-.59c-.47.63-1.67,2.27-2.34,3,.55-.14.23.1,1-.27.33,0-.3.4-.51.51l1.75-.73c-.11-.13.19-.37.49-.6s.63-.39.55-.51a17.38,17.38,0,0,0-1.77,1.16c-.21-.23.66-1.46,2-1.84.37,0,0,.65,0,.75a3.6,3.6,0,0,1,1.28-.62l-.48.37c.74-.15,1-.87,2-.76.31-.06,1,.18,1,0-.57-.25-1-1.37-.7-1.74a8.29,8.29,0,0,1,2.16.1c.58.22-.65.83-.16,1,0-.09.27-.24.38-.3.34,0-.09.3.62.15.07-.35,1.46-.19.29-.33a6,6,0,0,1,1.59-.15c-.29-.21.69-.79,1.42-.92,0,.09.13.19.21.24h1l.86.1c.56.07,1.1.14,1.78.18.13.08.77.23.48.35a2,2,0,0,1,.81-.06c.76.41-.93-.1-.36.35.07-.19,1.1-.11,1.72-.14-.13-.33-1.38-.27-2-.24,0-.42,1.14-.7,2.64-.67,1.18.11.44.37.66.35a4.47,4.47,0,0,0,2,.2,2.27,2.27,0,0,1,1.68.39c.6.51-.14.52-.06.76a4.37,4.37,0,0,1-1.07-.44,5.8,5.8,0,0,0-.87-.34l.73.32a3.23,3.23,0,0,1-1.25-.24c.52.32,3.5,1.07,4.91,2,.3.05.8.19.63,0l-.5-.19c-.35-.41,1,.16.47-.22.36.08.74.16,1.15.29a6.06,6.06,0,0,1,.63.23,5.33,5.33,0,0,1,.6.41v.36c0-.09-.47-.5-.76-.57.43.1,1.11,1.16,1.71,1.06l-.49-.55a6,6,0,0,1,2.34,1.06c-.16-.49-.18-.1-.52-.77.24.66-2-1.24-1.47-.37-.36-.69-.87-.79-1.5-1.48,0,.1.19.31-.48-.07a.61.61,0,0,1-.19,0l-.05,0,0,0s-.05,0,0,0a1.17,1.17,0,0,1,.28.31,11.77,11.77,0,0,1-1.95-.56c-.39-.24.21,0,0-.23a4.48,4.48,0,0,0-.64-.07c0-.23-1-.77.06-.52l-.91-.34a4.77,4.77,0,0,0-1.71-.7c-.43-.16-1.19,0-.76-.12l-1.51-.25v-.05a11.39,11.39,0,0,0-2.3-.31,14.79,14.79,0,0,1-2.44-.44,9.21,9.21,0,0,1-1.87,0l-.17-.21a8.89,8.89,0,0,0-2.23.09,3.18,3.18,0,0,0-2-.11c-.85.15-1.73.37-2.31.41v.26a13.35,13.35,0,0,0-2.41.75l.12.2c-.77.34-2.09.5-3.33,1,.05-.11.37-.2.61-.24a3.87,3.87,0,0,0-1.2.27,9.66,9.66,0,0,0-1.07.63,7.61,7.61,0,0,1-2.06,1.09,1.82,1.82,0,0,1-.74.45l.07-.06-.13.08-.49.16a2.71,2.71,0,0,0,.42-.12c-.23.15-.57.39-.89.65l-.28-.11-.08,0c-.4.14-.21.27.07.31a1.68,1.68,0,0,0-.36.42c-.49-.12-.78.75-1.38.68a4.5,4.5,0,0,1-.8.86c-.34.39-.64.79-.58,1-.05,0-.15,0,0-.12a3.54,3.54,0,0,0-.95.89l-.35-.09a6.65,6.65,0,0,0-.41,1c-.53.31-.79.42-.55-.18-.71,1.32-.7,1-1.23,2.1l-.12-.17c-.26.36-.46,1.07-.75,1.18-1,.51-2.76,4-4.06,6.14.38-.1.18.13,0,.43s-.45.7-.25.83c-.18.08-.38.39-.35,0-.3,1.26-.92,1.76-.74,2.74-.17.11-.13-.32-.24-.22s0,.43-.1.54-.07-.21-.07-.43c-.31,1.3.07,1.53.43,1.71a2.44,2.44,0,0,0-.31.75,1.62,1.62,0,0,0,.11.7c-.16.2-.36.56-.28-.25-.08.45-.63,2.75-.28,2.83a1.59,1.59,0,0,0,0,.75c-.07,1-.1,1.11-.12,2.12l.06-.28c.35.4.09.83.17,1.64l0,0c-.16,1.87.12.79,0,2.64L216,63c.54.1-.06,1.64.31,2.66l.07-.4c.25.53-.3,1.72-.23,2.33,0,.14-.12-.18-.2-.35.1,1.59.36.12.71,1.21-.1.25-.5-.14-.29.62,0,.41,1.25,2,1.39,3,0-.26,0-.52.36-.08.4.7.49,2.23,1.23,2.67,0,.11,0,.16,0,.18a12.19,12.19,0,0,0,1.58,1.83c-.34,1,2.6,2.86,2.06,3.27l1.32,1.39-.09,0a3.47,3.47,0,0,0,1.73,1.21c.18.23,0,.14-.07.16a5.68,5.68,0,0,0,2.85,2l0,.3c.2.06.65.54,1.32,1a8.11,8.11,0,0,0,2.33,1.34.28.28,0,0,1-.23,0A21,21,0,0,1,235,88.83c.93.45,1.76.77,2.24.47.43.09.88.09,1.31.14-1.59-.48.35-.31-.27-.63.64.11,1.55.68.77.53l-.11-.08c-.41.37,2,.7,1.86,1a36.29,36.29,0,0,0,9.63.67c-.13-.11-.26-.2-.39-.32.36,0,.71-.09,1.07-.13s.42.22-.35.32a1.67,1.67,0,0,0,1.27-.45c1.52-.08-.52.51-.06.45l.62-.12-.15,0a4.26,4.26,0,0,1,1.41-.57c.59-.07.35.15.57.1,0,0,.09,0,.35-.07l1.34-.32-.61-.14c.55-.28,1.24-.32.54-.46a7.9,7.9,0,0,0,2.88-.71c1.13-.48,2.16-1.07,2.45-1.11a17.38,17.38,0,0,1,2.26-1.51c-.25.08-.55-.12.22-.54,0,.36.45.24.91-.05a4,4,0,0,1,1.45-.69c-.36.07.14-.33.59-.71s.79-.82.28-.64c.58-.46.19.16.71-.1,1.17-1.35,3-2.59,4.26-4.41,0-.08-.38.13-.2-.33l1.05-.67c.21-.38-.15-.58.51-1.09-.12.05-.3.13-.17-.13a20.41,20.41,0,0,0,3-5.77c.35-1,.77-2.06,1-3.13l1-3.16c-.26.56-.21.17-.15-.28-.09.28-.22,0-.34,0,.19-.58.42-1.17.58-1.77-.31-.36.08-2-.23-2.16l0,.57c-.34-.76-.88,1-1.35.86a1.33,1.33,0,0,1,.05.72,6.79,6.79,0,0,1-.29.82,3,3,0,0,0-.24,1.94c-.14.28-.11-.28-.24-.14.17.38.08.78-.19,1.5l0-.09a18.75,18.75,0,0,1-2,5l.29-.06a3.22,3.22,0,0,1-.52.7c.06.69.64-1.29.77-.64a5.2,5.2,0,0,0-1.16,1.81c-.4.78-.91,1.48-1.24,1.54-.41.67.35-.05-.06.62l-.24.1.06.27c-.29.44-.63.51-.74.46a2.85,2.85,0,0,0,.26-.41,12,12,0,0,0-1.26,1.68l.52-.54c-1.11,1.86-3.13,3.56-4.49,5.16l.19,0c-1.09,1.2-1.08.69-2.42,1.84l0-.06a3.06,3.06,0,0,1-1,.83c.31-.34-.84.22-.42-.21-1.37,1.08-.62.62-1.43,1.53l-.33,0a2.41,2.41,0,0,1-1,.84c.58-.45-.63,0,0-.55a5,5,0,0,0-1.14.42c-.32.15-.6.28-.84.42a1.8,1.8,0,0,1-1.38.33c-.63.78,1.59-.28,1.18,0,.44,0-.53.6-1.1.75s-1.16-.34-2.57,0a2.49,2.49,0,0,0,.29-.11c-.57,0-1,.49-1.71.36-.32.36-.87.11-.92.52l1.33-.3a6.55,6.55,0,0,1-2.69.76,2.51,2.51,0,0,1,.7-.35c-.38-.07-.69.2-1.09.1.07-.37,1.62-.33,2.38-.74-.41-.1-1.48.52-1.14,0a1.27,1.27,0,0,1-1,.39,2.78,2.78,0,0,0-1.36.19l.05-.24a3,3,0,0,1-.77.18l.51-.33c-.79.3-1.54-.12-2.29,0,1.59.06.35.32,1,.49-2,.26-1.13-.66-3.33-.66.3,0,1.11.2.63.29a3.32,3.32,0,0,1-1.2-.39c-1.45-.18.19.27-.44.32-.46-.36-.73,0-1.4,0l0-.24c-1.61-.46-.54.41-2-.13l.7-.16-.79-.12.23-.22a3.74,3.74,0,0,1-1.9-.46c.13.23-.24.38-.95.13-.43-.31.35-.12-.66-.45a.84.84,0,0,1,.94.22c.07-.06.27-.07.34-.12a6.18,6.18,0,0,0-1.62-.63,2,2,0,0,1,.36.19,9.83,9.83,0,0,1-1.53-.29c-.18-.19,0-.17.22-.15-.29-.12-.53-.11-.95-.29.2-.12.26-.32.87-.12l-1.39-.43c0-.11-.55-.54-.35-.52-.61-.52-1.88-.67-2.68-1.39a.92.92,0,0,1-.37-.15c-.39-.32-.72-.66-1.1-1a7.28,7.28,0,0,0-.6-.46,4.77,4.77,0,0,0-.7-.48l-.26-.71c-.73-.56.38.94-.86,0-.89-.67-.1-.49-.3-.83a4.18,4.18,0,0,1-1.86-1.68A6.51,6.51,0,0,1,224.91,78.84ZM219,69.08c.13.2.43.56.35.76C219,69.7,219.06,69.47,219,69.08Zm-1.25-17.37a1.17,1.17,0,0,1-.23.69A2.07,2.07,0,0,1,217.75,51.71Zm39.56-22.48h0C256.81,29,257,29.06,257.31,29.23Zm1,.48c.12,0,.12,0,.09-.08a1.31,1.31,0,0,1-.59-.16C257.87,29.55,258,29.64,258.32,29.71ZM254.5,90h-.22C254.73,89.84,254.62,89.94,254.5,90Z"/><path class="cls-1" d="M217.61,53.74a.26.26,0,0,1-.14.07C217.49,53.9,217.54,53.91,217.61,53.74Z"/><path class="cls-1" d="M230.29,83.46l0,0h0Z"/><path class="cls-1" d="M241.79,30.08a1.05,1.05,0,0,1-.43-.06C241.36,30.08,241.47,30.12,241.79,30.08Z"/><path class="cls-1" d="M263.79,32l-.65-.32a1.89,1.89,0,0,1,.51.4C263.67,32,263.59,31.85,263.79,32Z"/><path class="cls-1" d="M267.73,36.83c.1.05.16.14.26.19l.05-.1C267.72,36.63,267.44,36.5,267.73,36.83Z"/><path class="cls-1" d="M263.92,33c-.07.22.37.35.77.63l-.07-.06C264.9,33.4,264.43,33.16,263.92,33Z"/><path class="cls-1" d="M264.79,33.67c.12.08.25.17.36.26S265,33.81,264.79,33.67Z"/><path class="cls-1" d="M259.68,30.1c.19.15.24-.17.33,0C260.35,29.93,258.45,29.68,259.68,30.1Z"/><polygon class="cls-1" points="263.89 33.75 263.88 33.45 263.54 33.48 263.89 33.75"/><path class="cls-1" d="M260.68,31.7l.66.4s.11,0,.23,0C261.15,31.9,260.7,31.63,260.68,31.7Z"/><path class="cls-1" d="M261.57,32.11a2.88,2.88,0,0,0,.56.28A5.81,5.81,0,0,0,261.57,32.11Z"/><polygon class="cls-1" points="262.95 33.27 262.79 33.1 262.33 32.81 262.95 33.27"/><path class="cls-1" d="M252.85,29l-.85,0c-.09.07.12.16.44.17S253,29.07,252.85,29Z"/><path class="cls-1" d="M255.15,30.24c-.21-.11-.2-.16-.31-.27l-.1.29Z"/><path class="cls-1" d="M252.8,29.73c-.1.07-1.23.07-.2.2C252.7,29.85,253.52,29.94,252.8,29.73Z"/><polygon class="cls-1" points="240.38 29.48 240.58 29.42 240.45 28.93 240.38 29.48"/><path class="cls-1" d="M230.88,34.77c.87-.39,0-.38.84-.7.13-.22-.67.26-.53,0C230.76,34.53,230.47,34.63,230.88,34.77Z"/><path class="cls-1" d="M231.19,34.12l.22-.22Z"/><polygon class="cls-1" points="278.75 61.15 278.89 60.49 278.7 60.91 278.75 61.15"/><path class="cls-1" d="M278.44,59.87l.33-.15-.27-.4A1.1,1.1,0,0,1,278.44,59.87Z"/><path class="cls-1" d="M219.11,67.28l-.09,0c-.06.12,0,.26,0,.53Z"/><polygon class="cls-1" points="222.23 74.83 222.16 74.71 222.05 75.09 222.23 74.83"/><path class="cls-1" d="M226.81,79.94a6.08,6.08,0,0,1-.65-.6C226.6,79.76,226.62,80.25,226.81,79.94Z"/><path class="cls-2" d="M238.57,53v2.13a24.77,24.77,0,0,0-3.36.12l-.11-1.46s.34-.56.56-.56a1.51,1.51,0,0,0,.56-.11,5.65,5.65,0,0,0,.9-.12Zm11.1-10.2-4.37.12V40.77l8.85-.23s.56.34.56.56a1.4,1.4,0,0,0,.12.56,6.13,6.13,0,0,0,.11.9c0,.78.11,6.16.11,10.31,3.7.11,8.07.11,9.19.11.9,0,.9,1.12.9,1.69v.56L265,62.29l-.34.45a7.41,7.41,0,0,0-1.79-.12V59.15c0-1.35,0-3.92-3.14-3.92-.9,0-3.92.11-6.95,0,0-2.92-.11-4.26-.11-6.39V46.59a6.3,6.3,0,0,1-.11-1c0-.11-.12-.11-.12-.11,0-1.34-1.68-2.35-1.68-2.35Zm3,32.29c0-1.69.11-4,.11-5.72h.56c.56,0,1.23-.11,1.68-.11,0,2.24-.11,4.26-.11,4.93,0,.9-1.12.9-1.68.9Z"/><path class="cls-1" d="M252.72,75.08h0Z"/><path class="cls-1" d="M253.1,75.24h0l0,0Z"/><path class="cls-1" d="M253.46,75.37c0-.15-.14,0-.2-.09v0l0,.08C253.3,75.35,253.4,75.32,253.46,75.37Z"/><path class="cls-1" d="M253.68,75.83c0-.08,0,0-.06,0l0,0Z"/><path class="cls-1" d="M253.64,75.8s0,.07,0,0Z"/><path class="cls-1" d="M253.84,75.87l-.05,0s.07.09.05.11S253.89,76,253.84,75.87Z"/><path class="cls-1" d="M253.89,75.74l0,0S253.88,75.79,253.89,75.74Z"/><path class="cls-1" d="M253.8,75.79l.06,0s0-.1,0,0C253.83,75.71,253.82,75.77,253.8,75.79Z"/><path class="cls-1" d="M253.76,75.75c0-.06-.08-.1,0-.15S253.65,75.72,253.76,75.75Z"/><path class="cls-1" d="M253.47,75.22l0,0,0,0S253.48,75.27,253.47,75.22Z"/><path class="cls-1" d="M254.3,76.16a1.11,1.11,0,0,0-.07-.22l0,0A.61.61,0,0,1,254.3,76.16Z"/><path class="cls-1" d="M254.23,75.94l.06-.08C254.22,75.84,254.21,75.88,254.23,75.94Z"/><path class="cls-1" d="M253.88,75.51l-.09.12.11-.12Z"/><polygon class="cls-1" points="254.68 76.24 254.66 76.37 254.7 76.18 254.68 76.24"/><path class="cls-1" d="M255,76.23c0,.12.15.21.13.28s.13-.14.15-.24C255.19,76.33,255.09,76.33,255,76.23Z"/><path class="cls-1" d="M255.28,76.11a.46.46,0,0,0,0,.16A.34.34,0,0,0,255.28,76.11Z"/><path class="cls-1" d="M254.44,75.91a.56.56,0,0,0,.12.18l-.08-.17Z"/><path class="cls-1" d="M254.48,75.91h0l.08,0Z"/><path class="cls-1" d="M254.43,75.91h0S254.43,75.89,254.43,75.91Z"/><path class="cls-1" d="M254.07,75.67a.24.24,0,0,0,0-.28C254.05,75.48,254.11,75.56,254.07,75.67Z"/><path class="cls-1" d="M254.34,75.71l-.08,0a.34.34,0,0,1,0,.14Z"/><polygon class="cls-1" points="254.37 75.66 254.34 75.71 254.38 75.72 254.37 75.66"/><path class="cls-1" d="M255,76c0-.09.07-.1.12-.13a.58.58,0,0,0-.22,0C254.88,75.89,254.9,76,255,76Z"/><path class="cls-1" d="M254.71,76h0S254.7,75.92,254.71,76Z"/><polygon class="cls-1" points="255.69 75.43 255.66 75.41 255.68 75.44 255.69 75.43"/><path class="cls-1" d="M254.84,75.8c-.06,0-.07,0-.07.07a.23.23,0,0,1,.1,0S254.85,75.79,254.84,75.8Z"/><path class="cls-1" d="M255.44,76l-.17,0C255.34,75.94,255.46,76,255.44,76Z"/><path class="cls-1" d="M254.75,76h0S254.76,76,254.75,76Z"/><path class="cls-1" d="M254.75,76a.31.31,0,0,0,0-.11l-.06.07Z"/><path class="cls-1" d="M254.67,74.49c.17.1.27.28.07.19a2.27,2.27,0,0,0,.92.73.39.39,0,0,1-.15-.29c-.11,0-.34,0-.42-.15s.11,0,.24,0c-.23-.1-.23-.32-.58-.46l.09.12A1.63,1.63,0,0,0,254.67,74.49Z"/><path class="cls-1" d="M255.46,75.61l0,.06a1,1,0,0,1,.35,0,.34.34,0,0,0-.1-.27,1,1,0,0,1-.21.21Z"/><path class="cls-1" d="M255.21,75.78c-.07-.19,0-.31-.23-.48-.09.07,0,.19,0,.29.18-.12,0,.13.22.17a.19.19,0,0,1-.11.09l.18.05h0s0,0,0,0h0l0-.08c.1,0,0,0,0,.08l0,0h0a.92.92,0,0,0,.17-.22A.64.64,0,0,0,255.21,75.78Z"/><path class="cls-1" d="M254.08,75.06s0,0,0,0S254.09,75.07,254.08,75.06Z"/><path class="cls-1" d="M254.14,75.15s0,.09,0,.07,0-.07,0-.12a.17.17,0,0,0,0,.18v0a1,1,0,0,1,.17.27C254.24,75.39,254.2,75.29,254.14,75.15Z"/><path class="cls-1" d="M254.55,75.44l.09-.11-.12-.14,0,.09C254.48,75.26,254.53,75.37,254.55,75.44Z"/><path class="cls-1" d="M255.8,75.47l.15.18a2.53,2.53,0,0,0-.16-.33Z"/><polygon class="cls-1" points="255.96 75.16 256.13 75.27 256.06 75.13 255.96 75.16"/><path class="cls-1" d="M253.87,70.52v0Z"/><path class="cls-1" d="M254,70.52v-.09A.41.41,0,0,0,254,70.52Z"/><path class="cls-1" d="M256.24,71.6c.19,0,.48-.08.25-.08h-.21S256.29,71.58,256.24,71.6Z"/><path class="cls-1" d="M255,69.57h-.06l.2,0Z"/><path class="cls-1" d="M254.1,69.54l.14-.05Z"/><path class="cls-1" d="M253.73,70.83l.14.18Z"/><path class="cls-1" d="M256.15,73.33a.25.25,0,0,0,.13-.08C256.15,73.29,256,73.32,256.15,73.33Z"/><path class="cls-1" d="M253.4,68.23a.15.15,0,0,0,0,.13A.19.19,0,0,0,253.4,68.23Z"/><path class="cls-1" d="M256.28,73.15h0s.06.06,0,.09S256.43,73.18,256.28,73.15Z"/><path class="cls-1" d="M253.69,73.59h0Z"/><path class="cls-1" d="M252.51,74.73l0,0S252.5,74.71,252.51,74.73Z"/><path class="cls-1" d="M256.3,74.08s0,0,0,0Z"/><path class="cls-1" d="M255.44,74.23a.22.22,0,0,0-.1,0A.22.22,0,0,1,255.44,74.23Z"/><path class="cls-1" d="M254.94,72.89Z"/><path class="cls-1" d="M256.2,74.12l.07,0Z"/><path class="cls-1" d="M256.31,74.12l0,0S256.34,74.14,256.31,74.12Z"/><path class="cls-1" d="M256.29,74.05s0,0,0,0h0A.08.08,0,0,0,256.29,74.05Z"/><path class="cls-1" d="M253.42,71.49h0C253.49,71.52,253.48,71.51,253.42,71.49Z"/><polygon class="cls-1" points="254 70.93 254.02 70.94 254.02 70.93 254 70.93"/><path class="cls-1" d="M253.85,70.84c.26,0,.23.06.17.09l.63,0Z"/><path class="cls-1" d="M253.72,70.58l.11.19a4.36,4.36,0,0,0,.23.48c-.33-.67,0-.07-.28-.74l.07.14s0,0,0,0c.13.32-.15-.49-.06-.39a.52.52,0,0,1,.08.23v-.17s0,.13,0,.11l0,0v0c0-.11,0-.27,0-.34,0,.09,0,.07,0,.15l0-.16c0,.17,0,.34,0,.32.11.67,0-.17.19.21l-.07.09c.08.38.13.24.23.47,0-.12-.22-.59-.15-.77,0,0,.06.08.09-.06,0,.24.06.17.11.15l0,.32a1.5,1.5,0,0,0,.05-.4c.06,0,.09.27.13.48.09,0-.1-.39,0-.46.09.11.13,0,.2-.22.06.1,0,.19,0,.28l0-.25s0,.08,0,.12,0-.32,0-.41c0-.35.14.51.18.11a1.7,1.7,0,0,1,0,.32.13.13,0,0,0,0-.06L254,69.24a1.94,1.94,0,0,0,.48.17l-.21.08a1.48,1.48,0,0,1,.75.08l.27,0,.17.1a1.68,1.68,0,0,1-.3,0l.08,0a1.57,1.57,0,0,1-.48,0l.2,0a3.08,3.08,0,0,0-.6,0,.12.12,0,0,1,.09,0h-.13s0,0,.11,0l-.35,0h.14l-.23.14a3.11,3.11,0,0,1,1,.33,4.49,4.49,0,0,0-.74,0c.33,0-.13-.12-.07-.2s-.18,0-.23,0l.3.14c-.26,0-.2,0-.3.07.5,0,.33.11.48.16-.17,0-.34,0-.29-.08-.38.08.58.1.26.18,0,0,0,0-.06,0,.14,0,0,.14-.12.11h0c-.06.11,0,.34.42.36l-.6,0,1.43.2a9.2,9.2,0,0,1-1.44,0c-.06,0-.12.06,0,.11a3.58,3.58,0,0,1,.56,0,3.39,3.39,0,0,0-.57.14,1.79,1.79,0,0,1,.64,0c-.09,0-.57,0-.63,0l.56.11a2.84,2.84,0,0,0-.64,0c.12,0,0,.09.05.12l.13,0c-.09.12.79.12.75.24a2.5,2.5,0,0,0-.78,0,9.78,9.78,0,0,1,1.6.23l-.17,0,.19.08c-.43-.05-1.34-.19-1.69-.27-.13.05-.2,0-.18.08a.24.24,0,0,1-.25-.06l-.1.16c.34,0,.33.13.62.12l-.35-.17c.34,0,.95.1.89.21a5.51,5.51,0,0,1-.71,0c.12,0,.22.11.14.12l-.18-.05c-.13.06.44.1.12.18,0,0-.44.08-.24.08a16.72,16.72,0,0,1,1.86,0,3.61,3.61,0,0,1-.56.17c-.3,0-.71-.07-1,0a1.07,1.07,0,0,1,.24,0c-.08,0-.29,0-.25,0,.34,0,0,.12.29,0,.1.06-.07.07-.06.13a2.53,2.53,0,0,1,.85.13,1.78,1.78,0,0,0-.25,0c0,.12-.19.19-.2.3a1,1,0,0,1-.33,0c.06,0,.18,0,.18.07-.29.06,0-.08-.4,0a.82.82,0,0,1,.4.14c.3,0,.06-.12-.06-.17a2.33,2.33,0,0,1,1.05.21c.1.09-.27,0-.21,0-.08.18.73.15.42.3a3.61,3.61,0,0,1-.73,0c-.1-.07.18-.11.17-.16l-.13.06c-.09,0-.16-.08-.08-.1-.24,0-.05.29-.28.43a.68.68,0,0,0,.29,0l0,0c.21,0,.29.08.4,0s.39.12.25.28l-.31,0c.09,0,.19-.06.1-.1.13.08-.42.12,0,.25l.23-.06c.13.12.41.38.24.52.31,0,0,0,.36,0-.44,0,.14-.47-.36-.39.43,0,.2-.16.56-.32-.11,0-.2,0-.15,0h-.09l-.16,0c-.23,0-.22-.13-.34-.16.05,0,.12,0,.23,0l-.18,0c.22,0,.37-.1.5,0v-.08c.13,0,.18-.1.09-.14s-.25-.09-.07-.06l-.14-.12h.06c0-.12-.37-.24,0-.38-.06,0-.13-.07-.06-.14h.19c-.06-.05.2-.16,0-.18.52,0,.12-.24.21-.33h-.25c0-.07-.05-.12-.15-.2h-.23c-.18-.06.17-.16.14-.27s.07,0,0,.06c.51-.13-.36-.27,0-.38-.08,0-.05,0,0-.07a0,0,0,0,0,0,0h0l.12,0-.12,0s0,0-.08-.08l.24,0h0c.09,0-.11,0-.3,0a.39.39,0,0,0-.14,0c.39,0-.13-.09.29-.12-.2,0-.15-.16-.58-.18.06,0,.09,0,.09,0s.1-.08,0-.11h.3L255.5,71a1,1,0,0,1,.54,0c-.36-.11-.14-.09-.5-.19h.2s-.27-.09-.1-.11c.37-.07.06-.38.41-.58-.58,0,.26-.09-.19-.1a.78.78,0,0,1,.34,0c-.14-.1.22-.16-.16-.23.14,0,.2,0,.28,0s-.11,0,0,0,.11,0,.17,0-.44-.11-.84-.12c.19,0,.16-.08-.1-.11.13,0,.27,0,.32,0s.19-.22-.13-.22c.08,0,0,0,0-.06a0,0,0,0,1,0,0l.51-.4-1.17-.26c-.07,0-.09,0-.17,0l0,.05c0,.39-.07.09-.13.14v0c-.18-.26-.06.14-.24-.16l0,.24c0,.51-.16-.3-.23-.09l0,.13c0,.18-.2-.68-.25-.74s0-.08,0-.11c-.15-.29,0,.31-.07.39,0-.16,0-.43-.08-.45s-.09.56-.25.24a.51.51,0,0,1,0,.36c-.07.06-.34-.48-.34-.07a.18.18,0,0,1,0-.1c-.06.11-.2.18-.16.41-.17-.42-.26-.32-.31-.21s-.08.23-.26-.16l-.21,0,0-.08c-.17-.05-.11.13,0,.31a.51.51,0,0,1-.11-.16c-.15,0-.14.1.11.58l-.18-.2c.11.15-.36-.06-.17.36a.25.25,0,0,1-.09-.11c.22.41-.76.07.07.73l.19.26c.09-.11.38.26.54.29s-.27,0-.32-.11h.05c-.47-.3-.17.14-.49,0a2,2,0,0,1-.12.63c0,.09-.08.24-.1.3a.7.7,0,0,0-.06.19l.37,0,0,.08c-.08,0-.28,0-.27,0-.2,0,.18.11.26.11-.15.12-.43,0-.44,0l0,0h0c.15,0,.31,0,.29.11s-.23,0-.24.05,0,0,0,0l0,.11.29,0c.14.05,0,.1.31.05-.5.07-.19.4-.34.45.21.06.2.13.17.21s.39,0,.35,0c-.67,0-.3.13-.78.18.33,0,.06.2.52.12-.06.06-.25,0-.42,0,.22.14-.09.31.08.48a1.72,1.72,0,0,1,.31,0l-.33.1c.06,0,.42,0,.21.09a.29.29,0,0,1,.16,0c-.1.17.05.34.12.52a1.07,1.07,0,0,1,.12.52s0,0,0,0,.06,0,.08,0a.38.38,0,0,0,0,.15c.06,0,.09.15.11.17l0,0c0,.06,0-.08.12-.08s.21-.17.12-.29,0,0,.08,0-.05-.06,0-.12h0c0-.17.16-.25.35-.45h-.14a.33.33,0,0,1,.13-.07c-.19,0-.07.12-.27.08.3-.06.1-.3.51-.34,0-.07-.21,0-.18,0l.12,0h-.13a.51.51,0,0,1,.3-.07s0,0,0,0c.18,0,.05-.16.11-.18l-.12.07c0-.18.34-.4,0-.58l-.11,0c-.22-.14.11-.11,0-.26h0c-.11,0-.16-.07-.15-.11s.26-.07.4,0c-.22-.14-.17-.07-.59-.17l.19,0c-.17,0-.25,0-.3-.1.16,0,.28,0,.49,0,.41-.16-.4-.23.19-.3-.51-.07-.29.13-.4.09s-.38-.06-.33-.1.66-.09.65-.21,0,0,0,0-.18-.09,0-.15c-.31,0,0-.07-.38-.08l.09.11c-.1-.06-.56-.12-.34-.23a1.2,1.2,0,0,1,.24.06c.12,0-.07-.06.05-.09.39,0,.08.14.38.21s-.28-.13.15-.1c-.55-.05.07-.12-.35-.2h.24s-.15,0-.14-.06l.3,0c-.24-.09.2-.08,0-.1.08,0-.26,0-.4,0-.36-.11.55,0,.32-.06,0,0-.07,0-.19,0l.17,0c-.12,0-.19,0-.34-.1.21,0-.13-.05-.22-.11l.19.07s-.39-.17-.3-.18l.26.14-.09-.06.19.11c-.19-.1-.12-.1-.08-.09-.11-.07-.29-.2-.29-.25s.15.13.13.07c.1.09.22.19.08.09l.15.12c.11.07,0,0,0,0l0,0-.21-.24.15.15a1.13,1.13,0,0,1-.1-.13l.32.32-.14-.17.2.19c.07.08-.25-.31-.15-.23l-.07-.09s.19.21,0-.08l.24.34a5.51,5.51,0,0,1-.34-.56c0-.12.19.29.25.39-.09-.18-.23-.53-.06-.25C253.75,70.6,253.72,70.55,253.72,70.58Zm.44-.18s0,.21-.07.07S254.12,70.32,254.16,70.4Zm.37-.69c-.08,0,0,0,.05-.06S254.59,69.69,254.53,69.71Zm1.58,4.09h0C256.2,73.76,256.16,73.77,256.11,73.8Zm-.1.09a.17.17,0,0,0,.1,0c-.06,0-.07,0-.05,0S256,73.86,256,73.89Zm-4.21-2.12.06,0C251.93,71.79,251.86,71.78,251.8,71.77Z"/><path class="cls-1" d="M254.2,69.54h.13A.29.29,0,0,0,254.2,69.54Z"/><polygon class="cls-1" points="253.7 70.79 253.7 70.79 253.73 70.83 253.7 70.79"/><path class="cls-1" d="M254,72.55l.13,0C254.06,72.51,254,72.52,254,72.55Z"/><path class="cls-1" d="M256.36,74.63a.8.8,0,0,0,0-.15c0,.07-.06.08-.1.11S256.37,74.58,256.36,74.63Z"/><path class="cls-1" d="M254.67,74.74s0,0,0,0l.07.09S254.73,74.75,254.67,74.74Z"/><path class="cls-1" d="M255.55,74.57c-.19,0-.14,0-.13.11h0C255.69,74.79,255.62,74.67,255.55,74.57Z"/><path class="cls-1" d="M255.42,74.7a.07.07,0,0,1,0,.06C255.5,74.81,255.43,74.74,255.42,74.7Z"/><path class="cls-1" d="M256.14,74c-.05,0,.26,0,.17,0C256.57,74,256,73.9,256.14,74Z"/><polygon class="cls-1" points="254.9 74.43 255.15 74.48 254.96 74.41 254.9 74.43"/><path class="cls-1" d="M255.12,74.12l-.07.07a.17.17,0,0,1,.09,0S255.2,74.12,255.12,74.12Z"/><path class="cls-1" d="M255.14,74.21a0,0,0,0,0,0,.06A.07.07,0,0,0,255.14,74.21Z"/><path class="cls-1" d="M254.85,74.33h.05l0,0Z"/><path class="cls-1" d="M255.19,73.46l-.07-.07c-.09,0-.14,0-.11,0A.34.34,0,0,0,255.19,73.46Z"/><path class="cls-1" d="M254.5,73.66a.84.84,0,0,1,.19,0h-.31Z"/><path class="cls-1" d="M254.43,73.46c-.09,0-.25-.1-.23,0S254.36,73.53,254.43,73.46Z"/><polygon class="cls-1" points="254.85 72.44 254.85 72.46 255.36 72.45 254.85 72.44"/><path class="cls-1" d="M253.65,71.54c-.13.08.31,0,.16.09.12,0,.12-.06.23,0C253.91,71.54,254,71.52,253.65,71.54Z"/><path class="cls-1" d="M254,71.59l.07,0Z"/><polygon class="cls-1" points="252.59 74.92 252.63 74.97 252.61 74.94 252.59 74.92"/><path class="cls-1" d="M252.68,75h0a.08.08,0,0,0,0,0S252.7,75.07,252.68,75Z"/><path class="cls-1" d="M254.37,71V71c0-.08,0-.09-.05-.1Z"/><polygon class="cls-1" points="253.94 70.83 253.94 70.83 253.85 70.55 253.94 70.83"/><path class="cls-1" d="M254,71.2l0,0S253.81,70.84,254,71.2Z"/><path class="cls-1" d="M249.76,42.82l-.09,0Z"/><polygon class="cls-1" points="251.36 43.77 251.32 43.76 251.54 43.93 251.36 43.77"/><path class="cls-1" d="M252.13,45.2c.14-.18-.15-.54-.28-.81v-.06l-.15-.06A1.8,1.8,0,0,1,252.13,45.2Z"/><path class="cls-1" d="M251.85,46.11c.07-.08.05.23,0-.26l0,0Z"/><path class="cls-1" d="M251.86,45.89c0-.22-.06.15,0,0Z"/><path class="cls-1" d="M251.85,46.73l0-.14,0,.17,0-.13a.86.86,0,0,0,0,.15v-.19c0,.07,0,.13-.07.08C251.69,46.93,251.75,46.88,251.85,46.73Z"/><path class="cls-1" d="M252,47l0-.13S251.93,46.9,252,47Z"/><path class="cls-1" d="M251.94,46.71v0l0-.15,0,.25s.11,0,0-.13c.06,0,0,0,0-.12v.12Z"/><path class="cls-1" d="M252,46.52c.05-.17.07-.37.14-.1C252.07,45.89,252,46,252,46.52Z"/><path class="cls-1" d="M252.29,45.26l0-.18-.09-.14C252.28,45,252.25,45.28,252.29,45.26Z"/><path class="cls-1" d="M251.51,48.3c.05,0,.16-.09.23-.11l0-.18C251.65,48.1,251.59,48.28,251.51,48.3Z"/><path class="cls-1" d="M251.74,48.19l.07.28C251.84,48.22,251.8,48.18,251.74,48.19Z"/><path class="cls-1" d="M252.22,47l-.12-.42,0,.12,0,0v-.08c0,.17.07.34.11.51Z"/><polygon class="cls-1" points="251.35 49.36 251.23 49.2 251.41 49.48 251.35 49.36"/><path class="cls-1" d="M251.29,50.06c-.12-.11-.25.16-.31,0a.88.88,0,0,0,.17.5A.67.67,0,0,1,251.29,50.06Z"/><path class="cls-1" d="M251.27,50.85a1.13,1.13,0,0,0-.12-.25A.58.58,0,0,0,251.27,50.85Z"/><path class="cls-1" d="M251.73,49a.36.36,0,0,0-.2.21l.18-.11Z"/><path class="cls-1" d="M251.72,49.05h0l0,.24Z"/><path class="cls-1" d="M251.73,48.92v0S251.75,48.93,251.73,48.92Z"/><path class="cls-1" d="M252,47.74c.07.17.14.51.29.18C252.23,47.8,252.14,48,252,47.74Z"/><path class="cls-1" d="M252,48.78l.06-.29s-.11.06-.14,0Z"/><polygon class="cls-1" points="251.99 48.93 251.95 48.78 251.93 48.89 251.99 48.93"/><path class="cls-1" d="M251.52,50.34a.87.87,0,0,1,.07.43,2.42,2.42,0,0,0,.1-.51C251.63,50.23,251.53,50.16,251.52,50.34Z"/><path class="cls-1" d="M251.64,49.71v0S251.67,49.71,251.64,49.71Z"/><polygon class="cls-1" points="251.56 52.32 251.6 52.29 251.56 52.29 251.56 52.32"/><path class="cls-1" d="M251.73,50.23a.27.27,0,0,0,0-.28,1.6,1.6,0,0,1,0,.31S251.74,50.27,251.73,50.23Z"/><path class="cls-1" d="M251.33,51.28a1.59,1.59,0,0,0,.13-.22C251.39,51.12,251.27,51.26,251.33,51.28Z"/><path class="cls-1" d="M251.59,49.79v0S251.56,49.8,251.59,49.79Z"/><path class="cls-1" d="M251.59,49.79a.54.54,0,0,0,.1.16,1.29,1.29,0,0,0-.05-.21S251.61,49.77,251.59,49.79Z"/><path class="cls-1" d="M253,52.79a.41.41,0,0,1-.18-.65c-.15-.28-.82-.1-1.17.15.09,0,.17,0,.3.3.1-.1.23-.64.42-.4.11.39-.06.32-.16.51.24-.16.36.49.73.4l-.14-.34C252.81,52.76,252.9,52.88,253,52.79Z"/><path class="cls-1" d="M251.59,51.74l0-.12a1.34,1.34,0,0,1-.26.41c.11.2.18.24.25.26V51.7Z"/><path class="cls-1" d="M251.59,51.08c.2.09.29.38.53.2,0-.35-.17-.24-.25-.45,0,.56-.1-.17-.25.24a1.09,1.09,0,0,1,0-.3,2.55,2.55,0,0,1-.13.29h0s.05,0,0,0h0l.08,0c-.06.16-.06,0-.08,0h0a3.75,3.75,0,0,0,.09.57A2.63,2.63,0,0,0,251.59,51.08Z"/><path class="cls-1" d="M252.64,48.22s0,0,0,0S252.64,48.29,252.64,48.22Z"/><path class="cls-1" d="M252.54,48.46a.27.27,0,0,1-.06-.22c.05-.11.07,0,.13,0s-.11-.28-.19,0l0,0c-.06.23-.28.52-.31.48A1,1,0,0,0,252.54,48.46Z"/><path class="cls-1" d="M252.17,49.78l.08.48.17-.24h-.1C252.37,49.76,252.24,49.82,252.17,49.78Z"/><polygon class="cls-1" points="251.46 52.37 251.22 52.31 251.56 52.58 251.46 52.37"/><polygon class="cls-1" points="251.5 52.99 251.3 52.97 251.43 53.13 251.5 52.99"/><path class="cls-1" d="M260.07,54.12l-.14.05A.38.38,0,0,0,260.07,54.12Z"/><path class="cls-1" d="M261.08,54.15l0-.1C261.06,54.1,261,54.14,261.08,54.15Z"/><path class="cls-1" d="M261.65,59.28c-.18.2-.47.43-.25.4l.22-.06A.43.43,0,0,1,261.65,59.28Z"/><path class="cls-1" d="M265.05,57.63l-.07.06.21.14Z"/><path class="cls-1" d="M264.16,57.48l.14-.27A.84.84,0,0,0,264.16,57.48Z"/><path class="cls-1" d="M253.64,53.45l-.22-.14C253.42,53.78,253.53,53.49,253.64,53.45Z"/><path class="cls-1" d="M256.86,56.41a1.17,1.17,0,0,0,.44.13C257.09,56.42,256.92,56.23,256.86,56.41Z"/><path class="cls-1" d="M260.5,51.82c-.09,0-.13.09-.13.13S260.51,51.88,260.5,51.82Z"/><path class="cls-1" d="M257.81,56.54l-.09,0a1,1,0,0,1-.42,0A.39.39,0,0,0,257.81,56.54Z"/><path class="cls-1" d="M246.36,41.73l0,0S246.35,41.73,246.36,41.73Z"/><path class="cls-1" d="M248,43l-.23,0Z"/><path class="cls-1" d="M252,56.59c-.24,0-.06,0,0,0Z"/><path class="cls-1" d="M252.32,55.24a.12.12,0,0,0,.11,0A.12.12,0,0,1,252.32,55.24Z"/><path class="cls-1" d="M259.13,55.19h0S259.1,55.16,259.13,55.19Z"/><path class="cls-1" d="M251.72,56.49a1.09,1.09,0,0,0,.23.06A1.33,1.33,0,0,0,251.72,56.49Z"/><path class="cls-1" d="M251.68,56.59h-.1s0-.06,0-.08,0,0,0,0a.06.06,0,0,0,0,.06Z"/><path class="cls-1" d="M252.29,56.58a1.72,1.72,0,0,1-.34,0s0,0,0,0Z"/><path class="cls-1" d="M254.29,43.12l0,0C254.22,43,254.23,43,254.29,43.12Z"/><polygon class="cls-1" points="262.95 61.62 262.94 61.63 262.96 61.63 262.95 61.62"/><path class="cls-1" d="M263.24,61.45c-.05.27-.11.24-.28.18l.15.63A2.54,2.54,0,0,0,263.24,61.45Z"/><path class="cls-1" d="M257.64,54.15l.33.2c-.41.32-.69.2-.39.48.06-.68,1.29,0,1.35-.73l.21.15c-.06,0-.07,0-.13,0,.42.33.32-.49.87-.38.19,0,.32.15.19.23l.42-.16c.13,0,.1.13,0,.12l.65,0v0a2.49,2.49,0,0,1,.4-.34c.17.1-.08.07,0,.16l.36-.16c.15.18-.15.34-.4.32.33.68.3-.17,1,.23l-.34.08c.21.39.48.26.86.5-.09-.13-.76-.61-.37-.78a.44.44,0,0,0,.46-.05.16.16,0,0,0,.14.18c.07,0,.08,0,.13,0l-.05.32a3.81,3.81,0,0,1,.23-.4c.12,0,0,.28-.11.49,0,0,.08-.06.13-.18s.1-.26.24-.24c0,.19.17.16.4.32-.1.17-.19,0-.28.14a.76.76,0,0,1,.26,0s-.09,0-.13,0,.32-.07.41.13c.36,0-.51.65-.12,1-.1.1-.2,0-.32,0a3,3,0,0,0,.53,1l-.22.4c.24-.29.52.09.75.42a2.42,2.42,0,0,0,.27-.25l.16.53c-.05.06-.16,0-.29-.08l.07.1c-.12.18-.3.08-.48,0l.2-.19a.92.92,0,0,0-.59-.23.27.27,0,0,1,.08.17c-.05,0-.09-.06-.13,0s0,.07.12.16l-.36.12.14,0-.23.68a4.05,4.05,0,0,1,1,1.71c-.26-.2-.43,0-.74-.06.33-.21-.13-.61-.06-1,0,.21-.18.16-.23.11l.28.72c-.25,0-.19.15-.3.34.26-.07.34.07.37.26a1.61,1.61,0,0,0,.11.42c-.17,0-.34-.13-.29-.3-.19.08-.05.14.1.27s.32.29.15.35c0-.06,0-.08-.06-.14.15.21,0,.49-.12.29v-.06l0,.13-.1.12s-.06.12-.09.14h-.15c-.18,0-.35.16-.33.37,0-.06-.09-.51-.11-.6a2,2,0,0,1-.53,1.18l-.2-.2-.25-.18c.36.09,1.18-.23,1.42.18l-1-1,0,0,0,0,1,1a.69.69,0,0,0,0-.56c-.05.1-.53.24-.56.11.4-.35.21-.24.56-.68-.08.14-.65,0-.63-.24.08,0,.56,0,.62.06l-.56-.55c.1.14.48,0,.64-.1-.11.06,0-.48-.05-.63l-.13.24c.08-.63-.79-.62-.76-1.25.11.08.71.19.78-.13a6.3,6.3,0,0,1-1.68-1.07l.15-.12a2,2,0,0,0-.27-.3,3.8,3.8,0,0,1,1.87,1.14c.11-.26.19-.07.15-.48.14-.16.25.21.26.33a8.5,8.5,0,0,0,0-1c-.31.1-.52-.72-.79-.59a5.49,5.49,0,0,1,.57,1c-.33.06-1-.46-1.16-1,.05-.21.6-.1.7-.14a1.62,1.62,0,0,1-.47-.67l.32.21a.72.72,0,0,0-.43-.44.8.8,0,0,1-.45-.51c-.11-.14-.22-.7-.36-.55.09.52-.66,1.45-.89,1.63a5.17,5.17,0,0,0-.43-.79c-.16-.37.55-.58.44-.89,0,.09-.22.15-.29.17s.14-.28-.23-.3c-.13.32-.73-.15-.22.25-.35,0-.35-.1-.75-.12.11.22-.33.74-.62.84a.49.49,0,0,0-.08-.25c-.62,0-.94-.18-1.52-.19-.05-.08-.32-.18-.2-.32a.55.55,0,0,1-.34.18c-.33-.29.39,0,.14-.4,0,.2-.46.27-.71.4.07.3.58.06.83-.07,0,.42-.45.87-1.05,1.06s-.2-.27-.29-.21c-.9-.08-.74.73-1.54.43-.37-.27,0-.53,0-.73.41-.1.6.17.86.16l-.32-.13a.63.63,0,0,1,.53-.07c-.23-.25-1.56,0-2.06-.27-.17.09-.46.18-.44.29l.25,0c.09.22-.68.3-.44.4l-.38.12c-.06,0-.17.07-.19,0l-.06-.12a1.39,1.39,0,0,1-.07-.72l.3-.3c-.09.06-.16.46-.07.54-.07-.06,0-.34.08-.57s.1-.43-.1-.47c-.07.15-.14.32-.2.49a3.7,3.7,0,0,1-.3-.6,1.63,1.63,0,0,1-.11-.81c-.3.22,0,.1-.31.58.43-.48,0,1.62.46.81-.39.64-.14.78-.43,1.65.1-.11.17-.37.16.18,0,0,.05,0,.12,0h0s0,0,0,0,.06-.28.09-.36a.12.12,0,0,1,.08,0s0,.07.11,0l.4-.08a3.6,3.6,0,0,0,.67-.13c.23.05-.18.12-.09.23l.44-.18c-.09.22.6.37-.13.5h.63a2.19,2.19,0,0,0,.61.13.69.69,0,0,0,.37,0c.18,0,.47-.24.3-.07l.61-.14v.06c.6,0,1.24-.37,1.92,0a1.56,1.56,0,0,1,.75-.06l.06.19c.26-.06.78.2.89,0a.49.49,0,0,0,.32.24.69.69,0,0,0,.32,0c.21,0,.42,0,.5,0l.1-.24a2,2,0,0,0,.5.12l.14-.18c.3,0,.21.48.32.79-.08,0-.09-.08-.07-.16-.16.27,0,.44.12.69a.68.68,0,0,1,.11.78.27.27,0,0,1,0,.32l0,0v0l-.12.2a.53.53,0,0,0,.12-.17,1.72,1.72,0,0,0,.09.44l-.24.07v0c-.09.16.11.13.29,0a.71.71,0,0,0,.15.22c-.39.13.13.43-.29.61.21.11.16.82.58.9-.05,0-.08.06-.08,0a.58.58,0,0,0,0,.53L262,62l.41.4a.58.58,0,0,1-.23.22l.73.73a.13.13,0,0,1,0,.12l-.85-.85a.4.4,0,0,1-.18-.12l.09.12.94.94a1.43,1.43,0,0,1,.49-.17,1.58,1.58,0,0,0,.52-.21l0,.2c.27,0,.49-.26.7-.11a.65.65,0,0,0,.58,0c.17-.22.51-.42.52-.8a5.6,5.6,0,0,0,.16-1.16c0-.2,0-.42.07-.62a3,3,0,0,1,.11-.4c-.59.19.27-.46-.19-.51.14-.06.22-.19.34,0-.13-.52.23-.77-.14-1.13.14-.06.2.11.28.06s-.12-.17,0-.22.12.08.18.16c0-.53-.44-.59-.84-.63.19-.27.17-.4-.09-.59.13-.1.27-.25.31.08,0-.19.21-1.13-.11-1.15.09,0,0-.25,0-.3a6.24,6.24,0,0,0,0-.86l-.06.11c-.38-.18-.08-.3-.13-.73h0c.13-.51.07-.62,0-.71s-.05-.17-.08-.7l-.18.19c-.24.11-.22-.1-.29-.38s-.28-.57-.58-.52a.86.86,0,0,1,.1.16c-.17,0-.26-.13-.39-.36s-.34-.46-.54-.49.15-.08.28-.11c-.5-.15-.56-.08-.56,0a.3.3,0,0,1-.3.33c-.08-.17.11-.43-.2-.46-.15-.14-.89.53-1.31.2.09.14.18.27,0,.36s-.88-.5-1.18-.09a.2.2,0,0,1-.06-.11c-.25.11-.81.17-1,.39-.22-.83-1.56.39-1.54-.38l-.77,0,0-.07-.16,0h-.08l-.12.07a1.85,1.85,0,0,0-.25.24c-.06,0,0-.12,0-.16-.18-.08-.24-.11-.37-.07a1.27,1.27,0,0,0-.25.1l-.19.09h-.13l.25-.26c-.07,0,0-.23.1-.44a1.15,1.15,0,0,0,.08-.29c0-.11,0-.1-.09-.32a.21.21,0,0,1,.11.08c-.3-.79.67-1.9-.24-2.19l-.23-.52c-.06.68-.39-.1-.54.18-.05-.27.27-.69.32-.37l-.05.06c.47.12.16-.84.48-.83,0-1.33.21-2.63.22-3.87l-.37.14,0-.44c.08-.11.28-.15.27.16.21-.16-.18-.52-.26-.53.07-.33.16-.34.27-.14s.16.28.17.19l0-.31a.42.42,0,0,1,0,.1,3,3,0,0,0-.24-.35.39.39,0,0,1-.12-.29c0-.19.21-.1.22-.18s0,0,0-.09l-.52-.28.06,0,0,0h0l.29-.13h0v0h0v-.06l0-.11-.05-.2c0-.14-.09-.26-.13-.37,0,.15-.09.3-.14.45-.19-.22-.26-.59-.35-.11a.66.66,0,0,0-.25-.62.88.88,0,0,0-.36-.27l-.48-.08a6,6,0,0,0-.95,0,1,1,0,0,1-.42,0,1.75,1.75,0,0,1-1.09.2c.1.06.17.39-.19.35.12-.67-.66-.27-1-.74.26.32-1,.08-.6.54-.3-.06,0-.26-.26-.42-.71.24-1.57,0-2.45.14,0,.08.14.18-.05.31l-.47-.32c-.2.06-.08.43-.59.21.08,0,.18.14,0,.17-.31,0-.62,0-.91,0l-.22,0,0,.22,0,.43a4.25,4.25,0,0,0,0,.94l.08.93c0,.13,0,.3.1.39l.4,0a2.59,2.59,0,0,0,.41,0l.48,0,1.37-.07c-.24,0-.09,0,.1-.06-.12,0,0,0,0-.07l.74,0c.13-.06.78-.11.86-.14l-.23,0c.3,0-.44,0-.4-.12-.34.07-.91-.17-1.48-.07-.12,0,.11,0,0-.07a1.59,1.59,0,0,1-.64,0l0,0a2,2,0,0,0-.48,0c-.12,0-.18,0-.26,0s-.07,0-.09,0l.07-.16a1.14,1.14,0,0,0,0-.32l-.12,0a.24.24,0,0,1,.06-.18c-.21-.23,0,.35-.19.18.12-.09.06-.32.12-.49s.29-.12.4.07c.14,0-.13-.21,0-.2l.07.12s0-.1,0-.15.28.18.27.29a.33.33,0,0,0-.18,0c.24.16.79,0,.88.07l-.33-.1c.92-.08,2.05.26,2.93-.14l-.07-.11c.67-.24.54.1,1.28,0l0,0a.88.88,0,0,1,.55-.17c-.18.14.36.25.12.4.73-.24.36-.18.83-.61l.12.18a.69.69,0,0,1,.51-.32c-.23.17.13.26-.09.49.2.17.31.06.49,0s.31,0,.16.27c.56-.3-.12-.5,0-.5,0-.06.09-.2.21-.21a.36.36,0,0,1,.33.13c.06.07,0,.25-.11.44s-.27.32-.21.55l-.11-.43c0,.06,0,.12,0,.18s0-.08-.05-.15c-.1.26.24.6.07.84.32,0,0,.27.39.31,0-.08,0-.22-.05-.26s0-.08-.08-.21c.16.2.6.52.38,1.06a.88.88,0,0,1-.24-.31c-.12.16.08.3,0,.47-.4,0-.09-.75-.4-1-.16.07.29.63-.14.44.55.25-.06.61.36,1l-.23,0c0,.06.15.2.14.33l-.31-.23c.27.35-.22.66-.07,1,0-.69.28-.15.45-.44.33.85-.61.49-.49,1.44,0-.13.14-.49.25-.28a1.26,1.26,0,0,1-.26.53c.06.63.24-.1.39.17-.28.21.12.31.22.58h-.24c-.15.71.5.19.32.83l-.34-.27L254,48l-.27-.07a.88.88,0,0,1,.08.84c.17-.09.44,0,.45.36s-.23-.12-.19.33c-.15-.1-.34-.21-.12-.41-.08,0-.15-.1-.23-.12-.16.24,0,.59,0,.75,0-.06,0-.14.06-.17l.34.65c-.09.1-.17,0-.24-.06,0,.13.14.22.16.42-.19-.05-.4,0-.49-.32l.22.63a.34.34,0,0,0-.15.2c-.06.11-.11.21-.15.14a3,3,0,0,0,.14,1.08,2.56,2.56,0,0,1,.11,1.15s.08.07.11.2-.07.43,0,.55l.47.07a3.48,3.48,0,0,0,1.24-.1,4.25,4.25,0,0,0,.37.36c.38,0,.22-.15.15-.27s-.07-.24.45-.3c.72-.1.29.31.49.41.24-.18.66-.53,1.08-.24C257.89,54.18,257.78,54.13,257.64,54.15Zm4.95-.09c-.1,0-.29.2-.36.06C262.34,53.84,262.43,54,262.59,54.06Zm2,4.29c-.08-.07,0-.18.05-.3A.42.42,0,0,1,264.58,58.35Zm-10.19-2h0l.18.06A.91.91,0,0,0,254.39,56.39Zm-.66-.1c-.08,0-.08.06-.06.1a.54.54,0,0,1,.39,0C254,56.28,254,56.23,253.73,56.29Zm2.07-14.57-.05.07C255.66,41.63,255.73,41.68,255.8,41.72Z"/><path class="cls-1" d="M264.26,57.5a.22.22,0,0,1,.13,0S264.3,57.42,264.26,57.5Z"/><path class="cls-1" d="M253.68,53.47v0h0Z"/><path class="cls-1" d="M261.14,54.42a.5.5,0,0,1,.18.18C261.34,54.55,261.31,54.49,261.14,54.42Z"/><path class="cls-1" d="M251.33,54.78a3.12,3.12,0,0,0,.09.46,1,1,0,0,1,.05-.48C251.42,54.8,251.34,54.94,251.33,54.78Z"/><path class="cls-1" d="M252.77,51.66s0-.09,0-.13h-.11C252.63,51.72,252.72,51.84,252.77,51.66Z"/><path class="cls-1" d="M252.12,54.05c.2-.09.13-.29.09-.56v0C251.92,53.48,252,53.79,252.12,54.05Z"/><path class="cls-1" d="M252.2,53.43a.79.79,0,0,1,0-.21C252.07,53.21,252.17,53.27,252.2,53.43Z"/><path class="cls-1" d="M252.8,56.42c-.12-.05-.26.26-.3.18-.17.13.16,0,.39-.05S253.25,56.35,252.8,56.42Z"/><path class="cls-1" d="M252.78,53.69l-.25.13.21.07Z"/><path class="cls-1" d="M252.67,55.41c0-.07,0-.25,0-.37,0,0-.07,0-.09,0C252.63,55.22,252.54,55.56,252.67,55.41Z"/><path class="cls-1" d="M252.61,55c0-.12,0-.22-.05-.25A1.11,1.11,0,0,0,252.61,55Z"/><polygon class="cls-1" points="252.86 54.09 252.81 54.21 252.8 54.44 252.86 54.09"/><path class="cls-1" d="M256.24,55.46l.35-.07c0-.09-.06-.14-.18-.11S256.19,55.38,256.24,55.46Z"/><path class="cls-1" d="M255.21,54.77c.09.06.1.11.15.19l0-.31Z"/><path class="cls-1" d="M256.22,54.7c0-.09.51-.25.07-.23C256.25,54.56,255.9,54.63,256.22,54.7Z"/><path class="cls-1" d="M261.43,55.43l-.08,0-.2.47Z"/><path class="cls-1" d="M264.25,59.59c.12-.41-.32-.09-.16-.46-.12-.1-.13.3-.23.2C264,59.58,263.91,59.71,264.25,59.59Z"/><path class="cls-1" d="M263.86,59.33l-.08-.13A.32.32,0,0,0,263.86,59.33Z"/><polygon class="cls-1" points="248.95 42.91 249.21 42.87 249.04 42.89 248.95 42.91"/><path class="cls-1" d="M249.45,42.81h.06l.16,0Z"/><path class="cls-1" d="M263.23,54.72v-.08c0-.08,0-.09-.12-.1l.1.09S263.23,54.69,263.23,54.72Z"/><polygon class="cls-1" points="259.73 54.43 259.79 54.44 259.68 54.15 259.73 54.43"/><path class="cls-1" d="M256.53,54.77a2.23,2.23,0,0,0,.37,0l.2,0a.27.27,0,0,1-.18,0l-.22-.08C256.58,54.59,256.52,54.59,256.53,54.77Z"/><path class="cls-1" d="M238.56,53h0Z"/><path class="cls-1" d="M238.3,52.83h0l0,0Z"/><path class="cls-1" d="M238.06,52.7c0,.14.08,0,.13.09v0l0-.07C238.16,52.72,238.09,52.75,238.06,52.7Z"/><path class="cls-1" d="M237.93,52.25c0,.08,0,0,0,0v0Z"/><path class="cls-1" d="M238,52.28s0-.07,0,0Z"/><path class="cls-1" d="M237.83,52.19l0,0s0-.1,0-.12S237.81,52.1,237.83,52.19Z"/><path class="cls-1" d="M237.8,52.31l0,0S237.81,52.26,237.8,52.31Z"/><path class="cls-1" d="M237.85,52.27l0,0s0,.1,0,0C237.83,52.34,237.84,52.29,237.85,52.27Z"/><path class="cls-1" d="M237.88,52.32c0,.06,0,.1,0,.13S237.94,52.36,237.88,52.32Z"/><path class="cls-1" d="M238,52.83l0,.05,0,0S238,52.79,238,52.83Z"/><path class="cls-1" d="M237.62,51.83a2,2,0,0,0,0,.23l0,0A.77.77,0,0,1,237.62,51.83Z"/><path class="cls-1" d="M237.64,52.06l0,.06S237.64,52.12,237.64,52.06Z"/><path class="cls-1" d="M237.79,52.53l.07-.11a1,1,0,0,0-.08.11Z"/><polygon class="cls-1" points="237.48 51.66 237.5 51.54 237.46 51.71 237.48 51.66"/><path class="cls-1" d="M237.38,51.57c0-.11,0-.25,0-.31s0,.07-.07.15S237.35,51.43,237.38,51.57Z"/><path class="cls-1" d="M237.28,51.53a.68.68,0,0,0,0-.12A.39.39,0,0,0,237.28,51.53Z"/><path class="cls-1" d="M237.53,52a.56.56,0,0,0,0-.2l0,.19Z"/><path class="cls-1" d="M237.52,52h0l0,0Z"/><path class="cls-1" d="M237.54,52h0S237.54,52.06,237.54,52Z"/><path class="cls-1" d="M237.7,52.35a.32.32,0,0,0,0,.27C237.69,52.53,237.66,52.45,237.7,52.35Z"/><path class="cls-1" d="M237.56,52.26l0,.06a.65.65,0,0,1,0-.14Z"/><polygon class="cls-1" points="237.54 52.3 237.56 52.26 237.54 52.23 237.54 52.3"/><path class="cls-1" d="M237.35,51.79c0,.07,0,.06-.06.05a.2.2,0,0,0,.07.12C237.36,51.91,237.37,51.81,237.35,51.79Z"/><path class="cls-1" d="M237.43,51.92h0Z"/><polygon class="cls-1" points="237.06 51.78 237.06 51.82 237.06 51.78 237.06 51.78"/><path class="cls-1" d="M237.36,52s0,0,0,0h0Z"/><path class="cls-1" d="M237.22,51.57l0,.14C237.24,51.63,237.22,51.52,237.22,51.57Z"/><path class="cls-1" d="M237.42,51.87Z"/><path class="cls-1" d="M237.42,51.87a.87.87,0,0,0,0,.1l0,0Z"/><path class="cls-1" d="M237,53.18c0-.2,0-.39.07-.18a4.46,4.46,0,0,0,0-1.18.72.72,0,0,1-.05.3.75.75,0,0,1,.08.43c-.06.11-.05-.07-.09-.17,0,.25-.06.38,0,.73l0-.13A.66.66,0,0,0,237,53.18Z"/><path class="cls-1" d="M237.16,51.83v0a1.61,1.61,0,0,1,0-.26.69.69,0,0,0-.06.24l.1,0Z"/><path class="cls-1" d="M237.25,51.84a2.23,2.23,0,0,0,0,.53c.05,0,0-.17.06-.24s0-.1,0-.27a0,0,0,0,1,0,0,1,1,0,0,1,0-.13v0h0s0,.05,0,0h0v.08c0-.07,0-.06,0-.08v0h0l-.08.07S237.21,51.84,237.25,51.84Z"/><path class="cls-1" d="M237.63,52.93v0S237.62,52.93,237.63,52.93Z"/><path class="cls-1" d="M237.6,52.84s0-.09,0-.07a.57.57,0,0,1,0,.13.24.24,0,0,0,0-.19v0a1.33,1.33,0,0,1-.07-.29C237.57,52.59,237.58,52.69,237.6,52.84Z"/><path class="cls-1" d="M237.42,52.45l-.06.06,0,.18v-.1S237.42,52.52,237.42,52.45Z"/><polygon class="cls-1" points="237.04 51.68 237.05 51.44 237 51.78 237.04 51.68"/><polygon class="cls-1" points="236.91 51.73 236.9 51.53 236.87 51.66 236.91 51.73"/><path class="cls-1" d="M236.17,54l0-.06S236.18,54,236.17,54Z"/><path class="cls-1" d="M236,54v.1C236,54,236,54,236,54Z"/><path class="cls-1" d="M234.14,53c-.18-.07-.44-.19-.25-.07l.19.11S234.09,53,234.14,53Z"/><path class="cls-1" d="M235.25,55l.06,0h-.21Z"/><path class="cls-1" d="M236.14,55,236,55Z"/><path class="cls-1" d="M236.93,53.75v-.22S236.93,53.64,236.93,53.75Z"/><path class="cls-1" d="M235.86,52.35l-.07-.18C235.82,52.25,235.82,52.23,235.86,52.35Z"/><path class="cls-1" d="M236.3,56.3a.56.56,0,0,0,0-.13A.28.28,0,0,0,236.3,56.3Z"/><path class="cls-1" d="M235.73,51.94V52c0,.1,0,.13,0,.18Z"/><path class="cls-1" d="M238.52,53.41h0Z"/><path class="cls-1" d="M238.58,53.31v0Z"/><path class="cls-1" d="M236.53,51.68s0,0,0,0Z"/><path class="cls-1" d="M236.69,52.53v0Z"/><path class="cls-1" d="M235.86,53.23h0C235.87,53.27,235.87,53.26,235.86,53.23Z"/><path class="cls-1" d="M236.56,51.78a.16.16,0,0,0,0-.06S236.54,51.75,236.56,51.78Z"/><path class="cls-1" d="M236.54,51.68l0,0S236.55,51.64,236.54,51.68Z"/><path class="cls-1" d="M236.51,51.7s0,0,0,0v0Z"/><path class="cls-1" d="M238.24,54.47v0C238.27,54.4,238.26,54.41,238.24,54.47Z"/><polygon class="cls-1" points="236.13 54.02 236.12 54.02 236.11 54.02 236.13 54.02"/><path class="cls-1" d="M236.29,54.07c-.27,0-.23,0-.18,0l-.62.07Z"/><path class="cls-1" d="M236.51,53.93l-.06-.19c0-.32.08-.21,0-.49,0,.68-.18.08-.14.76l0-.14s0,0,0,0c-.09-.32,0,.49-.09.4a.41.41,0,0,1-.05-.23l0,.17s0-.13,0-.12l-.08.06v0c0,.1,0,.27,0,.34,0-.1,0-.07,0-.16l0,.17c0-.18,0-.35,0-.33-.1-.67,0,.18-.16-.22l0-.08c-.06-.39-.09-.24-.16-.48a3,3,0,0,1,.12.77s0-.08-.06.06c0-.24-.05-.18-.08-.17l0-.31a2.3,2.3,0,0,0,0,.4,1.35,1.35,0,0,1-.11-.49c-.07-.05.09.4,0,.46-.07-.12-.1,0-.14.2-.06-.1,0-.19,0-.28v.25s0-.08,0-.12,0,.32,0,.41c0,.35-.15-.51-.17-.11,0-.09,0-.2,0-.32a.75.75,0,0,0,0,.17l1.08.89a1.79,1.79,0,0,0-.38-.06L236,55a2.43,2.43,0,0,1-.76,0l-.27,0-.17-.06H235a2.38,2.38,0,0,1,.49,0l-.2,0a4,4,0,0,0,.6,0l-.09,0H236s0,0-.12,0l.36,0H236l.22-.11a4.75,4.75,0,0,1-1-.15,6.89,6.89,0,0,0,.74-.05c-.33.05.14.07.08.13a.43.43,0,0,1,.23,0l-.3-.08a.55.55,0,0,0,.29-.06c-.5.05-.34,0-.5-.08.17,0,.34,0,.3,0,.38-.08-.59,0-.27-.1,0,0,0,0,.06,0-.15,0,0-.09.11-.09v0c0-.09,0-.24-.44-.22l.6,0-1.44,0a11.2,11.2,0,0,1,1.44-.08s.11-.05,0-.08a4,4,0,0,1-.56.06,4.36,4.36,0,0,0,.55-.14,2.3,2.3,0,0,1-.63,0c.08,0,.56-.05.62,0l-.56,0a4,4,0,0,0,.63-.07c-.08,0,0,0,0-.05l-.14.6h0l-.06,0,0,0h0l.13-.53h0l-.12.52h0l-.05-.06-.22-.17c-.16-.12-.33-.26-.29-.28a5.19,5.19,0,0,0,.65.43A7,7,0,0,1,234.74,53l.14.09-.09-.17A13.53,13.53,0,0,0,236,54.15c.11.06.16.11.16.08a.58.58,0,0,1,.18.16l.11,0c-.26-.21-.24-.24-.45-.42l.23.26c-.27-.19-.72-.63-.63-.64s.44.41.52.48c-.08-.08-.14-.17-.08-.11l.12.13c.05,0,0,0-.09-.1l-.15-.17a2.24,2.24,0,0,1-.13-.19l0,.06h0l0,0-.17-.23c-.23-.31-.44-.6-.51-.73s.4.19.46.38a1.4,1.4,0,0,1,.06.24l0,.08v0s0,0,0,0h0V54h0v0s0,0,0,0h0s0,0,0-.13.06.07.13,0a4.77,4.77,0,0,1,0-.85c0,.08,0,.19,0,.25s.17.16.26.14a1.47,1.47,0,0,1,.13.3c0-.06,0-.17,0-.19.17.25-.06.07.1.39a1.2,1.2,0,0,1,0-.43c-.14-.27-.12,0-.13.12-.12-.39-.19-.82-.28-1l.27-.07v0c.05-.11,0,.27,0,.21s.07-.75.16-.46a7.06,7.06,0,0,1,.05.73c-.05.11-.09-.16-.12-.15l.05.12c0,.09-.05.17-.07.09,0,.24.2,0,.32.23a.94.94,0,0,0,0-.29l0,0c0-.21,0-.3,0-.4s0-.4.09-.28l0,.3c0-.09-.05-.18-.05-.08,0-.14.13.4.1,0l-.07-.21c0-.08,0-.2,0-.29s.08-.15.12-.11c-.07-.3,0,0-.12-.31.07.22,0,.22-.05.22s0,0,0,.23c-.08-.4-.07-.16-.14-.51,0,.1,0,.19,0,.15v.09h0s0,.09,0,.15a1.13,1.13,0,0,1-.05.35s0-.12,0-.22v.18a1.61,1.61,0,0,1,0-.5h0c0-.12-.06-.16-.08-.07s0,.26,0,.08l-.06.15v-.06s0,0-.05.06l-.28.63a3.09,3.09,0,0,1-.2-.55c0-.06,0,.09,0,0l0-.19c0,.07,0-.19,0,0,0-.25,0-.28,0-.26s0,.23,0,.37,0,.4,0,.59v-.92h-.12l-.32.07-.19,0,.08.24a.57.57,0,0,0-.38.41l.15.17c0,.2-.28,0-.35.15-.06-.06,0-.07,0-.05-.49-.21.11.45-.24.3.05.07,0,.07,0,0h0l-.12,0,.12,0a.15.15,0,0,0,0,.12l-.2-.12h0c-.09,0,.08.08.24.16l.1.12c-.18-.11-.15-.06-.14,0l-.13.56s0,0-.16,0c.2,0,.16.1.59.08h-.09c-.05,0-.09.06,0,.07l-.3,0,.41,0a1.7,1.7,0,0,1-.53,0c.37.05.14.05.51.09h-.2s.27,0,.11.07c-.37.08,0,.27-.37.43.58-.07-.25.08.2,0a1,1,0,0,1-.34,0c.14.06-.21.12.18.14-.14,0-.21,0-.29,0s.12,0,0,0a.31.31,0,0,1-.17,0c0,.07.45,0,.85,0-.19,0-.16.07.1.08-.13,0-.26,0-.31,0s-.18.16.14.14c-.05,0-.05,0,0,0l.77.64a.43.43,0,0,0,0-.05c.06,0,.06.05.11,0l0-.05c0-.38,0-.08.08-.13v0c.13.27,0-.14.16.18l0-.24c0-.52.12.3.15.1l0-.14c0-.17.15.7.19.76a.34.34,0,0,1,0,.11c.11.3,0-.31,0-.39a2.22,2.22,0,0,0,.07.46c0,.14.07-.55.15-.23a1.17,1.17,0,0,1,0-.36c0-.05.16.49.17.08,0,0,0,.07,0,.1a1.2,1.2,0,0,0,.1-.4c.09.82.17-.41.23.35l.09,0v.08c.06,0,.07-.14.09-.32a.92.92,0,0,1,0,.16c.1.15.11.12.17-.26l0,.24c0-.14.15.39.23.09v.12c.09-.3.27.68.27-.23l.06-.22c-.09-.07,0-.39,0-.54s.1.27.06.31v0c0,.47.12.16.13.48.17,0,.35.23.51.24l0-.36.06,0c0,.08,0,.28,0,.27,0,.2.07-.18.07-.26.08.15,0,.43,0,.44l0,0v0c0-.15,0-.31.08-.3a1.66,1.66,0,0,1,0,.24s0,0,0,0l.14,0-.06-.29c0-.14.1,0,0-.31.08.28.08.23.08.13s0-.21,0-.16c0-.25,0-.3,0-.35s0-.29,0-.31c.05.55,0,.12.05.42l0-.49s0,.17,0,.23c0-.3,0-.2,0-.43,0,0,0-.13,0-.2l0,.13s0-.27,0-.19v-.1c0-.53,0,.09,0-.88v0s0,0,0,0v-.23c0-.06,0,0,0,0s0,0,0,.13v0h0c0,.08,0,.07,0,.09v.08s0,0,0,0,0,0,0,.11c0-.14,0,.14,0-.08v.17a.71.71,0,0,1,0-.14v0c0-.07,0,.07,0,.05v0a2.85,2.85,0,0,0,0,.35v.07c0,.21,0,0,0,.09v0c0,.1,0,.16,0,.17l0-.31c0,.21,0,.16,0,.56v-.15l0,.33c0-.15,0-.26,0-.46s0,.49,0-.06c.05.54,0,.23,0,.35a2.6,2.6,0,0,1,0,.38,5.12,5.12,0,0,1-.12-.64s0,0,0,0-.06.18-.1,0c0,.31-.05,0-.06.38l.08-.1c0,.11-.08.57-.16.35s0-.18,0-.24,0,.08-.06,0c0-.4.1-.09.14-.4s-.09.29-.07-.14c0,.55-.08-.06-.14.36V54s0,.15,0,.14l0-.31c0,.27-.09-.22-.14-.08.1,0,0,.29.07.46-.11.32-.07-.62-.21-.5,0,0,.07.14.05.25a.8.8,0,0,1-.08-.26c-.09,0,0,.24,0,.39,0-.29,0,.12-.07.21v-.24c-.1-.15,0,.5-.11.32l0-.34,0,.09v-.27c-.05.2-.06.15-.12.08,0,.17,0,.43,0,.44s0-.23,0-.19c0-.15,0-.34,0-.12v-.23c0-.16-.09,0-.11,0a.11.11,0,0,1,0,0l-.08.34a.59.59,0,0,1,0-.23s0,.13,0,.16a1.87,1.87,0,0,1,0-.5l-.08.22c0-.08-.05-.23-.05-.3s-.1.38-.17.23a.36.36,0,0,1,0,.11c-.06,0-.13-.28-.18,0l-.07-.35c0,.08.09.44,0,.57s0-.3-.07-.39c0,.18-.06.54-.14.25C236.47,53.91,236.49,54,236.51,53.93Zm-.68.18s0-.21,0-.06S235.86,54.19,235.83,54.11Zm-.13.78c.08,0,0,0,0,0S235.64,54.91,235.7,54.89Zm.7-3h0C236.38,51.82,236.39,51.86,236.4,51.9Zm.06.1a.31.31,0,0,0,0-.1c0,.06,0,.06,0,.05S236.45,52.05,236.46,52Zm2,4.08V56C238.46,56,238.45,56,238.44,56.08Z"/><path class="cls-1" d="M236,55l-.13,0A.3.3,0,0,0,236,55Z"/><polygon class="cls-1" points="236.93 53.79 236.93 53.79 236.93 53.75 236.93 53.79"/><path class="cls-1" d="M235.67,53.4s0,0,0,.05Z"/><path class="cls-1" d="M236.64,51.56l0,.07s0,0,0,.07A.45.45,0,0,1,236.64,51.56Z"/><path class="cls-1" d="M237.17,53s0,0,0,0v-.11S237.14,53,237.17,53Z"/><path class="cls-1" d="M236.78,52.35c0,.2.06.13.09.09h0C236.85,52.16,236.81,52.25,236.78,52.35Z"/><path class="cls-1" d="M236.88,52.43s0,0,0,0S236.9,52.4,236.88,52.43Z"/><path class="cls-1" d="M236.5,51.86s0-.26,0-.18C236.49,51.42,236.46,52,236.5,51.86Z"/><polygon class="cls-1" points="236.9 53.01 236.85 52.76 236.87 52.97 236.9 53.01"/><path class="cls-1" d="M236.67,52.85l.05.07a.14.14,0,0,1,0-.09S236.66,52.78,236.67,52.85Z"/><path class="cls-1" d="M236.72,52.83s0,0,0,0S236.73,52.8,236.72,52.83Z"/><polygon class="cls-1" points="236.85 53.09 236.83 53.04 236.8 53.03 236.85 53.09"/><path class="cls-1" d="M236.23,52.86v0l-.1,0V53c0,.08.07.13.07.09v0h0A.31.31,0,0,0,236.23,52.86Z"/><path class="cls-1" d="M236.39,53.53a.84.84,0,0,1,0-.19v.31Z"/><path class="cls-1" d="M236.24,53.62a.52.52,0,0,1,0,.11l.28-.07c0,.07,0,.13.06.11l-.34.08h0C236.24,53.76,236.29,53.68,236.24,53.62Z"/><polygon class="cls-1" points="235.62 53.36 235.63 53.35 235.39 52.9 235.62 53.36"/><path class="cls-1" d="M236.27,54.44c.12,0-.25-.18-.11-.12-.09-.08-.12,0-.2-.12C236.05,54.29,236,54.26,236.27,54.44Z"/><path class="cls-1" d="M236,54.2l-.06-.05Z"/><polygon class="cls-1" points="238.58 53.14 238.58 53.09 238.58 53.12 238.58 53.14"/><path class="cls-1" d="M238.57,53h0v0Z"/><path class="cls-1" d="M235.67,53.46v.08c0,.09,0,.09,0,.1Z"/><polygon class="cls-1" points="236.19 53.69 236.19 53.68 236.22 53.97 236.19 53.69"/><path class="cls-1" d="M236.6,53.3s0,.05-.06,0S236.62,53.66,236.6,53.3Z"/><text class="cls-3" transform="translate(1.12 99.67)">R<tspan class="cls-4" x="44.09" y="0">e</tspan><tspan class="cls-5" x="78.45" y="0" xml:space="preserve">cipe   RESCUE</tspan></text><text class="cls-6" transform="translate(0 101.33)">R<tspan class="cls-4" x="44.09" y="0">e</tspan><tspan class="cls-5" x="78.45" y="0" xml:space="preserve">cipe   RESCUE</tspan></text><path class="cls-7" d="M279.88,54.81V53.65l-.17-1.34-.42-2.09L279,49.14l-.17-.75-.42-1.34-.5-1.67L277,43.46l-.75-1.5-.59-.83-.5-1-.58-.84-1.34-1.58L271.2,35.2l-1.76-1.67-1.75-1.42-2.34-1.5-1.75-.92-1.33-.75-1.17-.58-1.17-.42-1.25-.42-.75-.33-1.09-.25-1.67-.42-1.5-.25h-.92l-2-.16-2.92.08-2-.08-1.34.25-2.09.33-2.25.75-1.08.5-1.76.5L235,29.53l-2,1-2.25,1.25-.92.92-.66.33-.84.84-.83.92-.59.75-.83.75-1.42,1.92L223,40.71l-.83,1.84-.75,1.16-.84,2.17L220,47.8l-.25,1.34L219,51.23l-.17,1.5-.25,1.58v2.42l-.08,1.42.08,1.17.25,1.42.08,1,.34,1.67.42,2,.41,1.09.5,1.83,1.09,1.92,1,1.84,1.17,2.25,3,3.59.92.92,1.42,1.25,1.17,1.09.83.5.75.58,1.09.58.92.59.83.42,1.67.91,2,.75,1.5.59,1.09.25.83.25,1.51.33h2.08l1.67.25,1.25.09h1.42l1.92.16h2.42l1.75-.25,2.09-.58,1.75-.58.92-.34,1.42-.58L263.94,84l1.66-.92,1-.66.58-.5.83-.5.67-.59.75-.58.59-.5.75-.76,1.08-.83.92-.92.5-.58.34-.59.5-.75.58-.75.67-.83.42-.84.58-1,.75-1.58.67-1.84.75-2,.33-1.42.25-1,.25-1.67.09-1.34.16-1.33.17-2.17.17-1.42ZM263.3,63a1.51,1.51,0,0,0-.56.11,6.35,6.35,0,0,0-.91.11c-.79,0-4.85.12-8.23.12V75.51l-8.92.23s-.56-.34-.56-.57a1.4,1.4,0,0,0-.12-.56,6.13,6.13,0,0,0-.11-.9c0-.79-.11-6.21-.11-10.38-3.73-.12-8.13-.12-9.25-.12-.91,0-.91-1.13-.91-1.69V61l.12-7.11.33-.45c1.25.22,6.21.11,9.71.11,0-4.4.11-10.38.11-11.62,0-.91,1.13-.91,1.69-.91h.57l7.11.12.45.33c-.23,1.36-.11,8.24-.11,12.08h10l.22,8.91S263.53,63,263.3,63Z"/><path class="cls-8" d="M279.88,54.81V53.65l-.17-1.34-.42-2.09L279,49.14l-.17-.75-.42-1.34-.5-1.67L277,43.46l-.75-1.5-.59-.83-.5-1-.58-.84-1.34-1.58L271.2,35.2l-1.76-1.67-1.75-1.42-2.34-1.5-1.75-.92-1.33-.75-1.17-.58-1.17-.42-1.25-.42-.75-.33-1.09-.25-1.67-.42-1.5-.25h-.92l-2-.16-2.92.08-2-.08-1.34.25-2.09.33-2.25.75-1.08.5-1.76.5L235,29.53l-2,1-2.25,1.25-.92.92-.66.33-.84.84-.83.92-.59.75-.83.75-1.42,1.92L223,40.71l-.83,1.84-.75,1.16-.84,2.17L220,47.8l-.25,1.34L219,51.23l-.17,1.5-.25,1.58v2.42l-.08,1.42.08,1.17.25,1.42.08,1,.34,1.67.42,2,.41,1.09.5,1.83,1.09,1.92,1,1.84,1.17,2.25,3,3.59.92.92,1.42,1.25,1.17,1.09.83.5.75.58,1.09.58.92.59.83.42,1.67.91,2,.75,1.5.59,1.09.25.83.25,1.51.33h2.08l1.67.25,1.25.09h1.42l1.92.16h2.42l1.75-.25,2.09-.58,1.75-.58.92-.34,1.42-.58L263.94,84l1.66-.92,1-.66.58-.5.83-.5.67-.59.75-.58.59-.5.75-.76,1.08-.83.92-.92.5-.58.34-.59.5-.75.58-.75.67-.83.42-.84.58-1,.75-1.58.67-1.84.75-2,.33-1.42.25-1,.25-1.67.09-1.34.16-1.33.17-2.17.17-1.42ZM263.3,63a1.51,1.51,0,0,0-.56.11,6.35,6.35,0,0,0-.91.11c-.79,0-4.85.12-8.23.12V75.51l-8.92.23s-.56-.34-.56-.57a1.4,1.4,0,0,0-.12-.56,6.13,6.13,0,0,0-.11-.9c0-.79-.11-6.21-.11-10.38-3.73-.12-8.13-.12-9.25-.12-.91,0-.91-1.13-.91-1.69V61l.12-7.11.33-.45c1.25.22,6.21.11,9.71.11,0-4.4.11-10.38.11-11.62,0-.91,1.13-.91,1.69-.91h.57l7.11.12.45.33c-.23,1.36-.11,8.24-.11,12.08h10l.22,8.91S263.53,63,263.3,63Z"/><path class="cls-7" d="M263.78,63.44a2.72,2.72,0,0,1-.41.2c-.05,0,0,.06-.07.07a.74.74,0,0,0,.54-.21s0-.07,0-.08S263.77,63.43,263.78,63.44Z"/><polygon class="cls-7" points="264.17 59.99 264.22 60.05 264.1 59.6 264.17 59.99"/><path class="cls-7" d="M264.1,57.11c-.17.27.06,1,0,1.56l0,.08.15.23A17.05,17.05,0,0,1,264.1,57.11Z"/><path class="cls-7" d="M264.45,55.56c-.07.09-.07-.33,0,.36v-.36Z"/><path class="cls-7" d="M264.45,55.85c0,.31.06-.2,0,0Z"/><path class="cls-7" d="M264.38,54.45l.07.4c0-.09,0-.44.07-.31,0-.14,0-.24,0-.32s0-.12,0-.12A1.44,1.44,0,0,0,264.38,54.45Z"/><path class="cls-7" d="M264.23,53.85l0,.33A.75.75,0,0,0,264.23,53.85Z"/><path class="cls-7" d="M264.33,54.72c0-.15,0-.26-.06-.54,0,.09-.09.14,0,.3C264.24,54.45,264.29,54.53,264.33,54.72Z"/><path class="cls-7" d="M264.31,55c0,.22-.05.51-.12.11C264.24,55.85,264.36,55.73,264.31,55Z"/><path class="cls-7" d="M263.91,57l0,.31.07.25C263.9,57.4,264,56.94,263.91,57Z"/><path class="cls-7" d="M262.1,52.7s.13.1.16.15l.3,0C262.41,52.78,262.12,52.76,262.1,52.7Z"/><path class="cls-7" d="M262.26,52.85l-.44.07C262.22,52.92,262.29,52.89,262.26,52.85Z"/><path class="cls-7" d="M264,53.83l.08.5c0,.19.06.26.08.4-.05-.23-.11-.74-.16-1.09Z"/><polygon class="cls-7" points="260.41 52.7 260.66 52.61 260.21 52.74 260.41 52.7"/><path class="cls-7" d="M259.28,52.71c.19-.07-.25-.12,0-.17a4.13,4.13,0,0,0-.8.14A2.49,2.49,0,0,1,259.28,52.71Z"/><path class="cls-7" d="M258,52.76l.4-.08A1.77,1.77,0,0,0,258,52.76Z"/><path class="cls-7" d="M261.07,52.9a.54.54,0,0,0-.35-.11l.17.11Z"/><path class="cls-7" d="M260.9,52.9h0Z"/><path class="cls-7" d="M261.11,52.9h0Z"/><path class="cls-7" d="M263.13,53c-.49.06-.92.12-.42.21C263,53.17,262.53,53.12,263.13,53Z"/><path class="cls-7" d="M261.33,53l.47,0s-.1-.07,0-.1Z"/><polygon class="cls-7" points="261.1 53.07 261.33 53.03 261.15 53.02 261.1 53.07"/><path class="cls-7" d="M258.84,52.86a4.53,4.53,0,0,1-.68.06l.81,0S259.13,52.85,258.84,52.86Z"/><path class="cls-7" d="M259.84,52.89h0S259.84,52.91,259.84,52.89Z"/><polygon class="cls-7" points="255.69 52.91 255.73 52.93 255.74 52.92 255.69 52.91"/><path class="cls-7" d="M259,53a1.13,1.13,0,0,0,.44,0L259,53S259,53,259,53Z"/><path class="cls-7" d="M257.34,52.81l.35.06A.71.71,0,0,0,257.34,52.81Z"/><path class="cls-7" d="M259.73,52.86h0C259.69,52.84,259.7,52.85,259.73,52.86Z"/><path class="cls-7" d="M259.73,52.86l-.27.07.33,0A.11.11,0,0,1,259.73,52.86Z"/><path class="cls-7" d="M254.94,53.6a1.4,1.4,0,0,1,1-.08c.45-.08.15-.4-.24-.59,0,0,0,.09-.48.15.16.05,1,.12.64.21a1.42,1.42,0,0,1-.8-.09c.24.13-.77.18-.66.37l.55-.07S254.79,53.57,254.94,53.6Z"/><path class="cls-7" d="M256.62,52.94h.19a3.18,3.18,0,0,1-.66-.13c-.32.05-.39.08-.41.12h.88Z"/><path class="cls-7" d="M257.67,52.93c-.15.11-.61.16-.33.27.56,0,.39-.09.73-.13-.91,0,.26-.06-.4-.13l.49,0-.47-.05h0s0,0,0,0h0l0,0c-.27,0,0,0,0,0a0,0,0,0,0,0,0h0l-.91.06A7.86,7.86,0,0,0,257.67,52.93Z"/><path class="cls-7" d="M262.22,53.47l0,0C262.13,53.46,262.11,53.47,262.22,53.47Z"/><path class="cls-7" d="M261.85,53.41a.65.65,0,0,1,.33,0c.19,0,0,0,0,.09s.45-.08.05-.13h-.07a2.34,2.34,0,0,1-.77-.18A1.43,1.43,0,0,0,261.85,53.41Z"/><path class="cls-7" d="M259.73,53.2l-.75,0,.38.09,0-.05C259.77,53.31,259.68,53.24,259.73,53.2Z"/><polygon class="cls-7" points="255.6 52.86 255.71 52.75 255.27 52.91 255.6 52.86"/><path class="cls-7" d="M254.62,52.88l0-.1a.27.27,0,0,0-.15.06A.26.26,0,0,0,254.62,52.88Z"/><path class="cls-7" d="M234.7,62.62l.23,0Z"/><path class="cls-7" d="M234.26,62.16l-.06,0S234.26,62.21,234.26,62.16Z"/><path class="cls-7" d="M243.26,42.5c-.09.32-.24.68-.13.64l.11-.09A2.34,2.34,0,0,1,243.26,42.5Z"/><path class="cls-7" d="M238.27,53.56l.1,0,.21-.1Z"/><path class="cls-7" d="M238,54l-.43-.07A4.28,4.28,0,0,0,238,54Z"/><path class="cls-7" d="M244,62.62l.55-.1C243.77,62.51,244.06,62.57,244,62.62Z"/><path class="cls-7" d="M254.17,44.48a5.05,5.05,0,0,0,.08-.69C254.18,44.12,254.08,44.39,254.17,44.48Z"/><path class="cls-7" d="M233.79,63.56c.19.09.28.09.29.07C233.87,63.57,233.77,63.51,233.79,63.56Z"/><path class="cls-7" d="M254.27,43l0,.14c0,.2,0,.41,0,.65A1.9,1.9,0,0,0,254.27,43Z"/><path class="cls-7" d="M253,65.57V65.5S253,65.53,253,65.57Z"/><path class="cls-7" d="M260.62,63.7l-.38,0Z"/><path class="cls-7" d="M254.26,50.58c0,.21,0,0,0,0Z"/><path class="cls-7" d="M253.84,51.6a.13.13,0,0,0-.05-.09A.19.19,0,0,1,253.84,51.6Z"/><path class="cls-7" d="M253.28,41.13h0C253.3,41.18,253.3,41.17,253.28,41.13Z"/><path class="cls-7" d="M254.22,50.89c0-.07,0-.16,0-.26A1.83,1.83,0,0,0,254.22,50.89Z"/><path class="cls-7" d="M254.27,50.85a1.21,1.21,0,0,0,0,.18S254.29,51,254.27,50.85Z"/><path class="cls-7" d="M254.26,50.29c0,.12,0,.23,0,.34s0-.06,0-.05Z"/><path class="cls-7" d="M246.47,75.36h0C246.72,75.32,246.63,75.33,246.47,75.36Z"/><polygon class="cls-7" points="244.34 47.92 244.33 47.9 244.33 47.93 244.34 47.92"/><path class="cls-7" d="M244.41,48.67a1.24,1.24,0,0,1-.08-.74l-.32.24Z"/><path class="cls-7" d="M238.56,62.64l-.53-.11c.64-.15,1.1-.09.61-.23-.08.34-2,0-2.12.35l-.35-.08a1.48,1.48,0,0,0,.21,0c-.67-.17-.5.24-1.37.18-.31,0-.49-.08-.31-.12a.55.55,0,0,1-.33,0c-.07-.07,0-.09,0,0-.13-.1-.17-.15-.23-.47h0a2.71,2.71,0,0,1-.2-.57c.05-.26,0,.13.08.06l-.08-.56c.09-.23.17.25.16.62.34-.51-.09-.46.13-1.6l0,.53a5.3,5.3,0,0,0,.27-1.37c-.07.15-.33,1.22-.4.6a2.09,2.09,0,0,0,0-.74c.12,0,.1-.32.1-.73l.16,0a2,2,0,0,0-.19-.67.85.85,0,0,1,.25-.7c0-.79-.2.54-.22-.39a8.32,8.32,0,0,0-.07-1.9c.06-.45.1.09.14-.08l-.12-.4c0-.1.05-.07.07-.05,0-.18-.13-.08-.18-.24a.66.66,0,0,1,.06-.12c0-.06,0-.12.06-.11l.21.08a.87.87,0,0,0,.28.08,1.68,1.68,0,0,0,.74,0c.17.06-.08.1,0,.16a8.58,8.58,0,0,0,1.55-.24l.63.11c-.46-.12.14-.26.66-.38l-.4-.13.83-.09c.1,0,0,.08-.12.15l.16,0c.3.06.14.15-.07.24l-.3-.1c-.21.1-.41.21-.36.3a1.3,1.3,0,0,1,.27,0c-.05,0-.09,0-.06.07a.79.79,0,0,0,.25-.06l.19.17.05-.07,1.1.11a13.27,13.27,0,0,1,2.7-.54c-.31.14-.06.22-.08.37-.34-.16-1,.08-1.61.05.34,0,.27.09.18.12l1.15-.16c0,.13.24.09.54.14-.1-.12.06-.16.5-.19l.65,0H244s.12,0,.1-.06l0-.29s.08.07.11.24l0,.14s0,.06,0,.08h-.59a2.38,2.38,0,0,0,.63,0,1.91,1.91,0,0,0-.07-.52,2.14,2.14,0,0,1-.07-1,.89.89,0,0,0,0,.35,3.76,3.76,0,0,1,0-.74c0-.21,0-.36.09-.27V52a9.54,9.54,0,0,0-.18-3,1.21,1.21,0,0,1,.29.18l-.7-1.65c.19.15.63-.41.72.36a3.31,3.31,0,0,0,0-1c0,.15-.27.37-.28.17a6.76,6.76,0,0,0,.29-1.09c0,.23-.32,0-.31-.38,0,.06.28,0,.31.1l-.27-.88c.05.22.24,0,.32-.16a7.4,7.4,0,0,1,0-1l-.07.38c.05-1-.39-1-.36-2,.05.15.35.24.39-.15a.59.59,0,0,1-.13-.65,1.49,1.49,0,0,1,1.11-.66l.17.08.68-.09c-.21.11-.62.26-1,.45a2,2,0,0,0-.53.32.6.6,0,0,0-.16.32c.18-.08.1,0,.3-.08s-.08.14-.08.17.05,0,.24-.06a3,3,0,0,1,.53,0c-.07-.17,1-.17.93-.31a11.56,11.56,0,0,0-1.34.2c0-.08.12-.23.44-.32a3.53,3.53,0,0,1,1.23-.14c.24.07-.18.29-.16.35a3.18,3.18,0,0,1,1-.06l-.39.09c.52.07.84-.21,1.46,0,.21,0,.63.22.67.13-.34-.2-.4-.8-.17-.94.07,0,1.12.2,1.36.3s-.53.35-.23.49c0,0,.2-.1.29-.12s-.1.14.39.13c.08-.17,1,0,.23-.14a10.31,10.31,0,0,1,1.07,0c-.17-.11.48-.36,1-.4,0,0,0,.08.07.11l0,0,.26.21.12.1s0,.09,0,.14-.05.36-.08.55c0,.36-.07.72-.08,1.18-.05.08-.1.52-.18.33a1.85,1.85,0,0,1,.09.54c-.16.54,0-.63-.2-.22.1,0,.13.73.19,1.13.15-.12,0-.92,0-1.32.21,0,.42.7.51,1.65.05.76-.13.33-.11.46,0,1.42.37,1.21.22,2.39-.13.47-.26,0-.36.12a10,10,0,0,1,.08-1.36l-.07.51a2.83,2.83,0,0,1,0-.83c-.12.39,0,2.4-.12,3.5.05.2.1.53.15.37l0-.34c.11-.32.15.65.2.21a5.76,5.76,0,0,1,.14,1.64l-.15.12a1.1,1.1,0,0,0,0-.61c.07.25-.2,1.07,0,1.21,0-.14.07-.2.11-.36.11.38.12.58.43.51,0-.15-.09,0-.08-.16,0,.05-.08.11-.1.08a.76.76,0,0,1,0-.17.76.76,0,0,0,0-.16c0-.08-.05,0-.1,0,.2-.36.08-.72.25-1.26-.05,0-.09.2-.07-.29,0,0,0-.07,0-.1v0s0,0,0,0a.65.65,0,0,1-.08.25c-.11-.24-.11-1-.18-1.28s.06.12.12,0l-.1-.39c.12,0,.19-.77.26-.09v-.61a4.15,4.15,0,0,0,0-1.16c0-.29-.12-.73,0-.48l-.07-1h0a14,14,0,0,1,.06-3,5.11,5.11,0,0,1,0-1.16l.11-.18,0-.36,0-.21v-.1s-.07-.07-.11-.11l-.82-.65H253a.38.38,0,0,0-.2,0,11,11,0,0,0-2.72-.14l0,.12c-.5,0-1,0-1.6.06l0,.11c-.53.08-1.36-.1-2.21-.1a.87.87,0,0,1,.43,0,4,4,0,0,0-1.59,0,3.51,3.51,0,0,0-.93.25,1.66,1.66,0,0,0-.8.72c-.08.32-.06.65-.1.77v0c0,.1-.05.21-.07.32,0-.1.05-.19.07-.27,0,.18,0,.44,0,.7l-.12.12v.06c0,.25.06.2.15.06a2.15,2.15,0,0,0,.07.35c-.2.21.06.68-.15,1,.1.18.06,1.31.27,1.45,0,0,0,.09,0,0a2.62,2.62,0,0,0,0,.84l-.16.12.2.63c-.1.39-.15.55-.27.17.18.92.06.74.24,1.53l-.1,0c0,.28.13.73,0,.9a11,11,0,0,0-.12,2c0,.2,0,.41,0,.62l0,.39c0,.09-.1,0-.15,0l-.19,0-.17,0-.3,0c.31.29-.75-.12-.81.1-.1-.06-.32-.1-.06-.16a8.09,8.09,0,0,0-1.8.09c-.1-.07.17-.1.09-.14a.81.81,0,0,1-.35,0c-.08,0,.12-.06.25-.09-.84,0-.92.23-1,.43a1.28,1.28,0,0,0-.94,0c-.15-.07-.4-.14.12-.16-.29,0-1.78-.1-1.81,0a1.34,1.34,0,0,0-.49,0l-1.41-.09.24,0a.9.9,0,0,1-.61,0c-.07.07-.15.17-.24.28a2.79,2.79,0,0,0-.24.31v0l0,0c0,.38-.05.56-.06.67s0,.19,0,.25a3.45,3.45,0,0,1-.06.84l.12-.06c.25.11-.17,1-.08,1.72l.07-.24c.08.37-.37,1-.41,1.41,0,.09,0-.13-.05-.24-.16,1,.16.13.18.86-.08.14-.21-.17-.23.32A13.69,13.69,0,0,1,233,61.4c.07-.15.13-.3.18,0s-.06.64,0,1.06.39,1,.76,1c.08.06.11.08.11.1a2.2,2.2,0,0,0,.55,0l.46,0a2.82,2.82,0,0,0,.7-.11c.37.42,2.48-.17,2.47.21h1.22l0,0a3.14,3.14,0,0,0,1.34-.14c.18,0,.05.06,0,.08a5.52,5.52,0,0,0,2.16-.1l0,.12a.57.57,0,0,1,.22,0s.14,0,.12.06l0,.22a7.23,7.23,0,0,0,0,1.46s0,0-.05-.12c.16,1.26-.31,3,.14,3.49l.12.83c0-1.08.2.16.27-.28,0,.42-.12,1.1-.15.57l0-.08c-.24-.19-.07,1.34-.23,1.31v1.73c0,.31,0,.52,0,.9l.07.79v.11l0,.1a.41.41,0,0,1,0,.19v.13a.46.46,0,0,0,0,.16.64.64,0,0,0,.09.23,1.9,1.9,0,0,0,.36.41c.14.11.28.2.43.3a4.38,4.38,0,0,0,.51,0h1l-.23-.18h.69c.19,0,.25.14-.24.14a1.33,1.33,0,0,0,.84-.14c1,0-.37.22-.08.22l.41,0-.1,0a2.63,2.63,0,0,1,.95-.17c.38,0,.2.11.35.12,0,0,0,0,.22,0h.88l-.36-.14c.39-.08.83,0,.42-.16a7.51,7.51,0,0,0,1.9.1l1.14,0c.43,0,.77,0,.91,0l.23,0a16.93,16.93,0,0,1-.06-1.94c0,.17-.19.27-.17-.31.33.21.14-1,.39-1.51-.16.42,0-1.62-.27-1,0-.48.12,0,.2-.4-.13-1.13.09-2.5,0-3.9,0,0-.11.21-.17-.09l.22-.74c0-.28-.26-.26-.1-.77,0,.08-.1.18-.11,0s0-.64.05-1l0-.55,2.82-.07a21.91,21.91,0,0,1,3.24.15c-.38-.08-.12-.09.16-.1-.18,0,0-.11,0-.17l1.17.15c.09-.09.41-.07.76-.13a1.31,1.31,0,0,0,.6-.15l.14,0h0l-.13,0-.33.07c.22-.12.06-.2-.17-.28s-.26-.08-.35-.13-.13-.11-.12-.17c-.55.22-1.45-.29-2.36,0-.2,0,.17-.08.06-.13a2.07,2.07,0,0,1-1,.09l.06,0c-1.44,0-2.06,0-3.68-.09l.12.12a5.8,5.8,0,0,1-.68-.08c-.3.1.14.09.39.1s.5,0,.32.1a1.71,1.71,0,0,0-.61-.09c-.36,0-.79,0-1.2,0,0,.44,0,.88,0,1.24a1,1,0,0,1-.13.57c0,.53.14-.16.14.38l-.07.14.09.13c0,.36-.11.53-.17.55s0-.25,0-.34A11.23,11.23,0,0,0,253,67l0-.51c.07,1.46,0,3.25.13,4.66l0-.11c.11,1.08-.06.86,0,2v0a3.78,3.78,0,0,1,.07.87c-.06-.3-.12.57-.2.17.06.64.08.57.11.67a1.32,1.32,0,0,1,.19.46h0l-.14-.06c-.11.09-.09.13-.59.17.41-.09-.3-.13.11-.25-1.14-.17-1.81.25-2.36,0-.56.27,1.08.11.76.18.27.07-.47.2-.86.18a7.52,7.52,0,0,0-1.68-.28l.21,0a11.59,11.59,0,0,1-1.19,0c-.25.16-.59,0-.66.21l.91-.07a6.1,6.1,0,0,1-1.85.22,2.56,2.56,0,0,1,.49-.14c-.25,0-.48,0-.74,0,.07-.2,1.11-.07,1.66-.24-.27-.07-1,.17-.77-.05-.39.29-1,0-1.65.22l0-.12c-.05,0-.17.11-.25,0a.24.24,0,0,0,.18-.1c-.11.08-.18,0-.23-.14-.13.1-.39.25-.44.22h.53V74.9a1.45,1.45,0,0,0-.17-.6l.07.31h0l-.07-.31a1.54,1.54,0,0,1,.16.75.39.39,0,0,1,0,.11h-.05l0,0,0,0h0v0h-.37s.08,0,.26-.09c-.13.07-.2.1-.25.09h.3V75c0-.08,0-.16,0-.22a2.34,2.34,0,0,0-.12-.4l.05.2a2.77,2.77,0,0,1,.1-.62,1.11,1.11,0,0,0,0-.19v-.12s0,0,0,0a3.39,3.39,0,0,0,0-.66c0,.21-.06.77-.12.45a4.44,4.44,0,0,1,.12-.85c0-1-.12.16-.19-.27.14-.34-.07-.49-.12-.93h.12c.07-1.14-.25-.3-.17-1.33l.17.43-.05-.53.14.11a4.33,4.33,0,0,1-.05-1.34c-.08.13-.22-.08-.23-.58s.12.19.09-.53a.72.72,0,0,1,.07.65s.08.16.12.2a6.83,6.83,0,0,0,0-1.2,1.09,1.09,0,0,1,0,.28l-.17-1c0-.16.08,0,.11.1,0-.22-.07-.36-.08-.67.1.08.2.06.25.5l-.12-1c0-.07.11-.51.15-.39a2.3,2.3,0,0,0,0-.45c0-.19,0-.25-.07-.64l-.06-.94v-.23c0-.06,0-.19-.08-.16l-.46,0a3.84,3.84,0,0,1-.48,0c-.65,0-.88-.06-1.23-.08a5.22,5.22,0,0,0-1.1,0l-.46-.18c-.64,0,.62.23-.44.28-.76,0-.28-.15-.54-.21a3.81,3.81,0,0,1-1.72.11C238.17,62.62,238.35,62.65,238.56,62.64Zm-4.37-2.78c0,.16.09.46,0,.57C234.08,60.26,234.14,60.12,234.19,59.86Zm5.24-6.07a1,1,0,0,1-.49,0A2.07,2.07,0,0,1,239.43,53.79Zm14.72-5.49v0C254.19,47.94,254.18,48.06,254.15,48.3Zm0,.7c0,.07,0,.07,0,0a1,1,0,0,1,0-.39A.54.54,0,0,0,254.11,49Zm-5.4,27.12-.14,0C248.88,76.05,248.8,76.08,248.71,76.12Z"/><path class="cls-7" d="M238.07,54a.1.1,0,0,1-.06-.07C238,53.91,238,53.94,238.07,54Z"/><path class="cls-7" d="M243.87,62.64h0l.06,0Z"/><path class="cls-7" d="M250.48,41.54a1.22,1.22,0,0,1-.28-.06S250.25,41.53,250.48,41.54Z"/><path class="cls-7" d="M254.33,52.59a.21.21,0,0,1,0-.08v-.22a1.63,1.63,0,0,1,0,.24.16.16,0,0,1,0,.06S254.33,52.56,254.33,52.59Z"/><path class="cls-7" d="M256.74,53.52c.07,0,.14,0,.21,0l0,0C256.65,53.45,256.45,53.5,256.74,53.52Z"/><path class="cls-7" d="M253.93,52.94c-.07.06-.18.4.15.28h0C254.21,53.07,253.9,53.21,253.93,52.94Z"/><path class="cls-7" d="M254.14,53.22h.2C254.38,53.16,254.27,53.2,254.14,53.22Z"/><path class="cls-7" d="M254.18,49.9c0,.15.13.09.09.17C254.4,50.24,254.11,49.08,254.18,49.9Z"/><path class="cls-7" d="M253.6,53.41l.12-.21a.41.41,0,0,1-.1-.09Z"/><path class="cls-7" d="M253.68,50.92l0,.5s0,.06,0,.14A2.59,2.59,0,0,0,253.68,50.92Z"/><path class="cls-7" d="M253.69,51.56a2.24,2.24,0,0,0,0,.4A3,3,0,0,0,253.69,51.56Z"/><polygon class="cls-7" points="253.56 52.73 253.58 52.57 253.59 52.22 253.56 52.73"/><path class="cls-7" d="M253.69,45.49l0-.55c0-.06-.07.09-.05.29S253.64,45.57,253.69,45.49Z"/><path class="cls-7" d="M253.34,47.15a.61.61,0,0,1,.1-.24l-.16,0Z"/><path class="cls-7" d="M253.31,45.54c-.05,0-.12-.8-.12-.1C253.24,45.5,253.27,46.05,253.31,45.54Z"/><polygon class="cls-7" points="249.63 41.1 249.77 41.1 249.75 40.85 249.63 41.1"/><path class="cls-7" d="M244.56,43c.06-.65-.16-.15-.08-.75-.06-.15-.06.49-.12.33C244.42,43,244.39,43.18,244.56,43Z"/><path class="cls-7" d="M244.36,42.58l0-.2A1.05,1.05,0,0,0,244.36,42.58Z"/><polygon class="cls-7" points="262.24 63.78 262.6 63.78 262.36 63.73 262.24 63.78"/><path class="cls-7" d="M263,63.44l.1.15a1.21,1.21,0,0,1,.16-.16A1.15,1.15,0,0,1,263,63.44Z"/><path class="cls-7" d="M234.53,58.7l0,0a.84.84,0,0,0-.05.36Z"/><polygon class="cls-7" points="235.23 62.47 235.14 62.46 235.32 62.61 235.23 62.47"/><path class="cls-7" d="M240,62.34c-.19,0-.43,0-.62,0C239.84,62.33,240.08,62.52,240,62.34Z"/><path class="cls-7" d="M279.28,55.08c0-.29-.11-.18-.13-.22C279.21,55.34,279.31,55.06,279.28,55.08Z"/><polygon class="cls-7" points="279.25 59.71 279.22 59.62 279.24 60.32 279.25 59.71"/><path class="cls-7" d="M278.75,64l0,0a6.36,6.36,0,0,0,.26-1.64c0-.2,0-.44.05-.63l.05-.13-.12-.37c0,.35,0,.74,0,1.13-.06.59-.14,1.26-.22,1.63Z"/><path class="cls-7" d="M277.82,66.25c.05-.06,0,.06,0,0s0,0,.11-.58l0,.1C277.9,65.9,277.87,66,277.82,66.25Z"/><path class="cls-7" d="M277.93,65.81c.1-.46-.13.28,0,0Z"/><path class="cls-7" d="M277.3,67.76l.16-.59c-.08.1-.29.61-.24.41C277,68.18,277.11,68.08,277.3,67.76Z"/><path class="cls-7" d="M277.22,68.35l.09-.3A.45.45,0,0,0,277.22,68.35Z"/><path class="cls-7" d="M277.49,67.4l-.18.65c.05-.08.11-.06.09-.3C277.43,67.82,277.43,67.68,277.49,67.4Z"/><path class="cls-7" d="M277.65,67.05c.16-.31.34-.72.18-.12a4,4,0,0,0,.18-.59s0-.13,0-.11,0,.08-.06.09S277.78,66.69,277.65,67.05Z"/><path class="cls-7" d="M278.87,64.3l.1-.25,0-.17v-.4a4.21,4.21,0,0,1-.1.56C278.88,64.18,278.84,64.31,278.87,64.3Z"/><path class="cls-7" d="M275.82,71.2c0,.06.18-.14.24-.16l.15-.43C276.09,70.81,275.88,71.2,275.82,71.2Z"/><path class="cls-7" d="M276.06,71l-.22.6h0C276.08,71.16,276.12,71,276.06,71Z"/><polygon class="cls-7" points="277.37 68.53 277.63 67.44 277.3 68.73 277.37 68.53"/><path class="cls-7" d="M274.67,73.33v0s0-.13,0-.23c0,.09-.07.24,0,.22v0l0,.09-.09.17Z"/><path class="cls-7" d="M273.62,74.68c.12-.27-.33.23-.18,0l-.1.13a6.07,6.07,0,0,0-.53,1,5.17,5.17,0,0,1,.64-1Z"/><path class="cls-7" d="M272.64,76.28s0,0,0,0,0-.08,0-.17l.1-.24-.11.23c0,.08-.07.17-.05.17S272.66,76.24,272.64,76.28Z"/><path class="cls-7" d="M275.24,72.64a1.46,1.46,0,0,0-.34.44l.22-.2A2.68,2.68,0,0,0,275.24,72.64Z"/><path class="cls-7" d="M275.13,72.88h0l-.26.52C274.89,73.33,275,73.17,275.13,72.88Z"/><path class="cls-7" d="M275.28,72.58l0,.06S275.28,72.61,275.28,72.58Z"/><path class="cls-7" d="M276.68,70.15h0c-.1.35-.41,1.14,0,.45.05-.28-.17.08,0-.45Z"/><path class="cls-7" d="M275.56,72.36l.39-.62s-.12.07-.07-.08Z"/><polygon class="cls-7" points="275.42 72.68 275.56 72.36 275.42 72.58 275.42 72.68"/><path class="cls-7" d="M273.31,75.37c-.14.29-.32.6-.5.94.22-.36.46-.73.7-1.06C273.51,75.18,273.56,75,273.31,75.37Z"/><path class="cls-7" d="M274.29,74.11l0,.06S274.31,74.12,274.29,74.11Z"/><polygon class="cls-7" points="270.17 78.78 270.23 78.75 270.23 78.73 270.17 78.78"/><path class="cls-7" d="M273.56,75.2l.12-.17a2.52,2.52,0,0,0,.28-.43c-.1.13-.19.27-.3.41l-.15.24S273.51,75.29,273.56,75.2Z"/><path class="cls-7" d="M272,77.05l.3-.23.08-.08-.09.07A1.1,1.1,0,0,0,272,77.05Z"/><path class="cls-7" d="M274.16,74.24l0,0C274.1,74.26,274.12,74.26,274.16,74.24Z"/><path class="cls-7" d="M274.16,74.24a3.42,3.42,0,0,0-.2.36l.29-.43Z"/><path class="cls-7" d="M269.82,80.06a.82.82,0,0,1,.2-.3,4.82,4.82,0,0,1,.75-.76l.14-.08c.43-.41.09-.48-.47-.29a1.2,1.2,0,0,1-.21.12s0,.08-.42.62c.13-.09.5-.4.76-.6s.28-.13.11,0l0,0a2.68,2.68,0,0,1-.81.71s-.05,0-.09,0c.38-.15-.8.91-.53.91.2-.18.4-.37.59-.57C269.83,80,269.63,80.19,269.82,80.06Z"/><path class="cls-7" d="M271.35,77.86l.13-.11,0,0,0,0c-.19.12-.44.27-.79.45l-.34.33c-.14.17-.11.17-.12.21l.16-.16,1-.78Z"/><path class="cls-7" d="M272.4,76.82a.64.64,0,0,1,0,.07c-.1.23-.46.65-.1.44l.27-.29c.2-.27.13-.29.35-.59-.87,1,.21-.35-.48.37l.38-.48v0l0,0-.41.41,0,0h0s.07,0,0,0l0,0a.12.12,0,0,1,0,.08l0,.05c-.09.08-.05,0,0,0l.08-.11v0h0l-.09.12-.81.88c.2-.18.46-.45.85-.85Z"/><path class="cls-7" d="M276.59,71.37s0,0,0,0S276.52,71.52,276.59,71.37Z"/><path class="cls-7" d="M276.29,71.85a1.85,1.85,0,0,1,.18-.48c.15-.24,0,0,.08,0,.06-.2.23-.66-.08-.13l0,.1c-.09.15-.19.32-.27.44-.24.3-.47.57-.44.5a2.34,2.34,0,0,0,.54-.44Z"/><path class="cls-7" d="M274.43,74.44l-.53.75-.14.22.18-.19.25-.24-.06,0C274.55,74.46,274.41,74.53,274.43,74.44Z"/><polygon class="cls-7" points="270.04 78.84 270.07 78.65 269.71 79.23 270.04 78.84"/><polygon class="cls-7" points="268.99 79.82 268.97 79.7 268.7 80 268.99 79.82"/><path class="cls-7" d="M221.47,42.6l.16-.3A3.33,3.33,0,0,0,221.47,42.6Z"/><path class="cls-7" d="M220.35,44.92l0,.07C220.39,44.88,220.39,44.83,220.35,44.92Z"/><path class="cls-7" d="M235.23,83.38c-.4-.32-.84-.69-.84-.57l.09.17A3.91,3.91,0,0,1,235.23,83.38Z"/><path class="cls-7" d="M219.57,64.86V65l.17.31C219.68,65.18,219.62,65,219.57,64.86Z"/><path class="cls-7" d="M219.05,64.61,219,64C219,64.11,219,64.32,219.05,64.61Z"/><path class="cls-7" d="M229.56,31.94l.2-.36C229.33,32,229.56,31.86,229.56,31.94Z"/><path class="cls-7" d="M255.74,86.62c-.42,0-.76,0-1.06.09C255.2,86.69,255.62,86.73,255.74,86.62Z"/><path class="cls-7" d="M222,44h0c0-.08.1-.23.06-.21l-.07.15a.08.08,0,0,0,0,0S221.94,44,222,44Z"/><path class="cls-7" d="M253.55,86.79l.22,0,.35,0,.56-.08-.56,0A3.21,3.21,0,0,0,253.55,86.79Z"/><path class="cls-7" d="M274,37.6l.06.09S274.05,37.65,274,37.6Z"/><path class="cls-7" d="M278.93,50.82c0-.11-.07-.29-.11-.48v0A2.65,2.65,0,0,0,278.93,50.82Z"/><path class="cls-7" d="M264.11,83.15c.28-.16,0,0,0,0Z"/><path class="cls-7" d="M265.65,82.77s-.08.09-.07.11A.2.2,0,0,1,265.65,82.77Z"/><path class="cls-7" d="M250.38,87.34h0C250.44,87.37,250.43,87.36,250.38,87.34Z"/><path class="cls-7" d="M264.56,83l-.38.17Z"/><path class="cls-7" d="M264.48,83l.25-.13S264.72,82.79,264.48,83Z"/><path class="cls-7" d="M263.72,83.37l.46-.24-.07,0Z"/><path class="cls-7" d="M251.26,25.82l.07,0C251.65,25.82,251.51,25.81,251.26,25.82Z"/><polygon class="cls-7" points="227.85 79.56 227.88 79.58 227.85 79.55 227.85 79.56"/><path class="cls-7" d="M227,78.83a4.16,4.16,0,0,1,.9.72l-.07-.48C227.49,79,227.23,78.91,227,78.83Z"/><path class="cls-7" d="M224.4,37.47l-.33.35-.24.29c.06-.12.08-.19.16-.34.41-.73.68-1.05.2-.6.05.09,0,.26-.23.58-.46.85-1.42,2.18-1.25,2.39a2.71,2.71,0,0,0-.22.27c-.07.13-.1.16-.14.23.05-.1,0-.12.1-.25l.07-.12-.09.11a1.65,1.65,0,0,0-.3.86,2.72,2.72,0,0,1-.34,1.07h0c-.23.3-.47.58-.32.28l-.48.88,0,.13c-.11.27-.16.24,0-.13L220.38,45v0c0,.23-.14.74-.18,1s0-.2,0-.12l-.21.86c-.2.3,0-.41.17-1-.54.6-.22.65-.74,1.91-.05.22-.09.31-.14.51l.07-.53.11-.38a1.58,1.58,0,0,0-.21.35c-.09.3-.13.41-.19.65s-.12.51-.17.67a2.6,2.6,0,0,0-.15.32s.13-.25.18-.31c.17-.38.46-1.11.39-.4a3.57,3.57,0,0,0-.11.47c0,.1-.09.34-.13.56-.11,0-.24.45-.42,1l-.14-.09c-.06.26-.07.35-.11.56a1.39,1.39,0,0,0,0,.31,1.68,1.68,0,0,1,0,.29c-.1.73-.23.87-.36,1-.21,1.17.32-.79.13.61-.07.34-.12.56-.17,1,0,.68.06,1.19.12,2s-.1-.13-.14.12.08.41.11.62-.05.1-.07.07c0,.52.16,0,.15.87,0,0,0,.07,0,.19,0,.3,0,.68,0,1.22a5,5,0,0,0,.25,1.35c0,.08,0,.07,0,.08h0s-.11-.15-.14-.09,0,.11,0,.1c.1.53.14.8.18,1,.11.4.18.58.4,1.18l.09,1c0-.73.3.14.58.9,0-.26,0-.48,0-.63l.32,1.13,0,.07c0,.13,0,.07-.14,0l-.05-.07,0,.08.08.12c.1.44-.06.26-.27,0V65c-.16-.29-.32-.56-.4-.47s.08.23.13.4c0-.08-.08-.13-.09-.08a1.5,1.5,0,0,0,.14.36,1.64,1.64,0,0,0-.1.33v0l.1.06.31,1,.11.58c.19.4.37.81.56,1.23A20.2,20.2,0,0,1,222,70.83c-.34-.35-.24,0-.39.07a13.15,13.15,0,0,0-1.23-2.13c.24.46.12.4,0,.3l1,1.45c-.13,0,.09.37.26.8.06-.42.78,1.06,1.17,1.67-.05.08-.21,0-.59-.82.28.94.83,1,1.12,1.88-.1-.19-.14-.3-.21-.35a5.28,5.28,0,0,1,.45.82c.29.35.42.56.29.48l-.13-.16a29.75,29.75,0,0,0,2.93,3.26c.09.06.12.07.15.07a.3.3,0,0,1-.23,0,.41.41,0,0,1-.2,0,.74.74,0,0,1,.12.09,22.84,22.84,0,0,0,2.24,1.17c-.3,0,.05.88-.9.17a7.37,7.37,0,0,0,1.11,1c-.15-.17-.26-.57,0-.38a16.79,16.79,0,0,0,1,1.35c-.16-.18,0-.24.21-.12a1.8,1.8,0,0,1,.51.2c-.09,0-.1.27-.29.19.19.06.41.15.57.19l.67.33c-.27-.15-.24.1,0,.39l.05,0a9.2,9.2,0,0,1,1.06.55l.27.17-.25-.21-.18-.12.19.1a5.13,5.13,0,0,0,1,.48,4.37,4.37,0,0,1,1.64.57c-.19,0-.56.09.09.5.16,0,.46,0,.88.11a8.5,8.5,0,0,1,2.14.29l.21.17,1,.28c-.68,0-2.44-.23-3.49-.42l-.06,0,.05,0a3.63,3.63,0,0,0,.92.43c.25.18-.48-.05-.72-.14l1.85.75c0-.19,1.47.39,1.46.24l-2.08-.62c0-.17,1.05,0,2.24.39l.44.1c.33.14-.33.23-.31.29a5.26,5.26,0,0,1,1.42.29l-.59-.08a4,4,0,0,0,.88.21,4.35,4.35,0,0,1,1.31.28l.26.08c.45.06.8.18.87.1-.53-.19-.63-.79-.28-.93l1.56.19A3.31,3.31,0,0,1,246,87c.51.22-.85.23-.42.43,0-.05.33-.06.46-.06.33.09-.16.12.58.21a.84.84,0,0,1,.47,0c.35,0,.63.08,0-.05l-.11,0h.11c.66,0,.72.11,1.55.12-.23-.09.48-.3,1.15-.39h.36c-.05,0,.11.11.19.14l1.37.15c.76,0,1.41.06,2.31.06l.12,0c.24,0,.66,0,.43.08a4.5,4.5,0,0,1,.8-.21c.84,0-.95.16-.3.25a2.49,2.49,0,0,1,.87-.26l.81-.3a2.09,2.09,0,0,0-.84.17c-.42.08-.86.19-1.16.27,0-.14.41-.34,1.1-.55a13.13,13.13,0,0,1,1.24-.5c1.09-.36.52,0,.7-.08,2.07-.65,1.64-.9,3.35-1.42.71-.15.13.23.31.26a12.07,12.07,0,0,1-2,.67l.76-.2a5.25,5.25,0,0,1-1.19.45,17.07,17.07,0,0,0,3-1.07c.67-.39,1.34-.77,1.88-1,.23-.18.66-.47.42-.4L264,84c-.49.15.8-.61.18-.33.38-.26.8-.57,1.26-.85a8.79,8.79,0,0,1,.81-.53l.24,0a2.9,2.9,0,0,0-.8.48,5.41,5.41,0,0,1,.82-.48,4.13,4.13,0,0,0,.6-.49.94.94,0,0,0,.2-.2l-.26.11-.4.26.33-.36c.25-.18.51-.39.77-.59a5.39,5.39,0,0,1,.77-.69c-.42.14-.15.15-.75.43.19-.08,0,.09-.07.2l-.83.5c-.32.29-.39.38-.11.24a4.89,4.89,0,0,0-.49.27c-.25.12-.62.38-1,.54,0,0-.1,0-.16,0s.32-.06-.35.28l-.13.12,0,0,0,0s0,0,0,0a2.06,2.06,0,0,1,.37-.12c-.26.29-1.32.84-1.63,1.11s.14-.14-.1-.07l-.47.39c-.11-.07-1.11.44-.24-.15l-.73.42h0a11.07,11.07,0,0,0-1.63.61c-.41.13-1,.49-.66.28l-1.36.53,0,0-2.31.74a15.14,15.14,0,0,1-1.68.19l-.36,0a16.39,16.39,0,0,1-1.81,0l-.16-.1h0c-.21,0-.63-.06-1-.11s-.67-.08-.95-.09a.91.91,0,0,0-.2,0,14.35,14.35,0,0,0-2.41-.2l-.86-.11c-.29,0-.51-.07-.77-.11l-.08.11h-1l-1,0a1.66,1.66,0,0,1-.27,0l0,.12a7.37,7.37,0,0,1-1.21-.26,14.12,14.12,0,0,0-1.87-.57l-.1,0a.28.28,0,0,1,.1,0,2.62,2.62,0,0,1,.46.12l-.44-.16c-1-.51-2.5-.78-3.47-1.22l-.29-.2a3.56,3.56,0,0,1-.74-.4l.08,0-.12-.07-.4-.28a3,3,0,0,0,.33.24c-.24-.12-.6-.31-1-.46l-.1-.18-.08,0-.11-.06c-.11-.08-.11,0-.06.11v0h0a3.89,3.89,0,0,0-.42-.19,1.08,1.08,0,0,0-.49-.39,2,2,0,0,1-.74-.49,1.82,1.82,0,0,1-.31-.1c-.05,0-.22-.15-.34-.23l-.44-.3a2.18,2.18,0,0,0-.87-.32s-.07-.09.08,0l-.1-.07a4.8,4.8,0,0,0-.82-.73l0-.24c-.28-.18-.57-.33-.86-.5-.38-.45-.52-.65,0-.35-1.14-.76-.9-.74-1.77-1.37l-.06,0,.11,0a7.79,7.79,0,0,1-.92-1,27.17,27.17,0,0,0-2-2.55c-.56-1.09-1.25-2.45-1.74-3.49,0,.56-.44-1.07-.69-1.05,0-.15-.15-.47.1-.15l-.44-.75c-.1-.21-.2-.39-.29-.56l0-.22-.09-.28a3.68,3.68,0,0,0-.24-.55c0-.16.17.23.18.1a1.61,1.61,0,0,1-.16-.51c0-.14.1.16.19.34-.09-.29-.15-.47-.24-.7-.31-.63-.48-.61-.65-.64l-.08-.33a2.76,2.76,0,0,0-.31-1c0-.24,0-.62.19.15a14.68,14.68,0,0,0-.62-2.71v-.06a3.16,3.16,0,0,0-.07-.65c0-.15,0-.29,0-.34L219,59.28a2.31,2.31,0,0,1,0-.29v.27a2.41,2.41,0,0,1-.15-1.11c0-.11,0-.3,0-.47v0c.25-1.83,0-.79.15-2.6l-.12.1c-.12-.07-.09-.44,0-.87a8.46,8.46,0,0,0,.36-1.72c0,.13-.08.25-.12.37a5.63,5.63,0,0,1,.51-1.64,1.27,1.27,0,0,0,.18-.35c.07-.12,0,.22-.05.35.59-1.34-.1-.22.21-1.29.14-.17.12.32.37-.39a3.08,3.08,0,0,0,.11-.35c0-.25,0-.4.07-.65s0-.46.06-.71a7.45,7.45,0,0,1,.49-1.4c-.13.19-.27.38-.14-.12a26.35,26.35,0,0,0,1-2.5.25.25,0,0,1,0-.08q.11-.1.12-.09l.57-1a7,7,0,0,0,.4-1.2,1.59,1.59,0,0,0,.45-.63c.57-.85,1.32-2.51,1.56-2.47l0,0,1.1-1.52V37l.3-.4c.11-.11.32-.31.43-.43l.33-.38c.11-.18.13-.25.2-.37s.09,0,.09,0l.33-.38a16.93,16.93,0,0,0,1.54-1.76l.33-.22.19,0L230,33a5.68,5.68,0,0,1,.43-.41l.53-.48.23-.11.3-.15.62-.32c.43-.23.85-.49,1.24-.73,0,0,0,.06-.14.14a18.15,18.15,0,0,1,2.3-1.11,13.86,13.86,0,0,0,2-.88,1.48,1.48,0,0,0,.45-.3l1.21-.46h0c-1.62.42.18-.26-.5-.14a3.44,3.44,0,0,1,.41-.11c.53-.21,1-.34.48,0l-.12,0c-.09.16.38,0,.83-.22s1.1-.35,1.1-.27l1.13-.37c1.07-.17,2.34-.34,3.36-.52l2,.12,2.76-.05-.36-.17h.51l.51.05c.27.07.36.17-.39.1a2.89,2.89,0,0,0,1.29,0c1.49.2-.6.17-.14.21l.62,0-.14,0,.24,0a4.91,4.91,0,0,1,.91-.11l.28.05c.56.13.27.16.49.2a1.11,1.11,0,0,0,.35.06l.3.06,1,.25-.49-.27c.59.07,1.22.31.66,0a7.85,7.85,0,0,0,1.61.53l.73.34c1,.31,1.91.63,2.41.82l.36.2a14.09,14.09,0,0,1,2.37,1.18c-.21-.14-.26-.36.5.07-.29.09.38.44,1,.79a4.85,4.85,0,0,1,.8.68c-.44-.48,2.12,1.31,1.41.58l.16.13c.22.23-.16,0,.16.37a18.43,18.43,0,0,1,1.47,1.15l1.67,1.68c.31.39.69.86,1.05,1.27.06,0-.12-.32.22,0l.56,1c.29.31.45.13.83.82,0-.1-.11-.26.09-.06l.73.95.54.8.5,1,.59.84c.25.5.57,1.09.83,1.64l.75,1.7c.28.95.58,2,.83,3l.12.76.18.82c-.09-.57,0-.21.17.21-.07-.28.1,0,.15-.09v.09l.18,1.66a1.68,1.68,0,0,1,.16.42c.07.36.12,1,.19,1.29a.73.73,0,0,0,.06.28v-.28l-.05-.24c.28.72.29-1.1.54-1a1.31,1.31,0,0,1-.05-.15,13.73,13.73,0,0,1-.3-2.14,5,5,0,0,0-.38-1.07l-.08-.18c0-.31.13.24.15.06a2.45,2.45,0,0,1-.24-.63c-.09-.26-.16-.51-.26-.88l.05.08c-.29-.9-.46-1.55-.65-2.26-.39-.93-.65-1.79-1.29-3.09l0,.21a6.76,6.76,0,0,1-.27-.64l-.13-.24c-.19-.15-.12,0,.08.27s.47.94.22.71a2.48,2.48,0,0,0-.24-.7c-.18-.29-.38-.59-.56-.85s-.33-.69-.49-1A8.78,8.78,0,0,1,275,39a1,1,0,0,1-.19-.36c-.52-.62.05.27-.47-.35l-.09-.22-.2-.09c-.34-.42-.44-.69-.4-.75a4,4,0,0,0,.34.38c-.38-.59-1.28-1.49-1.41-1.69l.47.63c-.48-.53-.93-1.07-1.47-1.71l-1.79-1.7c-.66-.52-1.21-.94-1.84-1.39l-.22-.13.11.14c-1.32-.74-1.11-.76-2.29-1.5l-.38-.19.06,0a8.83,8.83,0,0,1-1.22-.55c.43.15-.7-.52-.14-.3a6.09,6.09,0,0,0-1.95-.73l-.21-.21a5.26,5.26,0,0,1-.53-.15c-.18,0-.39-.1-.8-.23.73.17-.5-.33.32-.15a10.08,10.08,0,0,0-1.87-.67l-.38-.14-.4-.15a2.62,2.62,0,0,1-.86-.32c-.58,0,.25.24.84.38.31.14.43.19.28.15.17.12,0,.1-.33,0a9.9,9.9,0,0,1-1-.2c-.48-.12-.77-.42-1.69-.73-.25-.06-.47-.1-.76-.15.15,0,.17,0,.32,0a8.14,8.14,0,0,0-1.12-.16,4.78,4.78,0,0,1-.77,0,.77.77,0,0,1-.17.05c-.32,0-.72-.09-.82.07l.82,0,.55,0-.55.06a9.26,9.26,0,0,1-2,0h-.28l.29-.07.5,0a2.54,2.54,0,0,0-.5-.06,3.7,3.7,0,0,1-.66,0c.05-.08.26-.11.66-.13a16.13,16.13,0,0,0,1.93.07c-.4-.12-1.61,0-1.17-.17a1.66,1.66,0,0,1-.76.06,8.42,8.42,0,0,0-1.83.11l.06-.12a6,6,0,0,1-.8.09l.54-.17a3.5,3.5,0,0,1-.9.05,9.78,9.78,0,0,0-1.46-.13c1.67.07.37.16,1.07.28a4.82,4.82,0,0,1-1.65-.14,6.31,6.31,0,0,0-2,.16c.3,0,1.16-.12.69,0a9,9,0,0,1-1.29.07c-1.51.27.25.09-.38.26a1.3,1.3,0,0,0-.58.06c-.31.13-.45.27-.84.43l-.05-.11c-1.42.4-.69.39-1.36.63a3.78,3.78,0,0,1-.54.23c.16-.12.28-.23.48-.37l.12-.07-.13.05-.66.35.1-.2-.53.31a13.31,13.31,0,0,1-1.31.35c.16,0,.08.14-.38.32l-.44.23c-.51.15.22-.23-.77.25a1.6,1.6,0,0,1,.88-.48,1.5,1.5,0,0,1,.25-.23l0,0h0a14.15,14.15,0,0,0-1.69.77l.4-.16c-.46.28-.92.54-1.37.84-.25.07-.09-.05.08-.17-.29.16-.47.31-.89.53.07-.14,0-.22.58-.57l-1.32.79c-.12,0-.75.27-.59.14a8.06,8.06,0,0,0-.89.52l-.49.33-.25.17-.35.21-.4.42-.35.33s-.12.16-.13.19l0,0-.66.3-.93.87c-.28.3-.53.59-.85,1l-.08.14-.58.44,0,0s0,0,0,.07,0,0,0,0,.11,0,.12,0a.15.15,0,0,0,.09,0s0,.06,0,.09a2.22,2.22,0,0,1-.34.37,6.09,6.09,0,0,1-.47.42c-.26.28-.13-.1-.35.13a9.93,9.93,0,0,1-1.13,1.83c-.12.17-.2.27-.31.41a3.83,3.83,0,0,1,.25-.44Zm-5.13,11a3.33,3.33,0,0,1,.11-.86l0-.06v.07A1.79,1.79,0,0,1,219.27,48.51Zm.61,18.09v0a2.28,2.28,0,0,1-.22-.66,5.08,5.08,0,0,1,.23.66Zm41.29,18.26,0,0C260.65,85,260.83,85,261.17,84.86Zm.92-.36c.09-.07.07-.08,0-.08a1.25,1.25,0,0,1-.26.19l-.18.07a.51.51,0,0,0,.2,0Zm-7.55-57.59-.2-.07C254.81,26.89,254.67,26.89,254.54,26.91Z"/><path class="cls-7" d="M219.11,64.65c0-.07,0-.1,0-.11S219.1,64.45,219.11,64.65Z"/><path class="cls-7" d="M229.52,32l0,0a.08.08,0,0,0,0,0Z"/><path class="cls-7" d="M246,87.52a3.12,3.12,0,0,1-.42-.12S245.69,87.46,246,87.52Z"/><path class="cls-7" d="M266.76,81.34l-.55.51a3.64,3.64,0,0,1,.5-.38s-.06,0-.07,0S266.61,81.47,266.76,81.34Z"/><path class="cls-7" d="M271.85,78.2h0c.06-.08.14-.15.2-.22L272,78l-.18.19C271.64,78.31,271.57,78.4,271.85,78.2Z"/><path class="cls-7" d="M267.57,81.32s.18,0,.3-.1l.45-.42-.06,0c0-.17-.23.06-.45.29Z"/><path class="cls-7" d="M268.4,80.72a3.17,3.17,0,0,1,.35-.29C268.76,80.36,268.6,80.53,268.4,80.72Z"/><path class="cls-7" d="M263.24,83.74c.21-.09.06-.19.19-.22C263.59,83.28,262.19,84.44,263.24,83.74Z"/><polygon class="cls-7" points="268.07 81.4 268 81.4 267.86 81.39 267.68 81.61 268.02 81.43 268.07 81.4"/><path class="cls-7" d="M264.85,83.41l.69-.34s0,0,0,0a1,1,0,0,1,.13-.11l-.14.09A3.89,3.89,0,0,0,264.85,83.41Z"/><path class="cls-7" d="M265.69,82.93a5.23,5.23,0,0,0,.5-.36C266.08,82.64,265.85,82.8,265.69,82.93Z"/><polygon class="cls-7" points="267.19 81.98 267.01 82.11 266.61 82.44 266.58 82.45 266.61 82.44 267.19 81.98"/><path class="cls-7" d="M257.28,86.69l-.8.26c-.07.07.16,0,.46-.07S257.42,86.7,257.28,86.69Z"/><path class="cls-7" d="M259.82,86.25a1.34,1.34,0,0,1-.38,0l0,.16Z"/><path class="cls-7" d="M257.48,87c-.07.06-1.15.45-.12.15C257.43,87.12,258.24,86.86,257.48,87Z"/><polygon class="cls-7" points="244.8 87.01 245.02 87.01 244.99 86.75 244.8 87.01"/><path class="cls-7" d="M234,84.18c.85.5.29-.05,1,.45.23.06-.62-.41-.38-.34C234,84.08,233.78,83.91,234,84.18Z"/><path class="cls-7" d="M234.61,84.29l.28.12Z"/><path class="cls-7" d="M279.19,53.12l0,.57h0a2.68,2.68,0,0,0,0-.34Z"/><path class="cls-7" d="M279.45,54.28l-.16.15.15.38A2.31,2.31,0,0,1,279.45,54.28Z"/><path class="cls-7" d="M218.49,50.06l0,.06a1.48,1.48,0,0,0,.22-.51Z"/><polygon class="cls-7" points="221.67 41.91 221.61 42.04 221.86 41.85 221.67 41.91"/><path class="cls-7" d="M225.65,35.38l-.3.27-.24.35-.18.26a2.43,2.43,0,0,1,.21-.29l.25-.28c.21-.17.22-.16.28-.22S225.7,35.41,225.65,35.38Z"/></g></g></svg>