<svg xmlns="http://www.w3.org/2000/svg" viewBox="0 0 518.34 88.16"><defs><style>.cls-1{fill:#893d1e;}.cls-2{fill:#fff;}</style></defs><g id="Layer_2" data-name="Layer 2"><g id="Layer_1-2" data-name="Layer 1"><path class="cls-1" d="M2,3.84h.35c0,6,.12,14.54.12,25,.12,16.18.12,35.88.12,52.42.35,2.22,2.34,2.93,4,2.93.23,0,.47-.12.7-.12h.47c.23,0,1.52.12,3.05.24.47,0,.94.11,1.4.11v2c0,.58-2.57.23-2.46.35-.58,0-6.09-.35-6.68-.35-.35,0-.71.11-1.17.11-.71,0-1.53-.23-1.65-.93,0-28.26-.23-65-.23-79.27C-.18,4.19.4,3.84,2,3.84ZM19.28,15.92v-2c-.12-.59-.35-1.76-.94-2,2.11,0,4.11.59,4.81,2.11,0,4.93,0,7.86-.12,10.68,0,2.11-.11,4-.11,6.56a3.64,3.64,0,0,1-2.35,2c0-4.11.24-7.51.24-14.66A6.16,6.16,0,0,0,19.28,15.92Zm0,34.71V47a2.65,2.65,0,0,0-.12-.83c1.65.24,3.76.94,3.76,3.29,0,.58,0,2.93.11,4.81.12,4.45.47,11,.47,16.77v.82A32.48,32.48,0,0,0,25.38,84.4h9A6.83,6.83,0,0,1,34.64,86c-.11,1.06-1.52.71-2.23.71H22.33c-1.29-3.29-1.17-7.62-1.17-11,0-8.68-.59-19.35-.59-21.58A5.33,5.33,0,0,0,19.28,50.63Z"/><path class="cls-1" d="M46.37,79.83c0,1.41,0,4.1,3.28,4.1.94,0,3.52.12,6.1.12H62c.59,0,2.94.12,5.4.24,1.17,0,2.34.11,3.28.11l.12,1.76s-.35.59-.59.59a1.5,1.5,0,0,0-.58.12h-.94c-1.29,0-10.2-.47-11.38-.47-1.87,0-10.43-.12-12.31-.12-.94,0-.94-1.17-.94-1.76v-.59c.24-15.59.35-31.19.35-46.67,0-2.93.24-27.32.12-30.25V4.9l.59-.59h1.76V6.66c0,5,0,13.37-.12,19.23v6.68c0,15.48-.12,31.08-.35,46.67ZM62.55,49.46v-.82a4.82,4.82,0,0,1,.12-1.76h.23c.94,0,1.88.12,2.82.12a1.83,1.83,0,0,0,.82.11,7.91,7.91,0,0,0-.12,1.41c.12.82-1.41.82-2,.94ZM63,13.93V11.58c1.88-.12,3.75,0,5.75,0h1.4v1.88l-.58.58H68.41C66.54,14,64.78,14,63,13.93Z"/><path class="cls-1" d="M104.06,85.58l.94-.36v.12c-1.53,1.64-4.11,2-6,2.58H90.69A16.07,16.07,0,0,1,87.41,87c-7.39-2.93-8.68-10.55-9-17.59V33.51c0-1.64.35-9,.35-10.32.24-4.81.94-9.73,3.52-13.6a44.5,44.5,0,0,0-1.17,8.91c0,.59,0,2.35-.12,4.46-.12,2.34-.23,5-.23,5.86v36C81.08,72.56,82.48,81,91,84.4a20.29,20.29,0,0,0,4.34,1.18ZM97.38,15c0-1.76.23-3.4,1.52-3.4a3.2,3.2,0,0,1,1.06.12c.93.94.58.94.82,2.93.11,1.06.23,2.46.23,2.82v8.67l1.76,1.76h6.1a5.64,5.64,0,0,1-.35,2l-.24.35H99l-.35-.35V22.14c0-.94-.36-4.69-.36-5.4A2.62,2.62,0,0,0,97.38,15Zm4.8,42.22h.71V68.81L102.18,70l-.46.12h.11l-1.29.58V57.43c0-.23.71-.23.94-.23Z"/><path class="cls-1" d="M123.41,83.11,125.28,85h6.33v1.76l-.7.58h-9.38l-.58-.58-.36-3.52.12-13.84L121,34.1V5.84c0-.36.58-1.29.93-1.29h1.41V29.41l-.23,35.29-.12,14.07Z"/><path class="cls-1" d="M149.2,84.52h5.05c0,.12.11.23.11.47,0,0-.58.23-.58.59-.35.35-.71.93-1.29.93a31.51,31.51,0,0,1-5.87.36h-2.11c-.94-.71-.7-2.47-.7-3.41,0-.7-.24-2.93-.24-3.16V37.73c0-.94-.35-6.1-.35-7V6c.35-.35.94-1.64,1.29-1.64h1.06V26c0,.46,0,2.22.12,3.75s.23,2.81.23,3.28V75.61c0,.12.12.82.12,1.29a12.6,12.6,0,0,1,.12,1.87v.47c0,1.41-.36,3.4,1.64,4.81ZM161.4,15.8V11.93c1.88.12,3.52.71,3.75,2,.24,4.1.24,6.45.24,10.2,0,2.34,0,5.86-.24,8.44v-.23a3.8,3.8,0,0,1-2.23,2.23c.12-2,.12-4.11.12-5.75,0-3.75,0-6.22-.23-10.32A4.39,4.39,0,0,0,161.4,15.8Zm0,35.3v-2a3.88,3.88,0,0,0,1.17-.12c1.41-.12,2.82-.24,3.05-.24a13.61,13.61,0,0,0,2.93-.23,9.35,9.35,0,0,1-2.69,1.64A11.2,11.2,0,0,1,161.4,51.1Z"/><path class="cls-1" d="M184,79.83c0,1.41,0,4.1,3.28,4.1.94,0,3.52.12,6.1.12h6.22c.58,0,2.93.12,5.39.24,1.17,0,2.34.11,3.28.11l.12,1.76s-.35.59-.59.59a1.5,1.5,0,0,0-.58.12h-.94c-1.29,0-10.2-.47-11.37-.47-1.88,0-10.44-.12-12.32-.12-.94,0-.94-1.17-.94-1.76v-.59c.24-15.59.36-31.19.36-46.67,0-2.93.23-27.32.11-30.25V4.9l.59-.59h1.76V6.66c0,5,0,13.37-.12,19.23v6.68c0,15.48-.12,31.08-.35,46.67Zm16.18-30.37v-.82a4.82,4.82,0,0,1,.12-1.76h.23c.94,0,1.88.12,2.82.12a1.83,1.83,0,0,0,.82.11,7.91,7.91,0,0,0-.12,1.41c.12.82-1.41.82-2,.94Zm.47-35.53V11.58c1.88-.12,3.75,0,5.75,0h1.4v1.88l-.58.58h-1.18C204.2,14,202.44,14,200.68,13.93Z"/><path class="cls-1" d="M286.16,3.84h.35c0,6,.12,14.54.12,25,.12,16.18.12,35.88.12,52.42.35,2.22,2.34,2.93,4,2.93.24,0,.47-.12.71-.12h.47c.23,0,1.52.12,3,.24.47,0,.94.11,1.41.11v2c0,.58-2.58.23-2.46.35-.59,0-6.1-.35-6.69-.35-.35,0-.7.11-1.17.11-.7,0-1.52-.23-1.64-.93,0-28.26-.23-65-.23-79.27C283.93,4.19,284.52,3.84,286.16,3.84ZM303.4,15.92v-2c-.12-.59-.35-1.76-.94-2,2.11,0,4.1.59,4.81,2.11,0,4.93,0,7.86-.12,10.68,0,2.11-.12,4-.12,6.56a3.65,3.65,0,0,1-2.34,2c0-4.11.23-7.51.23-14.66A6.06,6.06,0,0,0,303.4,15.92Zm0,34.71V47a2.65,2.65,0,0,0-.12-.83c1.64.24,3.75.94,3.75,3.29,0,.58,0,2.93.12,4.81.12,4.45.47,11,.47,16.77v.82a32.64,32.64,0,0,0,1.87,12.54h9a6.81,6.81,0,0,1,.24,1.64c-.12,1.06-1.53.71-2.23.71H306.45c-1.29-3.29-1.18-7.62-1.18-11,0-8.68-.58-19.35-.58-21.58A5.33,5.33,0,0,0,303.4,50.63Z"/><path class="cls-1" d="M328.49,4.43l.59-.35h1.76V77.6c0,2.11,0,7.15,4.8,7.15A30.86,30.86,0,0,0,344.32,83c.24,1.87,8.21.93,10.09,1.52-.24,1.52-.71,2.81-1.76,2.81-1.41,0-2.82-.23-4.46-.23-.59-.23-1.52-.82-1.52-.59,0-.11-.71.12-1.18.24-5,.47-3.87-1.53-5.86-1.53C339,86.16,333,87.1,331,87.1c-2.46,0-2.46-3.4-2.46-4.81Zm17.36,10.44a15.46,15.46,0,0,1,.23-2.35h7.5v1.41c-.23.11-.35.7-.7.94Zm.46,33.53V45.82c1.06,0,2.12.12,3.29.12.12,0,.23.12.35.12v1.4a1.16,1.16,0,0,1-.59.94Z"/><path class="cls-1" d="M365.54,9.82a.46.46,0,0,0-.11.35,6.25,6.25,0,0,0-.12.94,2,2,0,0,0-.12.71,46,46,0,0,0-.58,9c0,13.13,10.43,23.8,18.05,32,2.82,3,3.64,6.8,3.64,11.26,0,2-.23,4.69-1.52,5.63H384v-.94c0-4.58-.82-8.68-3.51-12.08v-6.1l-2.7-.23h-3.05c-6.21-7-12.43-15.36-12.43-24.86a41.75,41.75,0,0,1,.59-8.56c0-.24.23-1.76.23-2A16.05,16.05,0,0,1,365.54,9.82Zm22.28,74.47,1.06-.24a11.9,11.9,0,0,1-6.1,2.58H375c-1.64,0-3.63-1-5.39-1.64-5.63-2.35-6.22-8.21-6.8-13.84,0-.82-.24-4.1-.24-4.69V57.67l.24-.24h2.22L365,61.77c0,.24.11,1.29.11,2.23a25.2,25.2,0,0,1,.12,2.7c.59,6.33,1.29,12.89,8.33,15.83a5,5,0,0,1,1.52.58,13.8,13.8,0,0,0,4.69,1.18ZM380.44,15.8c0-1.87.35-3.4,2.11-3.4.7,0,.82.24,1.17,1.41.23,3.52.23,7.15.23,10.67,0,0,.83,3.17,2.94,3.17h5v.47c0,.23-.24.93-.24,1.17a1.22,1.22,0,0,1-.35.7h-5.51l-2-2.23v.12a9.53,9.53,0,0,1-2.23-3.28c0-2.11-.12-4.22-.24-6.33A13.83,13.83,0,0,0,380.44,15.8Z"/><path class="cls-1" d="M414.44,82.53l.94.58A21.82,21.82,0,0,0,424.64,85a29.11,29.11,0,0,0,6.45-.7c-2.81,2.46-6.8,3-11.14,3a18.73,18.73,0,0,1-8.21-1.64l-.93-.58c-3.76-3.52-5.05-6.69-5.75-11.73,0-.7-.23-2.58-.23-2.58V23a26.41,26.41,0,0,1,3.75-13.84,30.34,30.34,0,0,0-1.41,9.15V66.34s.24,1.88.24,2.7c.82,5.75,2.22,9.27,6.45,13.13Zm8.33-68.13c.11-1.65.7-3.05,2.23-3.05s1.75,2.23,1.75,4v11c0,2.46,1.06,3.52,3.52,3.52h3.64a5.5,5.5,0,0,1,.23,1.05c0,1.64-2.23,1.29-3.16,1.29h-5.4c-.82,0-1.17-.35-1.17-1.17V20C424.41,18,424.29,15.57,422.77,14.4ZM427,57.2h2V68s-.7,1.17-1.05,1.87a4.71,4.71,0,0,1-1.29.71V57.43Z"/><path class="cls-1" d="M445.63,4.31h1.88c-.12,2.46-.12,4.69-.12,5.86v24.4a10.19,10.19,0,0,0,.24,1.64c0,.58-.24,2.23-.24,2.23v1.64c0,1.76.24,3.05.24,3.87s-.24,4.34-.24,5.16V61.89c0,22.16,8,23.92,19.35,23.92a17.45,17.45,0,0,0,4.46-.47,14.43,14.43,0,0,1-9.15,2.82c-10.79,0-17-1.53-17-21.58V53.8c0-.35.23-4.58.23-4.81v-.35c0-1.29-.23-2.58-.23-3.87V43.13c0-.36.23-2,.23-2.23s-.23-1.29-.23-1.64V14.87c0-2.82.23-10.32.23-10.32Zm22.17.24h1.4c-.11,21.57-.47,44.09-.58,65.55h.11c0,.11,0,.11-.11.23l-.12.12a3.3,3.3,0,0,1-2.23,1l.59-67.19.35.59Z"/><path class="cls-1" d="M488.67,4.43l.58-.35H491V77.6c0,2.11,0,7.15,4.81,7.15A30.86,30.86,0,0,0,504.5,83c.23,1.87,8.21.93,10.08,1.52-.23,1.52-.7,2.81-1.76,2.81-1.4,0-2.81-.23-4.45-.23-.59-.23-1.53-.82-1.53-.59,0-.11-.7.12-1.17.24-5,.47-3.87-1.53-5.86-1.53-.59.94-6.69,1.88-8.68,1.88-2.46,0-2.46-3.4-2.46-4.81ZM506,14.87a15.47,15.47,0,0,1,.24-2.35h7.5v1.41c-.23.11-.35.7-.7.94Zm.47,33.53V45.82c1.06,0,2.11.12,3.29.12.11,0,.23.12.35.12v1.4a1.19,1.19,0,0,1-.59.94Z"/><path class="cls-2" d="M15.82,83.37c0,.58-2.58.23-2.46.35-.59,0-6.1-.35-6.69-.35-.35,0-.7.11-1.17.11-.7,0-1.52-.23-1.64-.93,0-28.27-.24-65-.24-79.28C3.39,1.16,4,.81,5.62.81c8.67-.11,21.69,0,24,1.53,6.09,4.1,6.68,11.72,6.68,18.41,0,4.22-.23,13.25-3.28,16.88-.94,1.18-4,3-4,3.76,0,1.87.7.93,2.23,1.87A8.34,8.34,0,0,1,35.75,50c0,.23.59,8.32.59,8.56,0,8.56,0,16.53.94,20.52.23,1.29.94,2.58.94,4-.12,1-1.53.7-2.23.7H25.9c-1.29-3.28-1.17-7.62-1.17-11,0-8.68-.58-19.35-.58-21.58,0-5.28-5.87-5.75-7.39-5.75-.94,0-1.29.36-1.29,1.18,0,.35.35,1.87.35,2.11Zm1.88-46c2.81,0,5.51-.94,6.45-4,0-6,.23-8.91.23-17.82-.82-3.4-3.87-4.34-7.39-4.34-1.64,0-1.17,4.34-1.17,5,0,2.93.35,17.47.35,20.52C16.41,37.4,17,37.4,17.7,37.4Z"/><path class="cls-2" d="M47.6,80.9c.23-15.59.35-31.19.35-46.67,0-2.93.23-27.32.12-30.25V1.87l.58-.59h4c6-.23,20.29.12,20.29.12l.58.23a19.92,19.92,0,0,1,.35,2.47v.58c0,1.76-.11,5.75-.11,5.75l-.59.59H72c-3.64,0-7-.24-10.56-.12a1.8,1.8,0,0,0-1.87,1.17c-.12,6.57-.59,14.42-.47,20.76v2.58a2.59,2.59,0,0,0,2.46.93c2.46,0,5-.35,7.51-.47.58,0,.93,0,1.17.94v2c0,.7.12,2.46.12,2.46,0,.58-.36,3.63-.36,4.22.12.82-1.4.82-2,.94-2.11,0-4.22-.24-6.22-.24-1.28,0-1.87,0-2.46.94a34.66,34.66,0,0,0-.23,3.52c0,2.11-.35,14.78-.35,18.06,0,0,.11,1.52.11,1.76v2.11a1.36,1.36,0,0,0,.94.82l14.31-.24.23,10s-.35.59-.58.59a1.54,1.54,0,0,0-.59.12h-.94c-1.29,0-10.2-.47-11.37-.47-1.88,0-10.44-.12-12.32-.12-.93,0-.93-1.17-.93-1.76Z"/><path class="cls-2" d="M94.27,84.89A16.31,16.31,0,0,1,91,84C83.6,81,82.31,73.4,82,66.36V30.48c0-1.64.36-9,.36-10.32C82.66,13.48,84,6.68,89.69,2.57c4.46-3,7.86-2.7,12.2-2.34A3.51,3.51,0,0,0,103,.58c2.46.94,4.1,2.58,6,4.57,3.51,3.87,3.51,10.2,3.51,15.25,0,2,.35,4.57-.35,6.45l-.23.35h-9.27l-.35-.35V19.11c0-.94-.35-4.69-.35-5.4,0-1.17-.94-1.87-1.88-2.46a5.21,5.21,0,0,0-2.23-.35c-3.28,0-3.86,2.81-3.86,5.74,0,16.07-.36,32-.36,48.08v2c0,.58.36,3.75.36,4.45a5.11,5.11,0,0,0,4.45,3.75c1.64,0,2.93-.93,4.22-1.52l.36-.35a13.43,13.43,0,0,1,1.17-1.88V54.4c0-.23.7-.23.94-.23h.7c1.29,0,6.33.23,7.62.23.35,0,1.06,2.58,1.29,3.29v4.45c0,7.39-.59,14.78-6.1,20.17-1.52,1.64-4.1,2-6,2.58Z"/><path class="cls-2" d="M124.17,80.2l.11-13.84.24-35.29V2.81c0-.36.59-1.29.94-1.29l9.38-.59c.58,0,.94.59,1.29,1.17V6.79l-.35,3.87-.12,31.66-.35,11.38c-.12,3.4-.24,6.8-.24,10.2,0,6,.12,19.82.12,19.82l-.7.58h-9.38l-.59-.58Z"/><path class="cls-2" d="M147.38,80.44c0-.71-.23-2.94-.23-3.17V34.7c0-.94-.35-6.1-.35-7V2.92c.35-.35.94-1.64,1.29-1.64H164.5a13.91,13.91,0,0,1,6.1,1.17,7.13,7.13,0,0,1,2.23,1.88c3.4,3.75,4.46,8.68,4.46,13.6,0,3.17.11,10.79-.12,14,0,.35-.35,3.75-.35,4.1s-.35,2.46-.35,2.7c-.59,3.16-3.76,7-7,8.44a13.56,13.56,0,0,1-4.93.94c-.93,0-5.39.35-6.21.35l-.35.24c.23,10.9-.47,21.34,0,33.3,0,0-.59.23-.59.59-.35.35-.7.93-1.29.93a31.4,31.4,0,0,1-5.86.36h-2.11C147.15,83.13,147.38,81.37,147.38,80.44Zm10.21-42.81c0,1.18.11,1.53,1,1.53,3.4,0,7-1.29,7.74-4.69.23-2.58.23-6.22.23-8.68,0-3.75,0-6.22-.23-10.32-.35-3.05-3.4-4.22-6.21-4.22-.71,0-1.88-.35-2.23.94,0,3.63-.35,21.34-.35,25.09Z"/><path class="cls-2" d="M185.26,80.9c.23-15.59.35-31.19.35-46.67,0-2.93.24-27.32.12-30.25V1.87l.58-.59h4c6-.23,20.29.12,20.29.12l.58.23a19.4,19.4,0,0,1,.36,2.47v.58c0,1.76-.12,5.75-.12,5.75l-.59.59h-1.17c-3.64,0-7-.24-10.55-.12a1.81,1.81,0,0,0-1.88,1.17c-.12,6.57-.59,14.42-.47,20.76v2.58a2.6,2.6,0,0,0,2.46.93c2.47,0,5-.35,7.51-.47.58,0,.94,0,1.17.94v2c0,.7.12,2.46.12,2.46,0,.58-.35,3.63-.35,4.22.11.82-1.41.82-2,.94-2.11,0-4.22-.24-6.21-.24-1.29,0-1.88,0-2.46.94a34.68,34.68,0,0,0-.24,3.52c0,2.11-.35,14.78-.35,18.06,0,0,.12,1.52.12,1.76v2.11a1.34,1.34,0,0,0,.93.82l14.31-.24.23,10s-.35.59-.58.59a1.57,1.57,0,0,0-.59.12h-.94c-1.29,0-10.2-.47-11.37-.47-1.88,0-10.44-.12-12.31-.12-.94,0-.94-1.17-.94-1.76Z"/><path class="cls-2" d="M299.94,83.37c0,.58-2.58.23-2.47.35-.58,0-6.09-.35-6.68-.35-.35,0-.7.11-1.17.11-.71,0-1.53-.23-1.64-.93,0-28.27-.24-65-.24-79.28-.23-2.11.35-2.46,2-2.46,8.68-.11,21.7,0,24,1.53,6.1,4.1,6.69,11.72,6.69,18.41,0,4.22-.24,13.25-3.29,16.88-.93,1.18-4,3-4,3.76,0,1.87.7.93,2.22,1.87A8.36,8.36,0,0,1,319.87,50c0,.23.59,8.32.59,8.56,0,8.56,0,16.53.94,20.52.23,1.29.93,2.58.93,4-.11,1-1.52.7-2.22.7H310c-1.29-3.28-1.17-7.62-1.17-11,0-8.68-.59-19.35-.59-21.58,0-5.28-5.86-5.75-7.39-5.75-.93,0-1.29.36-1.29,1.18,0,.35.36,1.87.36,2.11Zm1.87-46c2.82,0,5.51-.94,6.45-4,0-6,.24-8.91.24-17.82-.82-3.4-3.87-4.34-7.39-4.34-1.64,0-1.17,4.34-1.17,5,0,2.93.35,17.47.35,20.52C300.52,37.4,301.11,37.4,301.81,37.4Z"/><path class="cls-2" d="M332.07,1.4l.58-.35c7.39,0,19.23.11,23.81.7l.7.59V10.9c-.24.12-.35.7-.7.94H343.2c-1.17,3.16-.7,7.15-.7,8.91,0,3.87-.12,14.89,1.29,14.89H352c.7,0,1.52,0,1.52.82v8a1.18,1.18,0,0,1-.58.93c-2.82,0-5.63-.23-8.33-.23-.58,0-1.76.23-1.76,1.17V71.17c0,.59,0,2.46,1.18,2.82,1.29,0,8.79.23,13.36.23l.71.23v2.11c0,.83.58,7.74-1.88,7.74-1.41,0-2.81-.23-4.45-.23-.59-.23-1.53-.82-1.53-.59,0-.11-.7.12-1.17.24-5,.47-3.87-1.53-5.87-1.53-.58.94-6.68,1.88-8.67,1.88-2.46,0-2.46-3.4-2.46-4.81Z"/><path class="cls-2" d="M378.62,83.6c-1.64,0-3.64-1-5.4-1.64-5.63-2.35-6.21-8.21-6.8-13.84,0-.82-.23-4.1-.23-4.69V54.64l.23-.24h10.2l.36.24V66.36c0,.59.23,3.29.23,3.87l1.41,2c.94,1.17,3.16,1.52,4.69,1.52h.58c3.4-.94,3.64-5,3.64-8,0-5.05-.94-9.38-4.22-12.9-7.39-8-17.47-18.3-17.47-30.37a42.46,42.46,0,0,1,.58-8.56c0-.24.24-1.76.24-2,1.17-4.1,4-8,7.74-9.73A18,18,0,0,1,381,1.05c2.58,0,4.81,0,7,.94a5,5,0,0,1,2,1.17c.71.58,2.35,2.34,2.58,2.58,3.17,3.87,2.93,10.9,2.93,15.59v3.76c0,.23-.23.93-.23,1.17a1.22,1.22,0,0,1-.35.7h-9.15c-.35,0-.59-.94-.59-.94,0-3.51,0-7.27-.23-10.78-.59-2.47-1.06-3.52-3.52-3.52-4.92,0-4.45,4-4.45,8.09,0,4.46.82,7.62,4,11.26,6,6.33,13.37,14.42,16.42,23.33.35.82,1.29,3.52,1.29,3.52V70.23a4.74,4.74,0,0,0-.35,1.18c-1.76,6.44-5.51,11.37-12,12.19Z"/><path class="cls-2" d="M408.64,70.35c0-.7-.24-2.58-.24-2.58V19.93a26.36,26.36,0,0,1,4.69-15.25l.35-.35c3.76-3.17,5.05-4.1,10.44-4.1a12.34,12.34,0,0,1,7.27,1.87c.7.71,3.17,2.93,3.52,3.52A24,24,0,0,1,437,9.49c1.18,3.4.82,10,.94,14.66a1.7,1.7,0,0,0-.59,1.52,22.18,22.18,0,0,0,.36,2.23c0,1.64-2.23,1.29-3.17,1.29h-5.39c-.82,0-1.18-.35-1.18-1.17V17c0-2.82-.23-6.34-4.1-6.34-5,0-4.69,5.16-4.69,8.91v2.58c0,6.92.23,39.87.23,46.91.36,3.17,1.65,5.63,5.16,5.63a6.17,6.17,0,0,0,4.34-2.11c.35-.71,1.29-2.23,1.29-2.23V54.4l.35-.23H435c1.29,0,4.46.23,4.46.23l.58.35V66.48a24.79,24.79,0,0,1-2.58,10.79c-2.46,6-7.85,7-14,7a18.67,18.67,0,0,1-8.21-1.64l-.94-.58C410.63,78.56,409.34,75.39,408.64,70.35Z"/><path class="cls-2" d="M480.4,73.87c-2.23,6.45-6.33,11.26-14.78,11.26-8.09,0-13.95-.94-16.41-10.56,0-1.64-.59-9.38-.59-11V50.77c0-.35.24-4.58.24-4.81v-.35c0-1.29-.24-2.58-.24-3.87V40.1c0-.36.24-2,.24-2.23s-.24-1.29-.24-1.64V11.84c0-2.82.24-10.32.24-10.32l.35-.24h4.45c.36.59.71.94,1.29.94s.94-.35,1.29-.94l2.93-.35.94.35V70.12s.35,1.52.59,2.22a2.53,2.53,0,0,0,.35.94c.7.94,1.64,2.23,2.93,2.23,2,0,3.87-.35,5.16-1.88a5,5,0,0,0,.71-1.29l.58-70.12.35-.35.59-.35h3.87a1.82,1.82,0,0,1,1.64-.59c1.88,0,1.17.94,2.23,2.23A16.68,16.68,0,0,0,481,5.39l.35.7c0,5.75.35,10.79.35,16.65,0,1.29-.7,2.58-.7,3.87a27.45,27.45,0,0,0,.35,5.4V56.16c0,1.88-.35,11.61-.35,13.6,0,.36-.36,1.29-.36,1.65l-.23.93Z"/><path class="cls-2" d="M492.24,1.4l.59-.35c7.39,0,19.23.11,23.8.7l.71.59V10.9c-.24.12-.36.7-.71.94H503.38c-1.17,3.16-.7,7.15-.7,8.91,0,3.87-.12,14.89,1.29,14.89h8.21c.7,0,1.52,0,1.52.82v8a1.16,1.16,0,0,1-.59.93c-2.81,0-5.62-.23-8.32-.23-.59,0-1.76.23-1.76,1.17V71.17c0,.59,0,2.46,1.17,2.82,1.29,0,8.8.23,13.37.23l.7.23v2.11c0,.83.59,7.74-1.87,7.74-1.41,0-2.82-.23-4.46-.23-.58-.23-1.52-.82-1.52-.59,0-.11-.71.12-1.18.24-5,.47-3.86-1.53-5.86-1.53-.58.94-6.68,1.88-8.68,1.88-2.46,0-2.46-3.4-2.46-4.81Z"/><path class="cls-1" d="M276.11,39.11V37.94l-.17-1.33-.42-2.09-.33-1.08-.17-.75-.41-1.34-.5-1.67-.84-1.92-.75-1.5-.58-.83-.5-1-.59-.83L269.52,22l-2.09-2.5-1.75-1.67-1.76-1.42-2.33-1.5L259.84,14l-1.34-.75-1.17-.58-1.17-.42-1.25-.42-.75-.33-1.08-.25-1.67-.42-1.5-.25H249l-2-.17-2.92.09-2-.09-1.34.25-2.08.34-2.25.75-1.09.5-1.75.5-2.34,1.09-2,1L227,16.08,226,17l-.67.33-.83.84-.84.91-.58.75-.84.76-1.42,1.92L219.28,25l-.84,1.83L217.69,28l-.83,2.17-.67,1.92-.25,1.34-.67,2.08L215.11,37l-.26,1.58V41l-.08,1.42.08,1.17.26,1.42.08,1,.33,1.67.42,2,.42,1.09.5,1.83,1.08,1.92,1,1.84,1.17,2.25,3,3.59.91.92,1.42,1.25,1.17,1.08.84.5.75.59,1.08.58.92.59.84.41,1.66.92,2,.75,1.5.59,1.08.25.84.25,1.5.33h2.09l1.67.25,1.25.09h1.42l1.92.16h2.42l1.75-.25,2.09-.58,1.75-.59.92-.33,1.41-.58,1.84-1.09,1.67-.92,1-.67.58-.5.84-.5.67-.58.75-.58.58-.51.75-.75,1.09-.83.92-.92.5-.58.33-.59.5-.75.58-.75.67-.83.42-.84.58-1,.76-1.59L274,52.8l.75-2,.34-1.42.25-1,.25-1.67.08-1.34.17-1.33.17-2.17.16-1.42Zm-16.58,8.18a1.54,1.54,0,0,0-.56.11,6.13,6.13,0,0,0-.9.11c-.79,0-4.85.11-8.24.11V59.81l-8.91.23s-.57-.34-.57-.57a1.51,1.51,0,0,0-.11-.56,6.35,6.35,0,0,0-.11-.91c0-.78-.12-6.2-.12-10.38-3.72-.11-8.12-.11-9.25-.11-.9,0-.9-1.13-.9-1.69v-.57l.11-7.11.34-.45c1.24.23,6.2.12,9.7.12,0-4.4.12-10.38.12-11.63,0-.9,1.12-.9,1.69-.9h.56l7.11.11.45.34c-.22,1.36-.11,8.24-.11,12.08h10l.23,8.91S259.76,47.29,259.53,47.29Z"/><path class="cls-2" d="M278.1,37.2V36l-.16-1.33-.42-2.09-.33-1.08-.17-.76-.42-1.33-.5-1.67-.83-1.92-.75-1.5-.59-.84-.5-1-.58-.83-1.34-1.59-2.08-2.5-1.76-1.67-1.75-1.42L263.58,13l-1.75-.92-1.33-.75-1.17-.59-1.17-.41-1.25-.42-.75-.33-1.09-.25-1.67-.42-1.5-.25H251l-2-.17-2.92.09-2-.09-1.34.25-2.09.34-2.25.75-1.08.5-1.76.5-2.33,1.08-2,1L229,14.17l-.92.91-.67.34-.83.83-.83.92-.59.75-.83.75-1.42,1.92-1.59,2.51-.83,1.83-.75,1.17-.84,2.17-.66,1.92-.25,1.34-.67,2.08-.17,1.5-.25,1.59v2.42l-.08,1.42.08,1.17.25,1.42.08,1,.34,1.67.42,2,.41,1.08.5,1.84,1.09,1.92,1,1.83,1.17,2.26,3,3.59.92.91,1.42,1.26,1.17,1.08.83.5.75.59,1.09.58.92.58.83.42,1.67.92,2,.75,1.5.58,1.09.25.83.26,1.51.33h2.08l1.67.25,1.25.08h1.42l1.92.17h2.42l1.75-.25,2.09-.58,1.75-.59.92-.33,1.42-.59,1.83-1.08,1.67-.92,1-.67.58-.5.83-.5.67-.58.75-.59.59-.5.75-.75,1.08-.83.92-.92.5-.59.34-.58.5-.75.58-.75.67-.84.42-.83.58-1,.75-1.59.67-1.83.75-2,.33-1.42.25-1,.25-1.67.09-1.33.16-1.34L278,40l.17-1.42Zm-16.57,8.17a1.4,1.4,0,0,0-.56.12,6.35,6.35,0,0,0-.91.11c-.79,0-4.85.11-8.23.11V57.9l-8.92.22s-.56-.33-.56-.56a1.4,1.4,0,0,0-.12-.56,6.35,6.35,0,0,0-.11-.91c0-.79-.11-6.2-.11-10.38-3.73-.11-8.13-.11-9.25-.11-.91,0-.91-1.13-.91-1.69v-.57l.12-7.11.33-.45c1.25.23,6.21.11,9.71.11,0-4.4.11-10.38.11-11.62,0-.9,1.13-.9,1.69-.9h.57l7.11.11.45.34c-.23,1.35-.11,8.24-.11,12.07h10l.22,8.92S261.76,45.37,261.53,45.37Z"/></g></g></svg>