<?xml version="1.0" encoding="utf-8"?>
<!-- Generator: Adobe Illustrator 24.2.1, SVG Export Plug-In . SVG Version: 6.00 Build 0)  -->
<svg version="1.1" id="Layer_1" xmlns="http://www.w3.org/2000/svg" xmlns:xlink="http://www.w3.org/1999/xlink" x="0px" y="0px"
	 viewBox="0 0 63.7 62.9" style="enable-background:new 0 0 63.7 62.9;" xml:space="preserve">
<style type="text/css">
	.st0{fill:#3756AF;}
	.st1{fill:#7090E8;}
</style>
<g id="Layer_2_1_">
	<g id="Layer_1-2">
		<path class="st0" d="M31.5,24.6L31.5,24.6L31.5,24.6z"/>
		<path class="st0" d="M62.3,29.3v-1.2l-0.2-1.3l-0.4-2.1l-0.3-1.1l-0.2-0.8l-0.4-1.3l-0.5-1.7l-0.8-1.9l-0.8-1.5l-0.6-0.8l-0.5-1
			l-0.6-0.8l-1.3-1.6l-2.1-2.5L51.9,8l-1.8-1.4l-2.3-1.5l-1.8-0.9l-1.3-0.8l-1.2-0.6l-1.2-0.4L41.1,2l-0.8-0.3l-1.1-0.2L37.6,1
			l-1.5-0.2h-0.9l-2-0.2l-2.9,0.1l-2-0.1L27,0.8l-2.1,0.3l-2.3,0.8l-1.1,0.5l-1.8,0.5L17.4,4l-2,1l-2.3,1.3l-0.9,0.9l-0.7,0.3
			l-0.8,0.8L9.9,9.3L9.4,10l-0.8,0.8l-1.4,1.9l-1.6,2.5L4.7,17l-0.8,1.2l-0.8,2.2l-0.7,1.9l-0.2,1.3l-0.7,2.1l-0.2,1.5l-0.2,1.6v2.4
			L1,32.6l0.1,1.2l0.2,1.4l0.1,1l0.3,1.7l0.4,2L2.6,41l0.5,1.8l1.1,1.9l1,1.8l1.2,2.3l3,3.6l0.9,0.9l1.4,1.2l1.2,1.1l0.8,0.5
			l0.8,0.6l1.1,0.6l0.9,0.6l0.8,0.4l1.7,0.9l2,0.8l1.5,0.6l1.1,0.2l0.8,0.2l1.5,0.3H28l1.7,0.2l1.3,0.1h1.4l1.9,0.2h2.4l1.8-0.2
			l2.1-0.6l1.8-0.6l0.9-0.3l1.4-0.6l1.8-1.1l1.7-0.9l1-0.7l0.6-0.5l0.8-0.5l0.7-0.6l0.8-0.6l0.6-0.5l0.8-0.8l1.1-0.8l0.9-0.9
			l0.5-0.6l0.3-0.6l0.5-0.8l0.6-0.8l0.7-0.8l0.4-0.8l0.6-1l0.8-1.6l0.7-1.8l0.8-2l0.3-1.4l0.2-1l0.2-1.7l0.1-1.3l0.2-1.3l0.2-2.2
			l0.2-1.4L62.3,29.3z M38.8,29.4l-1.7,1.9l1.7,1.9l0,0l1.1,1.3l1.2,1.3c0.6,0.3,1,0.8,1.2,1.4c0.5,0.4,0.9,0.9,1.3,1.4
			c0.4,0.1,0.8,1,1.3,1.4c0.5,0.4,0.9,0.9,1.2,1.4c0.2,0.4,0.5,0.7,0.7,0.8l0.7,0.8c0.5,0.8,0.9,0.8,1.3,1.4
			c0.4,0.4,0.8,0.8,1.1,1.2c0.3,0.7,0.6,0.5,0.9,0.9c0.2,0,0.7,0.9,0.7,1c-0.2,0-0.3-0.1-0.7,0c-0.5,0-0.6-0.1-1.3,0
			c-0.3,0-0.7,0-1,0.1c-0.3-0.1-0.7-0.1-1-0.1c-0.3,0.1-1.5-0.1-1.8,0c-0.6-0.1-0.9,0.1-1.8,0c-0.6,0.1-1.2-0.2-1.8,0
			c-0.6-0.1-1.2-0.1-1.7,0c-1.5-1.7-3.2-3.5-4.8-5.4l-1.2-1.4c-0.6-0.3-1-0.7-1.2-1.3l0,0c-0.1,0.2-0.1-0.8-0.2-0.2
			c-0.1,0-0.3-0.1-0.4-0.5l0,0c-0.3-0.2-0.6-0.5-0.7-0.8c-0.2,0.3-0.4,0.6-0.7,0.8l0,0c0,0.3,0,0.1,0,0c-0.1,0.4-0.3,0.5-0.4,0.5
			c-0.1-0.5-0.1,0.4-0.2,0.2l0,0c-0.2,0.6-0.6,1.1-1.2,1.3c-0.4,0.5-0.8,0.9-1.2,1.4c-1.6,1.8-3.3,3.7-4.8,5.4
			c-0.6-0.1-1.2-0.1-1.7,0c-0.6-0.2-1.2,0.1-1.8,0c-0.6,0.2-1.2-0.2-1.8,0c-0.3-0.1-1.5,0.1-1.8,0c-0.3,0-0.5,0-0.8,0
			c-0.3-0.1-0.6-0.1-0.9,0l0,0c-0.3-0.1-0.6-0.1-0.9,0l0,0c-0.5,0.1-0.9,0.1-1.4,0c0.2-0.3,0.4-0.7,0.7-1c0.2-0.4,0.6-0.2,0.9-0.9
			c0.3-0.4,0.7-0.8,1.1-1.2c0.4-0.6,0.8-0.6,1.3-1.4l0.7-0.8c0.3-0.2,0.6-0.5,0.7-0.8c0.3-0.5,0.7-1,1.2-1.4
			c0.4-0.4,0.8-1.3,1.3-1.4c0.4-0.5,0.8-1,1.3-1.4c0.2-0.6,0.7-1.1,1.2-1.4l1.2-1.3l1.1-1.3l0,0l1.7-1.9l-1.7-1.9l0,0l-1.1-1.3
			l-1.2-1.4c-0.6-0.3-1-0.8-1.2-1.4c-0.5-0.4-0.9-0.9-1.3-1.4c-0.4-0.1-0.8-1-1.3-1.4C18,22,17.6,21.6,17.3,21
			c-0.1-0.3-0.4-0.6-0.7-0.8l-0.7-0.8c-0.4-0.8-0.9-0.8-1.3-1.4c-0.4-0.4-0.8-0.8-1.1-1.2c-0.3-0.7-0.6-0.5-0.9-0.9
			c-0.2,0-0.3-0.4-0.5-0.6C12,15.1,12,14.9,12,14.8c0.2,0,0.5,0.3,0.7,0c0.2,0.2,0.4-0.1,0.7,0l0,0c0.2,0,0.4,0,0.6,0
			c0.1-0.1,0.3,0,0.3,0c0.3,0.1,0.6,0.1,0.9,0c0.3,0,0.5,0,0.8,0c0.3-0.1,0.6-0.1,0.9,0c0.4-0.1,0.6,0.1,0.9,0
			c0.6,0.1,1.1-0.3,1.8,0c0.6-0.1,1.2,0.1,1.8,0c0.6,0.1,1.2,0.1,1.7,0l1.1,1.3l1.2,1.3c0.4,0.9,0.8,0.9,1.2,1.4
			c0.4,0.6,0.8,1.3,1.2,1.4c0.5,0.4,0.9,0.8,1.2,1.4c0.2,0,0.4,0.3,0.6,0.6c0.2,0.3,0.4,0.5,0.6,0.7c0-0.2,0.7,0.8,0.7,0.8
			c0.1,0.3,0.3,0.6,0.6,0.8l0.1,0.1l0.1-0.1c0.3-0.2,0.6-0.5,0.7-0.8l0,0c0.4-0.1,0.6-0.6,0.7-0.7c0.3-0.2,0.4-0.5,0.6-0.7
			s0.4-0.5,0.6-0.6c0.3-0.5,0.7-1,1.2-1.4c0.4-0.1,0.8-0.8,1.2-1.4c0.4-0.4,0.8-0.5,1.2-1.4l1.2-1.3l1.2-1.3c0.6,0.1,1.2,0.1,1.7,0
			c0.6,0.2,1.2-0.1,1.8,0c0.9-0.1,1.2,0.1,1.8,0c0.3,0.1,1.5-0.1,1.8,0c0.6,0,1.2,0,1.7,0l0,0c0.3,0.1,0.6,0.1,0.9,0l0,0
			c0.5,0,0.9,0,1.4,0c0,0.1-0.4,1-0.7,1c-0.2,0.4-0.5,0.2-0.9,0.9c-0.3,0.4-0.7,0.9-1.1,1.2c-0.4,0.6-0.8,0.6-1.3,1.4l-0.7,0.8
			c-0.2,0.1-0.5,0.4-0.7,0.8c-0.3,0.5-0.7,1-1.2,1.4c-0.4,0.4-0.8,1.4-1.3,1.4c-0.4,0.5-0.8,1-1.3,1.4c-0.2,0.6-0.7,1.1-1.2,1.4
			L39.9,28L38.8,29.4L38.8,29.4z"/>
		<path class="st1" d="M33.8,23L33.8,23z"/>
		<path class="st1" d="M63.7,28.7v-1.2l-0.2-1.3l-0.4-2.1L62.7,23l-0.2-0.8L62.2,21l-0.5-1.7l-0.8-1.9l-0.8-1.5L59.5,15L59,14
			l-0.6-0.8l-1.4-1.6L55,9.1l-1.8-1.7L51.5,6l-2.3-1.5l-1.8-0.9L46,2.8l-1.2-0.6l-1.2-0.4l-1.2-0.4l-0.8-0.3l-1.1-0.2L39,0.4
			l-1.5-0.2h-0.9l-2-0.2l-2.9,0.1l-2-0.1l-1.3,0.2l-2.1,0.3l-2.2,0.7l-1.1,0.5l-1.8,0.5l-2.3,1.1l-2,1l-2.3,1.2l-0.9,0.9l-0.7,0.3
			l-0.8,0.8l-0.8,0.9l-0.6,0.8l-0.8,0.8l-1.4,1.9l-1.6,2.5L6,16.4l-0.8,1.2l-0.8,2.2l-0.7,1.9L3.5,23l-0.7,2.1l-0.2,1.5l-0.2,1.6
			v2.4L2.3,32l0.1,1.2l0.2,1.4l0.1,1l0.3,1.7l0.4,2l0.4,1.1l0.5,1.8l1.1,1.9l1,1.8l1.2,2.3l3,3.6l0.9,0.9L13,54l1.2,1.1l0.8,0.5
			l0.8,0.6l1.1,0.6l0.9,0.6l0.8,0.4l1.7,0.9l2,0.8l1.5,0.6l1.1,0.2l0.8,0.2l1.5,0.3h2.1l1.7,0.2l1.3,0.1h1.4l1.9,0.2H38l1.8-0.2
			l2.1-0.6l1.8-0.6l0.9-0.3l1.4-0.6l1.8-1.1l1.7-0.9l1-0.7l0.6-0.5l0.8-0.5l0.7-0.6l0.8-0.6l0.6-0.5l0.8-0.8l1.1-0.8l0.9-0.9
			l0.5-0.6l0.3-0.6l0.5-0.8l0.6-0.8l0.7-0.8l0.4-0.8l0.6-1l0.8-1.6l0.7-1.8l0.8-2l0.3-1.4l0.2-1l0.3-1.7l0.1-1.3l0.2-1.3l0.2-2.2
			l0.2-1.5L63.7,28.7z M40.1,28.8l-1.7,1.9l1.7,1.9l0,0l1.1,1.3l1.2,1.3c0.6,0.3,1,0.8,1.2,1.4c0.5,0.4,0.9,0.9,1.3,1.4
			c0.4,0.1,0.8,1,1.3,1.4c0.5,0.4,0.9,0.9,1.2,1.4c0.1,0.3,0.4,0.6,0.7,0.8l0.7,0.8c0.5,0.8,0.9,0.8,1.3,1.4
			c0.4,0.4,0.8,0.8,1.1,1.2c0.3,0.7,0.6,0.5,0.9,0.9c0.2,0,0.6,0.9,0.7,1c-0.2,0-0.3-0.1-0.7,0c-0.4,0-0.9,0-1.3,0
			c-0.3,0-0.7,0-1,0.1C49.4,47,49,47,48.7,47c-0.3,0.1-1.5-0.1-1.8,0c-0.6-0.1-0.9,0.1-1.8,0c-0.6,0.1-1.2-0.2-1.8,0
			c-0.6-0.1-1.2-0.1-1.7,0c-1.5-1.7-3.2-3.5-4.8-5.4l-1.2-1.3c-0.6-0.3-1-0.8-1.2-1.4l0,0c-0.1,0.2-0.2-0.8-0.2-0.2
			c-0.1,0-0.3-0.1-0.4-0.5l0,0c-0.2-0.1-0.5-0.4-0.7-0.8c-0.2,0.3-0.5,0.7-0.7,0.8l0,0c-0.1,0.4-0.3,0.5-0.4,0.5
			c-0.1-0.5-0.1,0.4-0.2,0.2l0,0c-0.2,0.6-0.6,1.1-1.2,1.3l-1.2,1.4c-1.6,1.8-3.3,3.7-4.8,5.4c-0.6-0.1-1.2-0.1-1.7,0
			c-0.6-0.2-1.2,0.1-1.8,0c-0.6,0.2-1.2-0.2-1.8,0c-0.3-0.1-1.5,0.1-1.8,0c-0.3,0-0.5,0-0.8,0c-0.3-0.1-0.6-0.1-0.9,0l0,0
			c-0.3-0.1-0.6-0.1-0.9,0l0,0c-0.5,0.1-0.9,0.1-1.4,0c0.2-0.4,0.4-0.7,0.7-1.1c0.2-0.4,0.5-0.2,0.9-0.9c0.3-0.4,0.7-0.8,1.1-1.2
			c0.4-0.6,0.8-0.6,1.3-1.4l0.7-0.8c0.2-0.1,0.5-0.4,0.7-0.8c0.3-0.5,0.7-1,1.2-1.4c0.4-0.4,0.8-1.3,1.3-1.4c0.4-0.5,0.8-1,1.3-1.4
			c0.2-0.6,0.7-1.1,1.2-1.4l1.2-1.3l1.1-1.3l0,0l1.7-1.9L26,28.8l0,0l-1.2-1.3l-1.2-1.4c-0.6-0.3-1-0.8-1.2-1.4
			c-0.5-0.4-0.9-0.9-1.3-1.4c-0.4-0.1-0.9-1-1.3-1.4c-0.5-0.4-0.9-0.9-1.2-1.4c-0.2-0.4-0.5-0.7-0.7-0.8l-0.7-0.8
			c-0.4-0.8-0.9-0.8-1.3-1.4c-0.4-0.4-0.8-0.8-1.1-1.2c-0.3-0.7-0.6-0.5-0.9-0.9c-0.2,0-0.3-0.4-0.5-0.6c-0.1-0.1-0.1-0.3-0.1-0.4
			c0.2,0,0.5,0.2,0.7,0c0.2,0.2,0.4-0.1,0.7,0l0,0c0.2,0,0.4,0,0.6,0c0.1-0.1,0.3,0,0.3,0c0.3,0.1,0.6,0.1,0.9,0c0.3,0,0.5,0,0.8,0
			c0.3-0.1,0.6-0.1,0.9,0c0.4-0.1,0.6,0.1,0.9,0c0.6,0.1,1.1-0.3,1.8,0c0.6-0.1,1.2,0.1,1.8,0c0.6,0.1,1.2,0.1,1.7,0
			c0.4,0.4,0.8,0.8,1.1,1.3l1.2,1.3c0.4,0.9,0.8,0.9,1.2,1.4c0.4,0.6,0.8,1.3,1.2,1.4c0.5,0.4,0.9,0.8,1.2,1.4
			c0.2,0,0.4,0.3,0.6,0.6c0.2,0.3,0.4,0.5,0.6,0.8c0-0.2,0.7,0.8,0.7,0.8c0.3,0.6,0.4,0.6,0.6,0.8L33,24l0.1-0.1
			c0.3-0.2,0.5-0.5,0.7-0.8l0,0c0.3-0.1,0.6-0.6,0.7-0.7c0.3-0.2,0.4-0.5,0.6-0.8s0.4-0.5,0.6-0.6c0.3-0.5,0.7-1,1.2-1.4
			c0.4-0.1,0.8-0.8,1.2-1.4c0.4-0.4,0.8-0.5,1.2-1.4l1.2-1.3l1.1-1.3c0.6,0.1,1.2,0.1,1.7,0c0.6,0.2,1.2-0.1,1.8,0
			c0.9-0.1,1.2,0.1,1.8,0c0.3,0.1,1.5-0.1,1.8,0c0.6,0,1.2,0,1.7,0l0,0c0.3,0.1,0.6,0.1,0.9,0l0,0c0.5,0,0.9,0,1.4,0
			c0,0.1-0.4,1-0.7,1c-0.2,0.4-0.5,0.2-0.9,0.9c-0.3,0.4-0.7,0.8-1.1,1.2c-0.4,0.6-0.8,0.6-1.3,1.4l-0.7,0.8
			c-0.3,0.2-0.6,0.5-0.7,0.8c-0.3,0.5-0.7,1-1.2,1.4c-0.4,0.4-0.8,1.4-1.3,1.4c-0.4,0.5-0.8,1-1.3,1.4c-0.2,0.6-0.7,1.1-1.2,1.4
			c-0.4,0.5-0.8,0.9-1.2,1.4L40.1,28.8L40.1,28.8z"/>
	</g>
</g>
</svg>
