<svg xmlns="http://www.w3.org/2000/svg" viewBox="0 0 63.74 62.92"><defs><style>.cls-1{fill:#3756af;}.cls-2{fill:#7090e8;}</style></defs><g id="Layer_2" data-name="Layer 2"><g id="Layer_1-2" data-name="Layer 1"><path class="cls-1" d="M31.47,24.63h0l0,0Z"/><path class="cls-1" d="M61.34,30.29V29.12l-.17-1.34-.42-2.08-.33-1.09-.17-.75-.41-1.33-.51-1.67-.83-1.92-.75-1.5-.58-.84-.51-1-.58-.83-1.34-1.59-2.08-2.5L50.91,9,49.15,7.59l-2.33-1.5-1.76-.92-1.33-.75-1.17-.59-1.17-.41L40.14,3l-.75-.33-1.08-.25L36.64,2l-1.51-.25h-.91l-2-.17-2.92.08-2-.08L26,1.83l-2.08.33-2.26.76-1.08.5-1.75.5L16.44,5l-2,1L12.18,7.26l-.91.91-.67.34-.84.83-.83.92L8.35,11l-.84.75L6.09,13.68,4.51,16.19,3.67,18l-.75,1.17-.83,2.17-.67,1.92-.25,1.33L.5,26.7.33,28.2.08,29.79v2.42L0,33.63.08,34.8l.25,1.41.09,1,.33,1.66.42,2L1.58,42l.51,1.84,1.08,1.92,1,1.83,1.17,2.26,3,3.59.91.91,1.42,1.25,1.17,1.09.83.5.76.58,1.08.59.92.58.83.42,1.67.92,2,.75,1.51.58,1.08.25.84.25,1.5.34H27l1.66.25,1.26.08h1.41l1.92.17h2.42l1.76-.25,2.08-.59,1.76-.58.91-.33,1.42-.59L45.4,59.5l1.67-.92,1-.67.58-.5.84-.5.67-.58.75-.59.58-.5.75-.75,1.09-.83.91-.92.5-.59.34-.58.5-.75.58-.75.67-.84.42-.83.58-1,.75-1.59L59.25,44,60,42l.34-1.42.25-1,.25-1.67.08-1.33.17-1.34L61.25,33l.17-1.42Zm-23.51.06-1.7,1.91,1.67,1.89h0l1.12,1.26,1.19,1.35a2.67,2.67,0,0,1,1.24,1.42,7.12,7.12,0,0,1,1.26,1.44c.42.08.85,1,1.26,1.43a5,5,0,0,1,1.23,1.4c.25.44.48.72.72.8l.68.78c.45.8.88.79,1.28,1.42a9,9,0,0,1,1.09,1.21c.33.73.63.53.88.94.25,0,.65.89.66,1-.23,0-.35-.08-.69,0-.54,0-.57-.07-1.35,0a4,4,0,0,0-1,.08,3.94,3.94,0,0,0-1-.06c-.29.11-1.47-.08-1.77,0-.59-.14-.89.12-1.79,0-.59.1-1.19-.15-1.77,0a5.48,5.48,0,0,0-1.73,0c-1.5-1.67-3.17-3.53-4.8-5.37l-1.21-1.37a2.33,2.33,0,0,1-1.19-1.33h0c-.07.19-.14-.75-.22-.25-.14,0-.29-.1-.43-.49h0a2.28,2.28,0,0,1-.74-.79,2.28,2.28,0,0,1-.74.79h0c0,.31,0,.13,0,0-.14.39-.29.48-.43.49-.07-.5-.15.44-.22.25h0a2.36,2.36,0,0,1-1.18,1.33c-.4.46-.81.91-1.22,1.37-1.63,1.84-3.3,3.7-4.8,5.37a9.85,9.85,0,0,0-1.73,0c-.58-.16-1.17.09-1.77,0-.64.16-1.19-.15-1.79,0-.3-.09-1.48.1-1.77,0a2.38,2.38,0,0,0-.8,0,1.2,1.2,0,0,0-.93,0h0a2.08,2.08,0,0,0-.93,0h0a5.88,5.88,0,0,1-1.39,0,9.88,9.88,0,0,1,.66-1c.25-.41.55-.21.88-.94a9,9,0,0,1,1.09-1.21c.4-.63.83-.62,1.28-1.42l.68-.78a1.6,1.6,0,0,0,.72-.8,5,5,0,0,1,1.23-1.4c.42-.42.84-1.35,1.26-1.43a7.44,7.44,0,0,1,1.26-1.44,2.64,2.64,0,0,1,1.25-1.42l1.18-1.35,1.12-1.26h0l1.67-1.89L23.6,30.35h0l-1.12-1.26L21.3,27.73a2.64,2.64,0,0,1-1.25-1.42,7.44,7.44,0,0,1-1.26-1.44c-.42-.08-.84-1-1.26-1.43A5,5,0,0,1,16.3,22a1.6,1.6,0,0,0-.72-.8l-.68-.78c-.45-.8-.88-.79-1.28-1.42a9,9,0,0,1-1.09-1.21c-.33-.73-.63-.53-.88-.94-.25,0-.29-.37-.54-.65a.72.72,0,0,1-.12-.39c.23,0,.46.25.69,0,.24.17.35-.09.7,0h0a1.81,1.81,0,0,0,.62,0c.09-.09.31,0,.31,0a1.73,1.73,0,0,0,.93,0,2.38,2.38,0,0,0,.8,0,1,1,0,0,1,.89,0c.43-.11.58.1.88,0,.6.14,1.14-.27,1.79,0,.6-.1,1.19.15,1.77,0a9.92,9.92,0,0,0,1.73,0l1.15,1.28,1.2,1.34c.4.91.81.93,1.22,1.37.41.63.82,1.28,1.23,1.38a4.94,4.94,0,0,1,1.22,1.37c.2,0,.4.3.59.59a3.41,3.41,0,0,0,.59.74c0-.2.73.79.73.79a1.45,1.45,0,0,0,.62.75l.06.08.06-.08a1.69,1.69,0,0,0,.7-.79h0c.35-.12.58-.65.65-.74.34-.22.39-.46.59-.74s.39-.55.6-.59a4.92,4.92,0,0,1,1.21-1.37c.41-.1.82-.75,1.23-1.38.41-.44.82-.46,1.22-1.37l1.2-1.34,1.15-1.28a4.38,4.38,0,0,0,1.73,0c.58.16,1.18-.09,1.77,0,.86-.12,1.2.15,1.79,0,.3.09,1.48-.1,1.77,0a16.64,16.64,0,0,0,1.73,0h0a2,2,0,0,0,.93,0h0a7.12,7.12,0,0,1,1.39,0c0,.15-.41,1-.66,1-.25.41-.55.21-.88.94A9,9,0,0,1,47.8,19c-.4.63-.83.62-1.28,1.42l-.68.78c-.24.08-.47.36-.72.8a5,5,0,0,1-1.23,1.4c-.41.42-.84,1.35-1.26,1.43a7.12,7.12,0,0,1-1.26,1.44,2.67,2.67,0,0,1-1.24,1.42l-1.19,1.35-1.12,1.26Z"/><path class="cls-2" d="M33.79,23.05h0Z"/><path class="cls-2" d="M63.66,28.71V27.54l-.17-1.34-.42-2.08L62.74,23l-.17-.75L62.15,21l-.5-1.67-.83-1.92-.75-1.5L59.48,15,59,14l-.58-.84L57.06,11.6,55,9.1,53.22,7.43,51.47,6l-2.34-1.5-1.75-.92-1.33-.75-1.17-.59-1.17-.41-1.25-.42-.75-.34L40.62.83,39,.42,37.45.17h-.92l-2-.17L31.61.08l-2-.08L28.27.25,26.18.58l-2.25.75-1.08.51-1.76.5L18.76,3.42l-2,1L14.5,5.67l-.92.92-.66.34-.84.83-.83.92-.59.75-.83.75L8.41,12.1,6.82,14.6,6,16.44l-.75,1.17L4.4,19.78,3.74,21.7,3.49,23l-.67,2.09-.17,1.5L2.4,28.21v2.42l-.08,1.42.08,1.16.25,1.42.08,1,.34,1.67.42,2,.41,1.08.5,1.84,1.09,1.92,1,1.83,1.17,2.26,3,3.58.92.92L13,54l1.17,1.09.83.5.75.58,1.09.59.92.58.83.42,1.67.92,2,.75,1.51.58,1.08.25.83.25,1.51.34h2.08l1.67.25,1.25.08h1.42l1.92.17H38l1.76-.25,2.08-.59,1.75-.58.92-.34L45.88,59l1.84-1.08L49.38,57l1-.67.58-.5.84-.5.66-.59.75-.58.59-.5.75-.75,1.08-.84.92-.91.5-.59L57.4,50l.5-.75.58-.75.67-.84.42-.83.58-1,.75-1.59.67-1.84.75-2L62.65,39l.25-1,.26-1.67L63.24,35l.17-1.34.16-2.17L63.74,30Zm-23.52.05-1.69,1.92,1.67,1.89h0l1.11,1.27,1.19,1.35a2.55,2.55,0,0,1,1.24,1.42,7.14,7.14,0,0,1,1.27,1.44c.42.08.84,1,1.26,1.43a5,5,0,0,1,1.23,1.4,1.6,1.6,0,0,0,.72.8l.68.78c.45.8.88.79,1.27,1.42a8.46,8.46,0,0,1,1.1,1.21c.33.73.63.53.88.94.25,0,.64.89.66,1-.23,0-.35-.08-.7,0a11.06,11.06,0,0,0-1.35,0,3.94,3.94,0,0,0-1,.08,4,4,0,0,0-1-.06c-.29.11-1.47-.08-1.77,0-.6-.14-.9.12-1.79,0-.6.1-1.19-.15-1.78,0a5.49,5.49,0,0,0-1.73,0c-1.49-1.67-3.16-3.53-4.79-5.37L35.6,40.36A2.36,2.36,0,0,1,34.42,39h0c-.07.19-.15-.75-.22-.25-.14,0-.29-.11-.44-.49h0c-.24-.09-.48-.43-.73-.78-.25.35-.49.69-.74.78h0c-.14.38-.29.48-.43.49-.08-.5-.15.44-.22.25h0a2.36,2.36,0,0,1-1.19,1.33l-1.21,1.37c-1.63,1.84-3.3,3.7-4.8,5.37a9.86,9.86,0,0,0-1.73,0c-.58-.16-1.18.09-1.77,0-.65.16-1.2-.15-1.79,0-.3-.09-1.48.1-1.78,0a2.62,2.62,0,0,0-.79,0,1.24,1.24,0,0,0-.93,0h0a2.08,2.08,0,0,0-.93,0h0a5.87,5.87,0,0,1-1.39,0A9.88,9.88,0,0,1,14,46c.25-.41.54-.21.88-.94A9,9,0,0,1,16,43.88c.4-.63.83-.62,1.27-1.42l.69-.78c.24-.08.47-.36.72-.8a5,5,0,0,1,1.23-1.4c.41-.42.84-1.35,1.26-1.43a7.12,7.12,0,0,1,1.26-1.44,2.63,2.63,0,0,1,1.24-1.42l1.19-1.35,1.11-1.27h0l1.68-1.89-1.7-1.92h0L24.8,27.5l-1.19-1.36a2.6,2.6,0,0,1-1.24-1.41,7.12,7.12,0,0,1-1.26-1.44c-.42-.08-.85-1-1.26-1.43a5.15,5.15,0,0,1-1.24-1.4c-.24-.44-.47-.72-.71-.8l-.69-.78c-.44-.8-.87-.8-1.27-1.42a8.4,8.4,0,0,1-1.09-1.21c-.34-.73-.63-.53-.88-.94-.25,0-.3-.37-.54-.65a.72.72,0,0,1-.12-.39c.23,0,.46.24.69,0,.24.17.35-.09.7,0h0a1.82,1.82,0,0,0,.62,0c.09-.09.31,0,.31,0a1.73,1.73,0,0,0,.93,0,2.33,2.33,0,0,0,.79,0,1,1,0,0,1,.9,0c.43-.11.58.1.88,0,.59.14,1.14-.28,1.79,0,.59-.1,1.19.15,1.77,0a9.92,9.92,0,0,0,1.73,0c.38.41.76.84,1.15,1.28l1.2,1.34c.4.91.81.93,1.22,1.37.41.63.82,1.28,1.23,1.38A5,5,0,0,1,30.43,21c.2,0,.4.31.6.59a3.26,3.26,0,0,0,.59.75c0-.2.73.79.73.79.29.56.38.59.62.75l.06.08.06-.08a1.72,1.72,0,0,0,.69-.8h0c.35-.13.58-.65.65-.74.34-.22.39-.46.59-.75s.39-.55.59-.59a5,5,0,0,1,1.22-1.36c.41-.1.82-.75,1.23-1.38.41-.44.82-.46,1.22-1.37l1.2-1.34,1.14-1.28a4.38,4.38,0,0,0,1.73,0c.59.16,1.18-.09,1.78,0,.86-.12,1.19.15,1.79,0,.3.09,1.48-.1,1.77,0a16.64,16.64,0,0,0,1.73,0h0a2,2,0,0,0,.93,0h0a7.12,7.12,0,0,1,1.39,0c0,.15-.41,1-.66,1-.25.41-.55.21-.88.94a8.46,8.46,0,0,1-1.1,1.21c-.39.62-.82.62-1.27,1.42l-.68.78a1.6,1.6,0,0,0-.72.8,5,5,0,0,1-1.23,1.4c-.42.42-.84,1.35-1.26,1.43a7.14,7.14,0,0,1-1.27,1.44,2.52,2.52,0,0,1-1.24,1.41c-.4.47-.8.92-1.19,1.36l-1.11,1.26Z"/></g></g></svg>