<svg xmlns="http://www.w3.org/2000/svg" viewBox="0 0 41.82 34.69"><defs><style>.cls-1{fill:#772001;}.cls-2{fill:#f6921e;}</style></defs><g id="Layer_2" data-name="Layer 2"><g id="Layer_1-2" data-name="Layer 1"><path class="cls-1" d="M20.46,25.7Z"/><path class="cls-1" d="M39.37,34.05c-.15.33-.36-.6-.61-.61-.25-.41-.54-.21-.87-.94a9.09,9.09,0,0,0-1.1-1.21c-.4-.63-.83-.62-1.27-1.42l-.69-.78a1.63,1.63,0,0,1-.71-.8,5.15,5.15,0,0,0-1.24-1.4c-.41-.42-.83-1.35-1.26-1.43A7.12,7.12,0,0,0,30.36,24a2.63,2.63,0,0,0-1.24-1.42l-1.19-1.35L26.82,20h0l-1.67-1.89,1.69-1.92h0L28,14.91l1.19-1.36a2.6,2.6,0,0,0,1.24-1.41,7.12,7.12,0,0,0,1.26-1.44c.43-.08.85-1,1.26-1.43a5.15,5.15,0,0,0,1.24-1.4,1.63,1.63,0,0,1,.71-.8l.69-.78c.44-.8.87-.8,1.27-1.42a9.09,9.09,0,0,0,1.1-1.21c.33-.73.62-.53.87-.94.25,0,.46-.94.61-.61s0-.28.06-.43c-.24,0-.47.24-.7,0-.23.17-.47-.41-.7,0h0c-.2.43-.41,0-.62,0-.1-.21-.2.41-.31,0h0c-.28.05-.56.2-.85-.2a3,3,0,0,1-.87.2c-.3-.11-.59-.27-.89-.09-.29-.38-.59.17-.89.08-.59.14-1.19-.45-1.79,0-.59-.1-1.19.15-1.77,0a4.38,4.38,0,0,1-1.73,0L27.18,2.93,26,4.27c-.4.91-.81.93-1.22,1.37-.41.63-.82,1.28-1.23,1.38a5,5,0,0,0-1.21,1.36c-.2,0-.4.31-.6.59a3.55,3.55,0,0,1-.58.75c0-.2,0,.81,0,0-.07.09-.14-.29-.22.25-.14-.19-.29,1-.43.49-.23.7-.46.64-.7.8l-.06.08-.06-.08c-.23-.16-.46-.1-.69-.8-.15.56-.29-.68-.44-.49-.07-.54-.15-.16-.22-.25h0A3.56,3.56,0,0,1,17.72,9c-.19-.28-.39-.55-.59-.59A5,5,0,0,0,15.91,7c-.41-.1-.82-.75-1.23-1.38-.41-.44-.81-.46-1.22-1.37L12.27,2.93,11.12,1.65a4.38,4.38,0,0,1-1.73,0c-.59.16-1.18-.09-1.78,0-.59-.44-1.19.15-1.79,0-.3.09-.59-.46-.89-.08-.29-.18-.59,0-.88.09a3,3,0,0,1-.87-.2c-.29.4-.58.25-.86.2h0c-.1.41-.21-.21-.31,0-.21,0-.42.43-.62,0h0c-.23-.41-.46.17-.69,0-.23.23-.47,0-.7,0,0,.15.06.82.06.43.15-.33.35.6.6.61.25.41.55.21.88.94a8.46,8.46,0,0,0,1.1,1.21c.39.62.82.62,1.27,1.42q.33.39.69.78a1.63,1.63,0,0,1,.71.8,5,5,0,0,0,1.23,1.4c.42.42.84,1.35,1.26,1.43a7.14,7.14,0,0,0,1.27,1.44c.42.84.83,1.27,1.24,1.41.4.47.8.92,1.19,1.36l1.11,1.26h0l1.69,1.92L12.63,20h0l-1.11,1.27L10.33,22.6c-.41.14-.82.58-1.24,1.42a7.14,7.14,0,0,0-1.27,1.44c-.42.08-.84,1-1.26,1.43a5,5,0,0,0-1.23,1.4,1.63,1.63,0,0,1-.71.8q-.36.39-.69.78c-.45.8-.88.79-1.27,1.42a8.46,8.46,0,0,0-1.1,1.21c-.33.73-.63.53-.88.94-.25,0-.45.94-.6.61,0-.4,0,.28-.06.43.23,0,.47-.25.7,0,.23-.17.46.41.69,0h0c.2-.43.41,0,.62,0,.1.21.21-.42.31,0h0c.28,0,.57-.2.86.19a3.4,3.4,0,0,1,.87-.19c.29.11.59.26.88.09.3.38.59-.17.89-.08.6-.14,1.2.45,1.79,0,.6.1,1.19-.15,1.78,0a4.38,4.38,0,0,1,1.73,0c1.49-1.67,3.16-3.53,4.79-5.37l1.22-1.37a2.36,2.36,0,0,0,1.18-1.33h0c.07.19.15-.75.22-.25.15,0,.29-.11.44-.49h0a2.14,2.14,0,0,0,.73-.78,2.24,2.24,0,0,0,.74.78h0c.14.38.29.48.43.49.08-.5.15.44.22.25,0,.26,0-.07,0,0a2.32,2.32,0,0,0,1.18,1.33l1.21,1.37,4.8,5.37a4.38,4.38,0,0,1,1.73,0c.58-.16,1.18.09,1.77,0,.6.44,1.2-.15,1.79,0,.3-.09.6.46.89.08.3.17.59,0,.89-.09a3.4,3.4,0,0,1,.87.19c.29-.39.57-.24.85-.19h0c.1-.42.21.21.31,0,.21,0,.42-.43.62,0h0c.23.41.46-.17.7,0,.23-.24.46,0,.69,0C39.41,34.33,39.37,33.65,39.37,34.05Z"/><path class="cls-1" d="M20.48,10.46Z"/><path class="cls-1" d="M19,10.46Z"/><path class="cls-1" d="M19,25.7Z"/><path class="cls-2" d="M22.83,24.23Z"/><path class="cls-2" d="M41.74,32.58c-.15.34-.36-.6-.61-.61-.25-.41-.54-.2-.87-.94a9,9,0,0,0-1.1-1.21c-.4-.62-.82-.62-1.27-1.42-.23-.26-.45-.52-.69-.78a1.63,1.63,0,0,1-.71-.8,5.07,5.07,0,0,0-1.23-1.39C34.84,25,34.42,24.08,34,24a7.4,7.4,0,0,0-1.26-1.44c-.42-.84-.83-1.27-1.24-1.41L30.3,19.78l-1.11-1.26h0l-1.67-1.89,1.69-1.92h0l1.11-1.27c.39-.43.78-.89,1.19-1.35.41-.14.82-.58,1.24-1.41A7.77,7.77,0,0,0,34,9.24c.42-.09.84-1,1.26-1.44a5.07,5.07,0,0,0,1.23-1.39c.24-.44.48-.73.71-.8l.69-.78c.45-.81.87-.8,1.27-1.42a9.69,9.69,0,0,0,1.1-1.21c.33-.74.62-.54.87-.94.25,0,.46-.95.61-.62s0-.28.06-.42c-.24,0-.47.24-.7,0-.23.18-.47-.4-.7,0h0c-.2.42-.41,0-.61,0-.11-.22-.21.41-.31,0h0c-.29.05-.57.2-.86-.2a3,3,0,0,1-.87.19c-.29-.1-.59-.26-.88-.08-.3-.38-.6.16-.89.08-.6.13-1.2-.46-1.79,0-.6-.1-1.19.15-1.78,0a4.2,4.2,0,0,1-1.73,0L29.55,1.47,28.36,2.8c-.41.91-.82.93-1.23,1.37-.41.64-.82,1.29-1.23,1.38a5.25,5.25,0,0,0-1.21,1.37c-.2,0-.4.3-.6.59a3.17,3.17,0,0,1-.58.74h0c-.08.1-.15-.28-.22.25-.15-.18-.3,1.05-.44.5-.23.69-.46.63-.69.79a.19.19,0,0,1-.07.08A.28.28,0,0,1,22,9.79c-.23-.16-.46-.1-.69-.79-.14.55-.29-.68-.44-.5-.07-.53-.15-.15-.22-.25h0a3.17,3.17,0,0,1-.58-.74c-.2-.29-.4-.55-.6-.59a5.09,5.09,0,0,0-1.22-1.37c-.4-.09-.81-.74-1.22-1.38-.41-.44-.82-.46-1.23-1.37L14.64,1.47,13.49.18a4.2,4.2,0,0,1-1.73,0c-.59.17-1.18-.08-1.78,0-.59-.45-1.19.14-1.79,0C7.9.3,7.6-.24,7.3.14,7,0,6.71.12,6.42.22A3,3,0,0,1,5.55,0c-.29.4-.57.25-.86.2h0c-.1.41-.2-.22-.31,0-.2,0-.41.42-.62,0h0c-.23-.4-.46.18-.69,0-.23.24-.47,0-.7,0,0,.14.06.82.06.42s.36.61.61.62c.25.4.54.2.87.94A9.69,9.69,0,0,0,5,3.41c.4.62.82.61,1.27,1.42.22.26.45.51.69.78.23.07.47.36.71.8A5.07,5.07,0,0,0,8.91,7.8c.42.43.84,1.35,1.26,1.44a7.77,7.77,0,0,0,1.27,1.44c.42.83.83,1.27,1.24,1.41.41.46.8.92,1.19,1.35L15,14.71h0l1.69,1.92L15,18.52h0l-1.11,1.26L12.7,21.14c-.41.14-.82.57-1.24,1.41A7.77,7.77,0,0,0,10.19,24c-.42.09-.84,1-1.26,1.44A5.07,5.07,0,0,0,7.7,26.82a1.63,1.63,0,0,1-.71.8q-.36.39-.69.78c-.45.8-.87.8-1.27,1.42A9,9,0,0,0,3.93,31c-.33.74-.62.53-.87.94-.25,0-.46,1-.61.61s0,.28-.06.43c.23,0,.47-.24.7,0,.23-.18.46.4.69,0h0c.21-.43.42,0,.62,0,.11.22.21-.41.31,0h0c.29,0,.57-.2.86.2a3.42,3.42,0,0,1,.87-.2c.29.11.59.27.88.09.3.38.6-.17.89-.08.6-.13,1.2.46,1.79,0,.6.1,1.19-.15,1.78,0a4.38,4.38,0,0,1,1.73,0l4.79-5.37,1.22-1.37A2.36,2.36,0,0,0,20.7,25h0c.07.18.15-.75.22-.25.15,0,.3-.11.44-.5h0a2.27,2.27,0,0,0,.73-.79,2.38,2.38,0,0,0,.74.79h0c.14.39.29.48.44.5.07-.5.14.43.22.25h0a2.36,2.36,0,0,0,1.18,1.33l1.21,1.37,4.8,5.37a4.38,4.38,0,0,1,1.73,0c.59-.16,1.18.09,1.78,0,.59.45,1.19-.14,1.79,0,.29-.09.59.46.89.08.29.18.59,0,.88-.09a3.42,3.42,0,0,1,.87.2c.29-.4.57-.25.85-.2h0c.11-.41.21.22.32,0,.2,0,.41-.43.61,0h0c.23.41.47-.17.7,0,.23-.24.46,0,.7,0C41.78,32.86,41.74,32.19,41.74,32.58Z"/><path class="cls-2" d="M22.85,9Z"/><path class="cls-2" d="M21.34,9Z"/><path class="cls-2" d="M21.36,24.23Z"/></g></g></svg>