<svg xmlns="http://www.w3.org/2000/svg" viewBox="0 0 39.45 33.23"><defs><style>.cls-1{fill:#8bd954;}</style></defs><g id="Layer_2" data-name="Layer 2"><g id="Layer_1-2" data-name="Layer 1"><path class="cls-1" d="M20.46,24.23Z"/><path class="cls-1" d="M39.37,32.58c-.15.34-.36-.6-.61-.61-.25-.41-.54-.2-.87-.94a9.76,9.76,0,0,0-1.1-1.21c-.4-.62-.83-.62-1.27-1.42l-.69-.78a1.63,1.63,0,0,1-.71-.8,5.09,5.09,0,0,0-1.24-1.39c-.41-.43-.83-1.35-1.26-1.44a7.4,7.4,0,0,0-1.26-1.44,2.6,2.6,0,0,0-1.24-1.41l-1.19-1.36-1.11-1.26h0l-1.67-1.89,1.69-1.92h0L28,13.44l1.19-1.35a2.64,2.64,0,0,0,1.24-1.41,7.4,7.4,0,0,0,1.26-1.44c.43-.09.85-1,1.26-1.44a5.09,5.09,0,0,0,1.24-1.39c.24-.44.48-.73.71-.8.23-.27.46-.52.69-.78C36,4,36.41,4,36.81,3.41a10.53,10.53,0,0,0,1.1-1.21c.33-.74.62-.54.87-.94.25,0,.46-.95.61-.62s0-.28.06-.42c-.24,0-.47.24-.7,0-.23.18-.47-.4-.7,0h0c-.2.42-.41,0-.62,0-.1-.22-.2.41-.31,0h0c-.28.05-.56.2-.85-.2a3,3,0,0,1-.87.19c-.3-.1-.59-.26-.89-.08-.29-.38-.59.16-.89.08-.59.13-1.19-.46-1.79,0-.59-.1-1.19.15-1.77,0a4.2,4.2,0,0,1-1.73,0L27.18,1.47,26,2.8c-.4.91-.81.93-1.22,1.37-.41.64-.82,1.29-1.23,1.38a5.07,5.07,0,0,0-1.21,1.37c-.2,0-.4.3-.6.59a3.46,3.46,0,0,1-.58.74c0-.19,0,.82,0,0-.07.1-.14-.28-.22.25-.14-.18-.29,1.05-.43.5-.23.69-.46.63-.7.79a.28.28,0,0,1-.06.08.28.28,0,0,1-.06-.08c-.23-.16-.46-.1-.69-.79-.15.55-.29-.68-.44-.5-.07-.53-.15-.15-.22-.25h0a3.47,3.47,0,0,1-.59-.74c-.19-.29-.39-.55-.59-.59a5.09,5.09,0,0,0-1.22-1.37c-.41-.09-.82-.74-1.23-1.38-.41-.44-.81-.46-1.22-1.37L12.27,1.47,11.12.18a4.2,4.2,0,0,1-1.73,0C8.8.36,8.21.11,7.61.21,7-.24,6.42.35,5.82.22c-.3.08-.59-.46-.89-.08-.29-.18-.59,0-.88.08A3,3,0,0,1,3.18,0c-.29.4-.58.25-.86.2h0C2.22.64,2.11,0,2,.23c-.21,0-.42.42-.62,0h0C1.16-.18.93.4.7.22.47.46.23.18,0,.22,0,.36.06,1,.06.64c.15-.33.35.61.6.62.25.4.55.2.88.94a9.69,9.69,0,0,0,1.1,1.21C3,4,3.46,4,3.91,4.83c.22.26.45.51.69.78.23.07.47.36.71.8A4.92,4.92,0,0,0,6.54,7.8c.42.43.84,1.35,1.26,1.44a7.42,7.42,0,0,0,1.27,1.44c.42.83.83,1.27,1.24,1.41.4.46.8.92,1.19,1.35s.75.87,1.11,1.27h0l1.69,1.92-1.67,1.89h0l-1.11,1.26c-.39.44-.79.89-1.19,1.36-.41.14-.82.57-1.24,1.41A7.42,7.42,0,0,0,7.82,24c-.42.09-.84,1-1.26,1.44a4.92,4.92,0,0,0-1.23,1.39,1.63,1.63,0,0,1-.71.8q-.36.39-.69.78c-.45.8-.88.8-1.27,1.42A9,9,0,0,0,1.56,31c-.33.74-.63.53-.88.94-.25,0-.45,1-.6.61,0-.39,0,.28-.06.43.23,0,.47-.24.7,0,.23-.18.46.4.69,0h0c.2-.43.41,0,.62,0,.1.22.21-.41.31,0h0c.28,0,.57-.2.86.2a3.42,3.42,0,0,1,.87-.2c.29.11.59.27.88.09.3.38.59-.17.89-.08.6-.13,1.2.46,1.79,0,.6.1,1.19-.15,1.78,0a4.38,4.38,0,0,1,1.73,0l4.79-5.37,1.22-1.37A2.39,2.39,0,0,0,18.33,25h0c.07.18.15-.75.22-.25.15,0,.29-.11.44-.5h0a2.27,2.27,0,0,0,.73-.79,2.38,2.38,0,0,0,.74.79h0c.14.39.29.48.43.5.08-.5.15.43.22.25,0,.26,0-.08,0,0a2.36,2.36,0,0,0,1.18,1.33l1.21,1.37,4.8,5.37A4.37,4.37,0,0,1,30,33c.58-.16,1.18.09,1.77,0,.6.45,1.2-.14,1.79,0,.3-.09.6.46.89.08.3.18.59,0,.89-.09a3.42,3.42,0,0,1,.87.2c.29-.4.57-.25.85-.2h0c.1-.41.21.22.31,0,.21,0,.42-.43.62,0h0c.23.41.46-.17.7,0,.23-.24.46,0,.69,0C39.41,32.86,39.37,32.19,39.37,32.58Z"/><path class="cls-1" d="M20.48,9Z"/><path class="cls-1" d="M19,9Z"/><path class="cls-1" d="M19,24.23Z"/></g></g></svg>